<svg width="793" height="229" viewBox="0 0 793 229" fill="none" xmlns="http://www.w3.org/2000/svg">
<path d="M286.877 45.6797C300.782 45.6797 315.118 42.7321 328.857 40.7116C344.653 38.3888 360.594 37.5688 376.303 34.9982C397.362 31.5522 418.71 31.0952 439.895 28.2912C506.271 19.5062 571.035 16.6161 637.876 16.6161C663.514 16.6161 685.156 27.3044 709.914 31.7689C731.81 35.7176 756.268 46.1258 772.015 62.323C783.253 73.8819 789.901 92.9551 789.901 108.775C789.901 122.237 781.122 126.984 770.773 134.609C758.253 143.835 743.912 151.321 730.78 159.698C724.239 163.871 716.565 165.152 709.789 168.765C703.614 172.059 699.556 176.861 692.525 178.826C666.881 185.991 641.381 193.475 615.519 199.94C581.325 208.489 544.463 215.189 509.201 215.59C481.682 215.903 454.816 220.061 427.227 220.061C404.125 220.061 381.023 220.061 357.921 220.061C325.709 220.061 293.86 224.533 261.788 224.533C235.493 224.533 206.84 227.893 180.807 224.036C157.145 220.53 133.738 216.726 110.135 213.354C75.5848 208.419 -32.3981 152.579 14.3744 109.148C67.8924 59.4524 135.214 37.3296 204.157 20.0938C236.014 12.1297 267.218 3.20215 300.415 3.20215C344.487 3.20215 388.158 5.43781 432.443 5.43781C477.947 5.43781 535.226 2.39722 576.395 24.5651C584.852 29.119 592.63 34.5091 600.863 36.8613C607.272 38.6924 610.752 47.7674 615.519 50.151" stroke="black" stroke-width="5" stroke-linecap="round"/>
</svg>
