<svg width="5433" height="1215" viewBox="0 0 5433 1215" fill="none" xmlns="http://www.w3.org/2000/svg">
<g filter="url(#filter0_d_105_9)">
<path d="M3458.85 120.448C3188.55 111.009 2917.28 96.1828 2646.91 93.7794C2099.58 88.9142 1549.98 121.403 1019.6 207.153C666.231 264.285 129.908 322.787 58.214 631.942C41.405 704.425 20.3043 803.171 70.1057 872.492C119.101 940.692 281.538 957.894 372.801 971.954C538.128 997.426 706.453 1007.56 874.41 1015.17C1223.64 1030.98 1574.47 1041.51 1923.89 1041.71C2699.98 1042.14 3484.24 999.257 4236.99 875.608C4606.9 814.846 5061.85 745.766 5330.14 540.098C5373.33 506.996 5417.06 455.516 5377.69 409.053C5345.7 371.297 5274.42 341.419 5223.23 320.244C5048.23 247.85 4847.15 219.998 4651.72 193.7C4363.04 154.856 4072.55 134.245 3779.99 135.875C3365.53 138.185 3002.98 220.627 2618.83 316.924C2514.83 342.995 2411.22 363.621 2312.78 398.92C2287.66 407.927 2247.42 416.435 2233.96 434.084" stroke="black" stroke-width="18" stroke-linecap="round"/>
</g>
<g filter="url(#filter1_d_105_9)">
<path d="M3906.84 1126.01C3905.98 1123.07 3903.84 1119.43 3902.52 1116.71C3901.64 1114.9 3898.42 1111.23 3896.59 1110.23C3893.52 1108.56 3893.81 1101.97 3893.24 1098.71C3892.41 1094 3888.65 1089.96 3885.94 1086.13C3882.02 1080.59 3878.47 1074.01 3872.79 1070.03C3869.44 1067.68 3866.06 1063.77 3863.24 1060.73C3859.32 1056.48 3855.05 1053.39 3849.94 1050.67C3844.87 1047.97 3838.67 1045.39 3834.03 1042.14C3830.89 1039.94 3828.69 1036.47 3825.27 1034.55C3819.03 1031.05 3810.66 1023.85 3802.84 1024.78C3801.33 1024.96 3798.31 1024.16 3796.72 1023.91C3794.17 1023.5 3791.3 1023.3 3788.8 1022.47C3784.14 1020.93 3778.18 1021.28 3773.12 1020.79C3767.35 1020.23 3762.62 1020.55 3756.98 1019C3755.37 1018.56 3753.03 1019.06 3751.29 1018.88C3749.28 1018.67 3747.57 1017.08 3745.26 1017.35C3740.87 1017.86 3734.67 1014.2 3730.41 1012.94C3725.85 1011.58 3721.28 1009.88 3717.86 1006.55C3715.39 1004.14 3712.67 1003.27 3710.58 1000.17C3709.17 998.082 3706.06 994.483 3705.67 992.245C3704.99 988.421 3697.21 973.955 3703.14 972.91C3709.96 971.707 3711.7 965.247 3717.86 964.16C3721.39 963.538 3724.42 961.184 3727.65 959.846C3730.35 958.724 3732.85 958 3736.01 957.442C3742.41 956.315 3748.8 955.187 3755.2 954.059C3758.69 953.444 3763.36 954.037 3766.89 954.44C3771.03 954.912 3774.68 953.892 3778.82 953.411C3781.08 953.148 3784.85 954.476 3787.38 954.588C3790.44 954.723 3794.16 953.993 3797.13 955.018C3800.39 956.144 3803.47 956.098 3806.88 955.496C3812.36 954.53 3807.93 951.767 3806.32 949.831C3803.96 946.992 3799.15 946.279 3797.93 942.129C3797.59 940.972 3796.13 938.83 3795.05 938.241C3794.06 937.704 3793.99 935.177 3793.21 934.17C3788.39 927.987 3785.4 920.573 3783.08 913.048C3779.87 902.602 3772.65 893.474 3770.72 882.552C3770.01 878.485 3766.8 872.207 3763.97 869.188C3763.15 868.312 3761.19 868.36 3760.98 867.176C3760.52 864.586 3760.07 861.997 3759.61 859.407C3758.9 855.389 3756.93 851.494 3755.71 847.542C3753.99 841.956 3750.35 836.834 3749.35 831.13C3748.51 826.361 3747.67 821.593 3746.83 816.824C3746.54 815.182 3746.25 813.54 3745.96 811.898C3745.55 809.605 3747.37 809.917 3746.99 807.808C3746.58 805.437 3748.11 802.67 3748.23 800.118C3748.36 797.167 3750.41 793.783 3752.47 791.506C3753.93 789.892 3753.23 788.452 3753.96 786.359C3754.41 785.058 3755.99 784.011 3756.65 782.807C3757.1 781.989 3759 780.271 3759.88 780.041C3761.7 779.56 3763.27 776.735 3764.56 775.307C3766.09 773.619 3770 772.101 3772.28 771.7C3776.72 770.916 3778.63 770.016 3782.11 772.604C3784.06 774.056 3786.34 776.773 3788.65 777.604C3791.59 778.657 3792.52 782.252 3794.94 783.088C3796.76 783.717 3801.04 787.294 3801.76 789.359C3802.17 790.515 3804.54 792.633 3805.53 793.53C3806.94 794.806 3806.02 797.028 3807.53 798.209C3809.21 799.526 3811.53 804.836 3811.89 806.914C3812.56 810.704 3815.01 815.105 3816.78 818.556C3819.24 823.367 3821.41 829.249 3824.15 833.765C3827.94 840.013 3828.24 848.056 3831.71 854.46C3833.65 858.054 3834.14 862.263 3835.7 866.016C3836.82 868.718 3838.7 871.335 3839.52 874.133C3840.39 877.092 3841.87 879.649 3843.63 882.2C3845.22 884.502 3845.5 887.845 3847.19 889.925C3849.97 893.352 3850.59 898.828 3852.73 902.77C3854.47 905.98 3857.03 908.512 3859.15 911.504C3860.62 913.568 3863.49 920.017 3862.28 913.198C3861.68 909.788 3861.08 906.377 3860.48 902.967C3860.19 901.297 3857.5 892.437 3858.8 890.954C3859.6 890.046 3862.8 886.19 3862.66 885.438C3861.66 879.753 3877.71 875.567 3880.73 873.217C3883.24 871.265 3887.85 870.008 3891.05 869.443C3893.19 869.067 3895.32 868.691 3897.45 868.315C3899.41 867.97 3900.93 869.134 3902.86 869.071C3904.72 869.01 3910.19 872.417 3911.67 874.207C3912.92 875.701 3915.86 879.619 3917.44 879.784C3918.23 879.866 3918.44 882.099 3919.62 881.89C3919.86 881.849 3920.9 879.284 3922.17 878.901C3923.45 878.518 3923.39 876.928 3924.86 876.67C3926.6 876.362 3927.81 875.36 3929.4 874.99C3939.26 872.68 3948.64 869.777 3958.92 870.664C3965.12 871.199 3972.34 874.753 3976.18 879.928C3977.2 881.305 3982.51 888.373 3982.01 884.176C3981.72 881.784 3988.15 880.455 3990.08 880.114C3997.59 878.79 4006.68 880.027 4012.6 885.375C4014.09 886.729 4015.98 887.514 4017.52 888.903C4018.92 890.167 4019.56 891.905 4020.68 892.986C4024.32 896.501 4027.17 900.973 4030.49 904.835C4032.11 906.73 4034.55 912.896 4034.97 915.279C4035.72 919.542 4036.47 923.805 4037.22 928.068C4038.82 937.16 4036.41 947.279 4032.31 955.357C4030 959.923 4029.39 965.179 4027.19 969.79C4025.73 972.835 4026.46 976.174 4025.54 979.263C4024.75 981.908 4023.96 982.521 4024.49 985.505C4025.27 989.935 4022.81 994.811 4023.49 999.748C4024.05 1003.89 4021.36 1007.61 4022.06 1011.62C4022.37 1013.39 4021.53 1014.63 4021.33 1016.34C4021.09 1018.43 4021.95 1020.94 4022.31 1023.01C4023.04 1027.11 4023.76 1031.22 4024.48 1035.32C4025.18 1039.26 4026.34 1043.32 4028.7 1046.5C4030 1048.26 4032.06 1049.8 4032.69 1051.95C4033.18 1053.64 4032.47 1051.99 4030.56 1052.33C4023.41 1053.58 4015.07 1052.44 4008.93 1057.9C4002.49 1063.62 3994.67 1067.81 3988.07 1073.4C3985.33 1075.72 3982.2 1078.46 3979.31 1080.51C3976.8 1082.28 3971.39 1084.77 3970.2 1087.58C3968.91 1090.65 3960.71 1094.68 3957.95 1096.78C3955.57 1098.59 3953.4 1100.67 3950.99 1102.45C3949.52 1103.54 3948.67 1105.47 3947.15 1106.4C3946.09 1107.04 3944.89 1106.69 3944.3 1107.98C3942.52 1111.88 3937.22 1114.65 3934.25 1117.17C3931.23 1119.73 3926.82 1121.87 3923.03 1123.11C3919.65 1124.22 3904.79 1124.34 3905.5 1128.39C3906.33 1133.1 3906.41 1139.24 3908.25 1143.69C3908.66 1144.67 3915.04 1142.15 3916.24 1141.94C3922.2 1140.89 3929.12 1140.42 3933.77 1136.65C3938.35 1132.93 3946.38 1130.97 3949.75 1126.16C3951.13 1124.2 3954.82 1123.58 3956.7 1122.05C3959.21 1120.02 3960.52 1118.63 3962.94 1117C3968.92 1112.97 3973.64 1107.98 3979.49 1104.21C3982.12 1102.52 3984.85 1101.02 3987.41 1099.3C3988.41 1098.63 3989.07 1096.91 3990.03 1096.44C3991.2 1095.88 3993.44 1095.66 3994.29 1094.57C3997.56 1090.39 4004.33 1084.61 4009.5 1082.46C4017.73 1079.05 4023.79 1072.86 4032.97 1071.24C4034.99 1070.88 4040.64 1069.59 4038.62 1066.73C4037.33 1064.92 4035.68 1063.44 4034.33 1061.82C4033.49 1060.8 4030.95 1060.89 4030.48 1059.37C4030.12 1058.18 4023.36 1056.61 4022.02 1056.27C4018.84 1055.48 4015.49 1054.98 4012.23 1055.56" stroke="black" stroke-width="18" stroke-linecap="round"/>
<path d="M3700.83 833.572C3702.12 833.345 3702.52 831.997 3703.51 831.517C3704.08 831.239 3704.83 831.415 3705.4 831.138C3705.87 830.909 3706.28 830.347 3706.82 830.084C3707.96 829.53 3708.84 828.144 3710.08 827.926C3710.77 827.804 3712.82 826.497 3713.34 825.923C3715.27 823.792 3719.21 824.094 3720.98 822.076C3721.62 821.349 3723.86 821.078 3724.8 820.913C3726.32 820.644 3727.85 820.374 3729.38 820.104" stroke="black" stroke-width="18" stroke-linecap="round"/>
<path d="M3688.49 779.523C3692.95 778.737 3697.48 778.341 3701.99 778.66C3706.24 778.96 3709.98 780.643 3714.1 781.411C3715.47 781.666 3716.54 782.456 3717.91 782.368C3718.81 782.311 3719.68 783.465 3720.68 783.509C3722.49 783.59 3724.54 786.018 3726.52 785.669" stroke="black" stroke-width="18" stroke-linecap="round"/>
<path d="M3719.89 729.812C3720.5 729.855 3722.92 732.58 3723.6 733.172C3724.63 734.065 3725.79 735.15 3726.97 735.792C3729.47 737.16 3730.22 740.597 3732.17 742.506C3733.27 743.589 3733.43 744.935 3734.23 746.135C3735.26 747.678 3736.09 749.142 3736.47 750.984C3736.79 752.543 3738.54 753.586 3738.82 755.188C3738.96 756.009 3739.24 757.342 3740.04 757.582" stroke="black" stroke-width="18" stroke-linecap="round"/>
<path d="M3780.07 704.102C3780.76 708.032 3779.62 712.106 3780.28 715.865C3780.57 717.513 3780.24 719.169 3780.55 720.923C3780.98 723.356 3778.84 725.309 3779.25 727.606C3779.99 731.829 3778.2 735.777 3778.95 739.976C3779.27 741.813 3777.12 745.457 3775.74 746.475" stroke="black" stroke-width="18" stroke-linecap="round"/>
<path d="M3830.16 738.121C3826.21 741.778 3822.21 745.403 3817.69 748.361C3814.67 750.332 3811.6 752.05 3808.98 754.554C3807.32 756.143 3805.76 758.26 3803.89 759.523C3802.82 760.239 3802.21 762.265 3801.04 763.131" stroke="black" stroke-width="18" stroke-linecap="round"/>
</g>
<mask id="path-8-outside-1_105_9" maskUnits="userSpaceOnUse" x="1265" y="538" width="2340" height="194" fill="black">
<rect fill="white" x="1265" y="538" width="2340" height="194"/>
<path d="M1328.2 690C1317.27 690 1306.8 688.467 1296.8 685.4C1286.8 682.2 1278.87 678.133 1273 673.2L1282 653C1287.6 657.4 1294.53 661.067 1302.8 664C1311.07 666.933 1319.53 668.4 1328.2 668.4C1335.53 668.4 1341.47 667.6 1346 666C1350.53 664.4 1353.87 662.267 1356 659.6C1358.13 656.8 1359.2 653.667 1359.2 650.2C1359.2 645.933 1357.67 642.533 1354.6 640C1351.53 637.333 1347.53 635.267 1342.6 633.8C1337.8 632.2 1332.4 630.733 1326.4 629.4C1320.53 628.067 1314.6 626.533 1308.6 624.8C1302.73 622.933 1297.33 620.6 1292.4 617.8C1287.6 614.867 1283.67 611 1280.6 606.2C1277.53 601.4 1276 595.267 1276 587.8C1276 580.2 1278 573.267 1282 567C1286.13 560.6 1292.33 555.533 1300.6 551.8C1309 547.933 1319.6 546 1332.4 546C1340.8 546 1349.13 547.067 1357.4 549.2C1365.67 551.333 1372.87 554.4 1379 558.4L1370.8 578.6C1364.53 574.867 1358.07 572.133 1351.4 570.4C1344.73 568.533 1338.33 567.6 1332.2 567.6C1325 567.6 1319.13 568.467 1314.6 570.2C1310.2 571.933 1306.93 574.2 1304.8 577C1302.8 579.8 1301.8 583 1301.8 586.6C1301.8 590.867 1303.27 594.333 1306.2 597C1309.27 599.533 1313.2 601.533 1318 603C1322.93 604.467 1328.4 605.933 1334.4 607.4C1340.4 608.733 1346.33 610.267 1352.2 612C1358.2 613.733 1363.6 616 1368.4 618.8C1373.33 621.6 1377.27 625.4 1380.2 630.2C1383.27 635 1384.8 641.067 1384.8 648.4C1384.8 655.867 1382.73 662.8 1378.6 669.2C1374.6 675.467 1368.4 680.533 1360 684.4C1351.6 688.133 1341 690 1328.2 690ZM1453.38 689.4C1444.31 689.4 1436.31 687.733 1429.38 684.4C1422.45 680.933 1417.05 675.733 1413.18 668.8C1409.31 661.733 1407.38 652.867 1407.38 642.2V581.2H1432.38V638.8C1432.38 648.4 1434.51 655.6 1438.78 660.4C1443.18 665.067 1449.38 667.4 1457.38 667.4C1463.25 667.4 1468.31 666.2 1472.58 663.8C1476.98 661.4 1480.38 657.8 1482.78 653C1485.31 648.2 1486.58 642.267 1486.58 635.2V581.2H1511.58V688H1487.78V659.2L1491.98 668C1488.38 674.933 1483.11 680.267 1476.18 684C1469.25 687.6 1461.65 689.4 1453.38 689.4ZM1544.31 688V581.2H1568.11V610.6L1565.31 602C1568.51 594.8 1573.51 589.333 1580.31 585.6C1587.25 581.867 1595.85 580 1606.11 580V603.8C1605.05 603.533 1604.05 603.4 1603.11 603.4C1602.18 603.267 1601.25 603.2 1600.31 603.2C1590.85 603.2 1583.31 606 1577.71 611.6C1572.11 617.067 1569.31 625.267 1569.31 636.2V688H1544.31ZM1676.55 689.4C1664.68 689.4 1654.28 687.067 1645.35 682.4C1636.55 677.6 1629.68 671.067 1624.75 662.8C1619.95 654.533 1617.55 645.133 1617.55 634.6C1617.55 623.933 1619.88 614.533 1624.55 606.4C1629.35 598.133 1635.88 591.667 1644.15 587C1652.55 582.333 1662.08 580 1672.75 580C1683.15 580 1692.41 582.267 1700.55 586.8C1708.68 591.333 1715.08 597.733 1719.75 606C1724.41 614.267 1726.75 624 1726.75 635.2C1726.75 636.267 1726.68 637.467 1726.55 638.8C1726.55 640.133 1726.48 641.4 1726.35 642.6H1637.35V626H1713.15L1703.35 631.2C1703.48 625.067 1702.21 619.667 1699.55 615C1696.88 610.333 1693.21 606.667 1688.55 604C1684.01 601.333 1678.75 600 1672.75 600C1666.61 600 1661.21 601.333 1656.55 604C1652.01 606.667 1648.41 610.4 1645.75 615.2C1643.21 619.867 1641.95 625.4 1641.95 631.8V635.8C1641.95 642.2 1643.41 647.867 1646.35 652.8C1649.28 657.733 1653.41 661.533 1658.75 664.2C1664.08 666.867 1670.21 668.2 1677.15 668.2C1683.15 668.2 1688.55 667.267 1693.35 665.4C1698.15 663.533 1702.41 660.6 1706.15 656.6L1719.55 672C1714.75 677.6 1708.68 681.933 1701.35 685C1694.15 687.933 1685.88 689.4 1676.55 689.4ZM1750.76 688V539.6H1775.76V688H1750.76ZM1817.37 728.2C1812.17 728.2 1806.97 727.333 1801.77 725.6C1796.57 723.867 1792.24 721.467 1788.77 718.4L1798.77 700C1801.31 702.267 1804.17 704.067 1807.37 705.4C1810.57 706.733 1813.84 707.4 1817.17 707.4C1821.71 707.4 1825.37 706.267 1828.17 704C1830.97 701.733 1833.57 697.933 1835.97 692.6L1842.17 678.6L1844.17 675.6L1884.57 581.2H1908.57L1858.57 696.6C1855.24 704.6 1851.51 710.933 1847.37 715.6C1843.37 720.267 1838.84 723.533 1833.77 725.4C1828.84 727.267 1823.37 728.2 1817.37 728.2ZM1839.37 691.8L1791.17 581.2H1817.17L1856.37 673.4L1839.37 691.8ZM1910.96 718.2L1922.56 674L1925.96 688.8C1921.29 688.8 1917.36 687.4 1914.16 684.6C1911.09 681.667 1909.56 677.733 1909.56 672.8C1909.56 667.733 1911.09 663.733 1914.16 660.8C1917.36 657.733 1921.22 656.2 1925.76 656.2C1930.42 656.2 1934.29 657.733 1937.36 660.8C1940.42 663.867 1941.96 667.867 1941.96 672.8C1941.96 674.133 1941.82 675.6 1941.56 677.2C1941.29 678.667 1940.82 680.4 1940.16 682.4C1939.62 684.4 1938.69 686.933 1937.36 690L1927.16 718.2H1910.96ZM2047.26 655L2045.86 624.2L2119.26 548H2148.46L2087.46 612.8L2073.06 628.6L2047.26 655ZM2024.06 688V548H2050.06V688H2024.06ZM2121.66 688L2068.06 624.2L2085.26 605.2L2152.06 688H2121.66ZM2226.01 580C2234.54 580 2242.14 581.667 2248.81 585C2255.61 588.333 2260.94 593.467 2264.81 600.4C2268.67 607.2 2270.61 616 2270.61 626.8V688H2245.61V630C2245.61 620.533 2243.34 613.467 2238.81 608.8C2234.41 604.133 2228.21 601.8 2220.21 601.8C2214.34 601.8 2209.14 603 2204.61 605.4C2200.07 607.8 2196.54 611.4 2194.01 616.2C2191.61 620.867 2190.41 626.8 2190.41 634V688H2165.41V581.2H2189.21V610L2185.01 601.2C2188.74 594.4 2194.14 589.2 2201.21 585.6C2208.41 581.867 2216.67 580 2226.01 580ZM2350.52 689.4C2339.58 689.4 2329.85 687.067 2321.32 682.4C2312.78 677.6 2306.05 671.067 2301.12 662.8C2296.18 654.533 2293.72 645.133 2293.72 634.6C2293.72 623.933 2296.18 614.533 2301.12 606.4C2306.05 598.133 2312.78 591.667 2321.32 587C2329.85 582.333 2339.58 580 2350.52 580C2361.58 580 2371.38 582.333 2379.92 587C2388.58 591.667 2395.32 598.067 2400.12 606.2C2405.05 614.333 2407.52 623.8 2407.52 634.6C2407.52 645.133 2405.05 654.533 2400.12 662.8C2395.32 671.067 2388.58 677.6 2379.92 682.4C2371.38 687.067 2361.58 689.4 2350.52 689.4ZM2350.52 668C2356.65 668 2362.12 666.667 2366.92 664C2371.72 661.333 2375.45 657.467 2378.12 652.4C2380.92 647.333 2382.32 641.4 2382.32 634.6C2382.32 627.667 2380.92 621.733 2378.12 616.8C2375.45 611.733 2371.72 607.867 2366.92 605.2C2362.12 602.533 2356.72 601.2 2350.72 601.2C2344.58 601.2 2339.12 602.533 2334.32 605.2C2329.65 607.867 2325.92 611.733 2323.12 616.8C2320.32 621.733 2318.92 627.667 2318.92 634.6C2318.92 641.4 2320.32 647.333 2323.12 652.4C2325.92 657.467 2329.65 661.333 2334.32 664C2339.12 666.667 2344.52 668 2350.52 668ZM2452.09 688L2412.89 581.2H2436.49L2470.09 675.4H2458.89L2494.09 581.2H2515.09L2549.29 675.4H2538.29L2572.89 581.2H2595.09L2555.69 688H2531.69L2500.49 604.6H2507.89L2476.09 688H2452.09ZM2669.96 688V548H2691.36L2752.56 650.2H2741.36L2801.56 548H2822.96L2823.16 688H2798.56L2798.36 586.6H2803.56L2752.36 672H2740.76L2688.76 586.6H2694.76V688H2669.96ZM2908.77 689.4C2896.91 689.4 2886.51 687.067 2877.57 682.4C2868.77 677.6 2861.91 671.067 2856.97 662.8C2852.17 654.533 2849.77 645.133 2849.77 634.6C2849.77 623.933 2852.11 614.533 2856.77 606.4C2861.57 598.133 2868.11 591.667 2876.37 587C2884.77 582.333 2894.31 580 2904.97 580C2915.37 580 2924.64 582.267 2932.77 586.8C2940.91 591.333 2947.31 597.733 2951.97 606C2956.64 614.267 2958.97 624 2958.97 635.2C2958.97 636.267 2958.91 637.467 2958.77 638.8C2958.77 640.133 2958.71 641.4 2958.57 642.6H2869.57V626H2945.37L2935.57 631.2C2935.71 625.067 2934.44 619.667 2931.77 615C2929.11 610.333 2925.44 606.667 2920.77 604C2916.24 601.333 2910.97 600 2904.97 600C2898.84 600 2893.44 601.333 2888.77 604C2884.24 606.667 2880.64 610.4 2877.97 615.2C2875.44 619.867 2874.17 625.4 2874.17 631.8V635.8C2874.17 642.2 2875.64 647.867 2878.57 652.8C2881.51 657.733 2885.64 661.533 2890.97 664.2C2896.31 666.867 2902.44 668.2 2909.37 668.2C2915.37 668.2 2920.77 667.267 2925.57 665.4C2930.37 663.533 2934.64 660.6 2938.37 656.6L2951.77 672C2946.97 677.6 2940.91 681.933 2933.57 685C2926.37 687.933 2918.11 689.4 2908.77 689.4ZM3095.93 688V548H3117.33L3178.53 650.2H3167.33L3227.53 548H3248.93L3249.13 688H3224.53L3224.33 586.6H3229.53L3178.33 672H3166.73L3114.73 586.6H3120.73V688H3095.93ZM3332.55 689.4C3321.62 689.4 3311.88 687.067 3303.35 682.4C3294.82 677.6 3288.08 671.067 3283.15 662.8C3278.22 654.533 3275.75 645.133 3275.75 634.6C3275.75 623.933 3278.22 614.533 3283.15 606.4C3288.08 598.133 3294.82 591.667 3303.35 587C3311.88 582.333 3321.62 580 3332.55 580C3343.62 580 3353.42 582.333 3361.95 587C3370.62 591.667 3377.35 598.067 3382.15 606.2C3387.08 614.333 3389.55 623.8 3389.55 634.6C3389.55 645.133 3387.08 654.533 3382.15 662.8C3377.35 671.067 3370.62 677.6 3361.95 682.4C3353.42 687.067 3343.62 689.4 3332.55 689.4ZM3332.55 668C3338.68 668 3344.15 666.667 3348.95 664C3353.75 661.333 3357.48 657.467 3360.15 652.4C3362.95 647.333 3364.35 641.4 3364.35 634.6C3364.35 627.667 3362.95 621.733 3360.15 616.8C3357.48 611.733 3353.75 607.867 3348.95 605.2C3344.15 602.533 3338.75 601.2 3332.75 601.2C3326.62 601.2 3321.15 602.533 3316.35 605.2C3311.68 607.867 3307.95 611.733 3305.15 616.8C3302.35 621.733 3300.95 627.667 3300.95 634.6C3300.95 641.4 3302.35 647.333 3305.15 652.4C3307.95 657.467 3311.68 661.333 3316.35 664C3321.15 666.667 3326.55 668 3332.55 668ZM3413.45 688V581.2H3437.25V610.6L3434.45 602C3437.65 594.8 3442.65 589.333 3449.45 585.6C3456.39 581.867 3464.99 580 3475.25 580V603.8C3474.19 603.533 3473.19 603.4 3472.25 603.4C3471.32 603.267 3470.39 603.2 3469.45 603.2C3459.99 603.2 3452.45 606 3446.85 611.6C3441.25 617.067 3438.45 625.267 3438.45 636.2V688H3413.45ZM3545.69 689.4C3533.82 689.4 3523.42 687.067 3514.49 682.4C3505.69 677.6 3498.82 671.067 3493.89 662.8C3489.09 654.533 3486.69 645.133 3486.69 634.6C3486.69 623.933 3489.02 614.533 3493.69 606.4C3498.49 598.133 3505.02 591.667 3513.29 587C3521.69 582.333 3531.22 580 3541.89 580C3552.29 580 3561.55 582.267 3569.69 586.8C3577.82 591.333 3584.22 597.733 3588.89 606C3593.55 614.267 3595.89 624 3595.89 635.2C3595.89 636.267 3595.82 637.467 3595.69 638.8C3595.69 640.133 3595.62 641.4 3595.49 642.6H3506.49V626H3582.29L3572.49 631.2C3572.62 625.067 3571.35 619.667 3568.69 615C3566.02 610.333 3562.35 606.667 3557.69 604C3553.15 601.333 3547.89 600 3541.89 600C3535.75 600 3530.35 601.333 3525.69 604C3521.15 606.667 3517.55 610.4 3514.89 615.2C3512.35 619.867 3511.09 625.4 3511.09 631.8V635.8C3511.09 642.2 3512.55 647.867 3515.49 652.8C3518.42 657.733 3522.55 661.533 3527.89 664.2C3533.22 666.867 3539.35 668.2 3546.29 668.2C3552.29 668.2 3557.69 667.267 3562.49 665.4C3567.29 663.533 3571.55 660.6 3575.29 656.6L3588.69 672C3583.89 677.6 3577.82 681.933 3570.49 685C3563.29 687.933 3555.02 689.4 3545.69 689.4Z"/>
<path d="M1266 718H1785.67V731H1266V718ZM1851.64 718H1904.45V731H1851.64V718ZM1933.73 718H3603.49V731H1933.73V718Z"/>
</mask>
<path d="M1328.2 690C1317.27 690 1306.8 688.467 1296.8 685.4C1286.8 682.2 1278.87 678.133 1273 673.2L1282 653C1287.6 657.4 1294.53 661.067 1302.8 664C1311.07 666.933 1319.53 668.4 1328.2 668.4C1335.53 668.4 1341.47 667.6 1346 666C1350.53 664.4 1353.87 662.267 1356 659.6C1358.13 656.8 1359.2 653.667 1359.2 650.2C1359.2 645.933 1357.67 642.533 1354.6 640C1351.53 637.333 1347.53 635.267 1342.6 633.8C1337.8 632.2 1332.4 630.733 1326.4 629.4C1320.53 628.067 1314.6 626.533 1308.6 624.8C1302.73 622.933 1297.33 620.6 1292.4 617.8C1287.6 614.867 1283.67 611 1280.6 606.2C1277.53 601.4 1276 595.267 1276 587.8C1276 580.2 1278 573.267 1282 567C1286.13 560.6 1292.33 555.533 1300.6 551.8C1309 547.933 1319.6 546 1332.4 546C1340.8 546 1349.13 547.067 1357.4 549.2C1365.67 551.333 1372.87 554.4 1379 558.4L1370.8 578.6C1364.53 574.867 1358.07 572.133 1351.4 570.4C1344.73 568.533 1338.33 567.6 1332.2 567.6C1325 567.6 1319.13 568.467 1314.6 570.2C1310.2 571.933 1306.93 574.2 1304.8 577C1302.8 579.8 1301.8 583 1301.8 586.6C1301.8 590.867 1303.27 594.333 1306.2 597C1309.27 599.533 1313.2 601.533 1318 603C1322.93 604.467 1328.4 605.933 1334.4 607.4C1340.4 608.733 1346.33 610.267 1352.2 612C1358.2 613.733 1363.6 616 1368.4 618.8C1373.33 621.6 1377.27 625.4 1380.2 630.2C1383.27 635 1384.8 641.067 1384.8 648.4C1384.8 655.867 1382.73 662.8 1378.6 669.2C1374.6 675.467 1368.4 680.533 1360 684.4C1351.6 688.133 1341 690 1328.2 690ZM1453.38 689.4C1444.31 689.4 1436.31 687.733 1429.38 684.4C1422.45 680.933 1417.05 675.733 1413.18 668.8C1409.31 661.733 1407.38 652.867 1407.38 642.2V581.2H1432.38V638.8C1432.38 648.4 1434.51 655.6 1438.78 660.4C1443.18 665.067 1449.38 667.4 1457.38 667.4C1463.25 667.4 1468.31 666.2 1472.58 663.8C1476.98 661.4 1480.38 657.8 1482.78 653C1485.31 648.2 1486.58 642.267 1486.58 635.2V581.2H1511.58V688H1487.78V659.2L1491.98 668C1488.38 674.933 1483.11 680.267 1476.18 684C1469.25 687.6 1461.65 689.4 1453.38 689.4ZM1544.31 688V581.2H1568.11V610.6L1565.31 602C1568.51 594.8 1573.51 589.333 1580.31 585.6C1587.25 581.867 1595.85 580 1606.11 580V603.8C1605.05 603.533 1604.05 603.4 1603.11 603.4C1602.18 603.267 1601.25 603.2 1600.31 603.2C1590.85 603.2 1583.31 606 1577.71 611.6C1572.11 617.067 1569.31 625.267 1569.31 636.2V688H1544.31ZM1676.55 689.4C1664.68 689.4 1654.28 687.067 1645.35 682.4C1636.55 677.6 1629.68 671.067 1624.75 662.8C1619.95 654.533 1617.55 645.133 1617.55 634.6C1617.55 623.933 1619.88 614.533 1624.55 606.4C1629.35 598.133 1635.88 591.667 1644.15 587C1652.55 582.333 1662.08 580 1672.75 580C1683.15 580 1692.41 582.267 1700.55 586.8C1708.68 591.333 1715.08 597.733 1719.75 606C1724.41 614.267 1726.75 624 1726.75 635.2C1726.75 636.267 1726.68 637.467 1726.55 638.8C1726.55 640.133 1726.48 641.4 1726.35 642.6H1637.35V626H1713.15L1703.35 631.2C1703.48 625.067 1702.21 619.667 1699.55 615C1696.88 610.333 1693.21 606.667 1688.55 604C1684.01 601.333 1678.75 600 1672.75 600C1666.61 600 1661.21 601.333 1656.55 604C1652.01 606.667 1648.41 610.4 1645.75 615.2C1643.21 619.867 1641.95 625.4 1641.95 631.8V635.8C1641.95 642.2 1643.41 647.867 1646.35 652.8C1649.28 657.733 1653.41 661.533 1658.75 664.2C1664.08 666.867 1670.21 668.2 1677.15 668.2C1683.15 668.2 1688.55 667.267 1693.35 665.4C1698.15 663.533 1702.41 660.6 1706.15 656.6L1719.55 672C1714.75 677.6 1708.68 681.933 1701.35 685C1694.15 687.933 1685.88 689.4 1676.55 689.4ZM1750.76 688V539.6H1775.76V688H1750.76ZM1817.37 728.2C1812.17 728.2 1806.97 727.333 1801.77 725.6C1796.57 723.867 1792.24 721.467 1788.77 718.4L1798.77 700C1801.31 702.267 1804.17 704.067 1807.37 705.4C1810.57 706.733 1813.84 707.4 1817.17 707.4C1821.71 707.4 1825.37 706.267 1828.17 704C1830.97 701.733 1833.57 697.933 1835.97 692.6L1842.17 678.6L1844.17 675.6L1884.57 581.2H1908.57L1858.57 696.6C1855.24 704.6 1851.51 710.933 1847.37 715.6C1843.37 720.267 1838.84 723.533 1833.77 725.4C1828.84 727.267 1823.37 728.2 1817.37 728.2ZM1839.37 691.8L1791.17 581.2H1817.17L1856.37 673.4L1839.37 691.8ZM1910.96 718.2L1922.56 674L1925.96 688.8C1921.29 688.8 1917.36 687.4 1914.16 684.6C1911.09 681.667 1909.56 677.733 1909.56 672.8C1909.56 667.733 1911.09 663.733 1914.16 660.8C1917.36 657.733 1921.22 656.2 1925.76 656.2C1930.42 656.2 1934.29 657.733 1937.36 660.8C1940.42 663.867 1941.96 667.867 1941.96 672.8C1941.96 674.133 1941.82 675.6 1941.56 677.2C1941.29 678.667 1940.82 680.4 1940.16 682.4C1939.62 684.4 1938.69 686.933 1937.36 690L1927.16 718.2H1910.96ZM2047.26 655L2045.86 624.2L2119.26 548H2148.46L2087.46 612.8L2073.06 628.6L2047.26 655ZM2024.06 688V548H2050.06V688H2024.06ZM2121.66 688L2068.06 624.2L2085.26 605.2L2152.06 688H2121.66ZM2226.01 580C2234.54 580 2242.14 581.667 2248.81 585C2255.61 588.333 2260.94 593.467 2264.81 600.4C2268.67 607.2 2270.61 616 2270.61 626.8V688H2245.61V630C2245.61 620.533 2243.34 613.467 2238.81 608.8C2234.41 604.133 2228.21 601.8 2220.21 601.8C2214.34 601.8 2209.14 603 2204.61 605.4C2200.07 607.8 2196.54 611.4 2194.01 616.2C2191.61 620.867 2190.41 626.8 2190.41 634V688H2165.41V581.2H2189.21V610L2185.01 601.2C2188.74 594.4 2194.14 589.2 2201.21 585.6C2208.41 581.867 2216.67 580 2226.01 580ZM2350.52 689.4C2339.58 689.4 2329.85 687.067 2321.32 682.4C2312.78 677.6 2306.05 671.067 2301.12 662.8C2296.18 654.533 2293.72 645.133 2293.72 634.6C2293.72 623.933 2296.18 614.533 2301.12 606.4C2306.05 598.133 2312.78 591.667 2321.32 587C2329.85 582.333 2339.58 580 2350.52 580C2361.58 580 2371.38 582.333 2379.92 587C2388.58 591.667 2395.32 598.067 2400.12 606.2C2405.05 614.333 2407.52 623.8 2407.52 634.6C2407.52 645.133 2405.05 654.533 2400.12 662.8C2395.32 671.067 2388.58 677.6 2379.92 682.4C2371.38 687.067 2361.58 689.4 2350.52 689.4ZM2350.52 668C2356.65 668 2362.12 666.667 2366.92 664C2371.72 661.333 2375.45 657.467 2378.12 652.4C2380.92 647.333 2382.32 641.4 2382.32 634.6C2382.32 627.667 2380.92 621.733 2378.12 616.8C2375.45 611.733 2371.72 607.867 2366.92 605.2C2362.12 602.533 2356.72 601.2 2350.72 601.2C2344.58 601.2 2339.12 602.533 2334.32 605.2C2329.65 607.867 2325.92 611.733 2323.12 616.8C2320.32 621.733 2318.92 627.667 2318.92 634.6C2318.92 641.4 2320.32 647.333 2323.12 652.4C2325.92 657.467 2329.65 661.333 2334.32 664C2339.12 666.667 2344.52 668 2350.52 668ZM2452.09 688L2412.89 581.2H2436.49L2470.09 675.4H2458.89L2494.09 581.2H2515.09L2549.29 675.4H2538.29L2572.89 581.2H2595.09L2555.69 688H2531.69L2500.49 604.6H2507.89L2476.09 688H2452.09ZM2669.96 688V548H2691.36L2752.56 650.2H2741.36L2801.56 548H2822.96L2823.16 688H2798.56L2798.36 586.6H2803.56L2752.36 672H2740.76L2688.76 586.6H2694.76V688H2669.96ZM2908.77 689.4C2896.91 689.4 2886.51 687.067 2877.57 682.4C2868.77 677.6 2861.91 671.067 2856.97 662.8C2852.17 654.533 2849.77 645.133 2849.77 634.6C2849.77 623.933 2852.11 614.533 2856.77 606.4C2861.57 598.133 2868.11 591.667 2876.37 587C2884.77 582.333 2894.31 580 2904.97 580C2915.37 580 2924.64 582.267 2932.77 586.8C2940.91 591.333 2947.31 597.733 2951.97 606C2956.64 614.267 2958.97 624 2958.97 635.2C2958.97 636.267 2958.91 637.467 2958.77 638.8C2958.77 640.133 2958.71 641.4 2958.57 642.6H2869.57V626H2945.37L2935.57 631.2C2935.71 625.067 2934.44 619.667 2931.77 615C2929.11 610.333 2925.44 606.667 2920.77 604C2916.24 601.333 2910.97 600 2904.97 600C2898.84 600 2893.44 601.333 2888.77 604C2884.24 606.667 2880.64 610.4 2877.97 615.2C2875.44 619.867 2874.17 625.4 2874.17 631.8V635.8C2874.17 642.2 2875.64 647.867 2878.57 652.8C2881.51 657.733 2885.64 661.533 2890.97 664.2C2896.31 666.867 2902.44 668.2 2909.37 668.2C2915.37 668.2 2920.77 667.267 2925.57 665.4C2930.37 663.533 2934.64 660.6 2938.37 656.6L2951.77 672C2946.97 677.6 2940.91 681.933 2933.57 685C2926.37 687.933 2918.11 689.4 2908.77 689.4ZM3095.93 688V548H3117.33L3178.53 650.2H3167.33L3227.53 548H3248.93L3249.13 688H3224.53L3224.33 586.6H3229.53L3178.33 672H3166.73L3114.73 586.6H3120.73V688H3095.93ZM3332.55 689.4C3321.62 689.4 3311.88 687.067 3303.35 682.4C3294.82 677.6 3288.08 671.067 3283.15 662.8C3278.22 654.533 3275.75 645.133 3275.75 634.6C3275.75 623.933 3278.22 614.533 3283.15 606.4C3288.08 598.133 3294.82 591.667 3303.35 587C3311.88 582.333 3321.62 580 3332.55 580C3343.62 580 3353.42 582.333 3361.95 587C3370.62 591.667 3377.35 598.067 3382.15 606.2C3387.08 614.333 3389.55 623.8 3389.55 634.6C3389.55 645.133 3387.08 654.533 3382.15 662.8C3377.35 671.067 3370.62 677.6 3361.95 682.4C3353.42 687.067 3343.62 689.4 3332.55 689.4ZM3332.55 668C3338.68 668 3344.15 666.667 3348.95 664C3353.75 661.333 3357.48 657.467 3360.15 652.4C3362.95 647.333 3364.35 641.4 3364.35 634.6C3364.35 627.667 3362.95 621.733 3360.15 616.8C3357.48 611.733 3353.75 607.867 3348.95 605.2C3344.15 602.533 3338.75 601.2 3332.75 601.2C3326.62 601.2 3321.15 602.533 3316.35 605.2C3311.68 607.867 3307.95 611.733 3305.15 616.8C3302.35 621.733 3300.95 627.667 3300.95 634.6C3300.95 641.4 3302.35 647.333 3305.15 652.4C3307.95 657.467 3311.68 661.333 3316.35 664C3321.15 666.667 3326.55 668 3332.55 668ZM3413.45 688V581.2H3437.25V610.6L3434.45 602C3437.65 594.8 3442.65 589.333 3449.45 585.6C3456.39 581.867 3464.99 580 3475.25 580V603.8C3474.19 603.533 3473.19 603.4 3472.25 603.4C3471.32 603.267 3470.39 603.2 3469.45 603.2C3459.99 603.2 3452.45 606 3446.85 611.6C3441.25 617.067 3438.45 625.267 3438.45 636.2V688H3413.45ZM3545.69 689.4C3533.82 689.4 3523.42 687.067 3514.49 682.4C3505.69 677.6 3498.82 671.067 3493.89 662.8C3489.09 654.533 3486.69 645.133 3486.69 634.6C3486.69 623.933 3489.02 614.533 3493.69 606.4C3498.49 598.133 3505.02 591.667 3513.29 587C3521.69 582.333 3531.22 580 3541.89 580C3552.29 580 3561.55 582.267 3569.69 586.8C3577.82 591.333 3584.22 597.733 3588.89 606C3593.55 614.267 3595.89 624 3595.89 635.2C3595.89 636.267 3595.82 637.467 3595.69 638.8C3595.69 640.133 3595.62 641.4 3595.49 642.6H3506.49V626H3582.29L3572.49 631.2C3572.62 625.067 3571.35 619.667 3568.69 615C3566.02 610.333 3562.35 606.667 3557.69 604C3553.15 601.333 3547.89 600 3541.89 600C3535.75 600 3530.35 601.333 3525.69 604C3521.15 606.667 3517.55 610.4 3514.89 615.2C3512.35 619.867 3511.09 625.4 3511.09 631.8V635.8C3511.09 642.2 3512.55 647.867 3515.49 652.8C3518.42 657.733 3522.55 661.533 3527.89 664.2C3533.22 666.867 3539.35 668.2 3546.29 668.2C3552.29 668.2 3557.69 667.267 3562.49 665.4C3567.29 663.533 3571.55 660.6 3575.29 656.6L3588.69 672C3583.89 677.6 3577.82 681.933 3570.49 685C3563.29 687.933 3555.02 689.4 3545.69 689.4Z" fill="black"/>
<path d="M1266 718H1785.67V731H1266V718ZM1851.64 718H1904.45V731H1851.64V718ZM1933.73 718H3603.49V731H1933.73V718Z" fill="black"/>
<path d="M1296.8 685.4L1296.5 686.352L1296.51 686.356L1296.8 685.4ZM1273 673.2L1272.09 672.793L1271.78 673.481L1272.36 673.965L1273 673.2ZM1282 653L1282.62 652.214L1281.61 651.421L1281.09 652.593L1282 653ZM1302.8 664L1303.13 663.058L1303.13 663.058L1302.8 664ZM1346 666L1345.67 665.057L1345.67 665.057L1346 666ZM1356 659.6L1356.78 660.225L1356.79 660.215L1356.8 660.206L1356 659.6ZM1354.6 640L1353.94 640.755L1353.95 640.763L1353.96 640.771L1354.6 640ZM1342.6 633.8L1342.28 634.749L1342.3 634.754L1342.32 634.759L1342.6 633.8ZM1326.4 629.4L1326.18 630.375L1326.18 630.376L1326.4 629.4ZM1308.6 624.8L1308.3 625.753L1308.31 625.757L1308.32 625.761L1308.6 624.8ZM1292.4 617.8L1291.88 618.653L1291.89 618.662L1291.91 618.67L1292.4 617.8ZM1280.6 606.2L1279.76 606.738L1279.76 606.738L1280.6 606.2ZM1282 567L1281.16 566.457L1281.16 566.462L1282 567ZM1300.6 551.8L1301.01 552.711L1301.02 552.708L1300.6 551.8ZM1357.4 549.2L1357.15 550.168L1357.15 550.168L1357.4 549.2ZM1379 558.4L1379.93 558.776L1380.24 558.013L1379.55 557.562L1379 558.4ZM1370.8 578.6L1370.29 579.459L1371.29 580.055L1371.73 578.976L1370.8 578.6ZM1351.4 570.4L1351.13 571.363L1351.14 571.365L1351.15 571.368L1351.4 570.4ZM1314.6 570.2L1314.24 569.266L1314.23 569.27L1314.6 570.2ZM1304.8 577L1304 576.394L1304 576.406L1303.99 576.419L1304.8 577ZM1306.2 597L1305.53 597.74L1305.54 597.756L1305.56 597.771L1306.2 597ZM1318 603L1317.71 603.956L1317.72 603.959L1318 603ZM1334.4 607.4L1334.16 608.371L1334.17 608.374L1334.18 608.376L1334.4 607.4ZM1352.2 612L1351.92 612.959L1351.92 612.961L1352.2 612ZM1368.4 618.8L1367.9 619.664L1367.91 619.67L1368.4 618.8ZM1380.2 630.2L1379.35 630.721L1379.35 630.73L1379.36 630.738L1380.2 630.2ZM1378.6 669.2L1377.76 668.657L1377.76 668.662L1378.6 669.2ZM1360 684.4L1360.41 685.314L1360.42 685.308L1360 684.4ZM1328.2 689C1317.36 689 1306.99 687.48 1297.09 684.444L1296.51 686.356C1306.61 689.453 1317.17 691 1328.2 691V689ZM1297.1 684.448C1287.19 681.274 1279.38 677.259 1273.64 672.435L1272.36 673.965C1278.35 679.007 1286.41 683.126 1296.5 686.352L1297.1 684.448ZM1273.91 673.607L1282.91 653.407L1281.09 652.593L1272.09 672.793L1273.91 673.607ZM1281.38 653.786C1287.08 658.267 1294.12 661.981 1302.47 664.942L1303.13 663.058C1294.95 660.152 1288.12 656.533 1282.62 652.214L1281.38 653.786ZM1302.47 664.942C1310.84 667.913 1319.42 669.4 1328.2 669.4V667.4C1319.65 667.4 1311.3 665.953 1303.13 663.058L1302.47 664.942ZM1328.2 669.4C1335.59 669.4 1341.65 668.595 1346.33 666.943L1345.67 665.057C1341.28 666.605 1335.47 667.4 1328.2 667.4V669.4ZM1346.33 666.943C1350.97 665.305 1354.49 663.085 1356.78 660.225L1355.22 658.975C1353.24 661.448 1350.09 663.495 1345.67 665.057L1346.33 666.943ZM1356.8 660.206C1359.06 657.235 1360.2 653.889 1360.2 650.2H1358.2C1358.2 653.444 1357.21 656.365 1355.2 658.994L1356.8 660.206ZM1360.2 650.2C1360.2 645.66 1358.55 641.968 1355.24 639.229L1353.96 640.771C1356.78 643.099 1358.2 646.207 1358.2 650.2H1360.2ZM1355.26 639.245C1352.06 636.464 1347.92 634.338 1342.88 632.841L1342.32 634.759C1347.15 636.195 1351.01 638.203 1353.94 640.755L1355.26 639.245ZM1342.92 632.851C1338.08 631.238 1332.64 629.763 1326.62 628.424L1326.18 630.376C1332.16 631.704 1337.52 633.162 1342.28 634.749L1342.92 632.851ZM1326.62 628.425C1320.77 627.096 1314.86 625.567 1308.88 623.839L1308.32 625.761C1314.34 627.499 1320.29 629.037 1326.18 630.375L1326.62 628.425ZM1308.9 623.847C1303.1 622 1297.76 619.693 1292.89 616.93L1291.91 618.67C1296.91 621.507 1302.37 623.867 1308.3 625.753L1308.9 623.847ZM1292.92 616.947C1288.25 614.094 1284.43 610.335 1281.44 605.662L1279.76 606.738C1282.9 611.665 1286.95 615.64 1291.88 618.653L1292.92 616.947ZM1281.44 605.662C1278.51 601.065 1277 595.134 1277 587.8H1275C1275 595.399 1276.56 601.735 1279.76 606.738L1281.44 605.662ZM1277 587.8C1277 580.386 1278.95 573.64 1282.84 567.538L1281.16 566.462C1277.05 572.893 1275 580.014 1275 587.8H1277ZM1282.84 567.543C1286.85 561.333 1292.89 556.381 1301.01 552.711L1300.19 550.889C1291.78 554.686 1285.42 559.867 1281.16 566.457L1282.84 567.543ZM1301.02 552.708C1309.25 548.921 1319.69 547 1332.4 547V545C1319.51 545 1308.75 546.946 1300.18 550.892L1301.02 552.708ZM1332.4 547C1340.71 547 1348.96 548.056 1357.15 550.168L1357.65 548.232C1349.3 546.078 1340.89 545 1332.4 545V547ZM1357.15 550.168C1365.33 552.279 1372.43 555.306 1378.45 559.238L1379.55 557.562C1373.31 553.494 1366 550.388 1357.65 548.232L1357.15 550.168ZM1378.07 558.024L1369.87 578.224L1371.73 578.976L1379.93 558.776L1378.07 558.024ZM1371.31 577.741C1364.97 573.962 1358.41 571.191 1351.65 569.432L1351.15 571.368C1357.72 573.076 1364.1 575.771 1370.29 579.459L1371.31 577.741ZM1351.67 569.437C1344.93 567.549 1338.44 566.6 1332.2 566.6V568.6C1338.23 568.6 1344.54 569.518 1351.13 571.363L1351.67 569.437ZM1332.2 566.6C1324.93 566.6 1318.93 567.473 1314.24 569.266L1314.96 571.134C1319.34 569.46 1325.07 568.6 1332.2 568.6V566.6ZM1314.23 569.27C1309.72 571.048 1306.28 573.407 1304 576.394L1305.6 577.606C1307.59 574.993 1310.68 572.819 1314.97 571.13L1314.23 569.27ZM1303.99 576.419C1301.86 579.397 1300.8 582.802 1300.8 586.6H1302.8C1302.8 583.198 1303.74 580.203 1305.61 577.581L1303.99 576.419ZM1300.8 586.6C1300.8 591.124 1302.37 594.868 1305.53 597.74L1306.87 596.26C1304.17 593.799 1302.8 590.609 1302.8 586.6H1300.8ZM1305.56 597.771C1308.75 600.407 1312.81 602.461 1317.71 603.956L1318.29 602.044C1313.59 600.606 1309.78 598.66 1306.84 596.229L1305.56 597.771ZM1317.72 603.959C1322.67 605.431 1328.15 606.902 1334.16 608.371L1334.64 606.429C1328.65 604.965 1323.2 603.503 1318.28 602.041L1317.72 603.959ZM1334.18 608.376C1340.16 609.705 1346.07 611.232 1351.92 612.959L1352.48 611.041C1346.59 609.301 1340.64 607.762 1334.62 606.424L1334.18 608.376ZM1351.92 612.961C1357.85 614.674 1363.18 616.91 1367.9 619.664L1368.9 617.936C1364.02 615.09 1358.55 612.793 1352.48 611.039L1351.92 612.961ZM1367.91 619.67C1372.69 622.387 1376.5 626.067 1379.35 630.721L1381.05 629.679C1378.03 624.733 1373.97 620.813 1368.89 617.93L1367.91 619.67ZM1379.36 630.738C1382.3 635.337 1383.8 641.203 1383.8 648.4H1385.8C1385.8 640.93 1384.24 634.663 1381.04 629.662L1379.36 630.738ZM1383.8 648.4C1383.8 655.67 1381.79 662.416 1377.76 668.657L1379.44 669.743C1383.68 663.184 1385.8 656.063 1385.8 648.4H1383.8ZM1377.76 668.662C1373.88 674.732 1367.85 679.686 1359.58 683.492L1360.42 685.308C1368.95 681.381 1375.32 676.202 1379.44 669.738L1377.76 668.662ZM1359.59 683.486C1351.36 687.145 1340.91 689 1328.2 689V691C1341.09 691 1351.84 689.122 1360.41 685.314L1359.59 683.486ZM1429.38 684.4L1428.93 685.294L1428.94 685.298L1428.95 685.301L1429.38 684.4ZM1413.18 668.8L1412.3 669.28L1412.31 669.287L1413.18 668.8ZM1407.38 581.2V580.2H1406.38V581.2H1407.38ZM1432.38 581.2H1433.38V580.2H1432.38V581.2ZM1438.78 660.4L1438.03 661.064L1438.04 661.075L1438.05 661.086L1438.78 660.4ZM1472.58 663.8L1472.1 662.922L1472.09 662.928L1472.58 663.8ZM1482.78 653L1481.9 652.533L1481.89 652.543L1481.89 652.553L1482.78 653ZM1486.58 581.2V580.2H1485.58V581.2H1486.58ZM1511.58 581.2H1512.58V580.2H1511.58V581.2ZM1511.58 688V689H1512.58V688H1511.58ZM1487.78 688H1486.78V689H1487.78V688ZM1487.78 659.2L1488.68 658.769L1486.78 659.2H1487.78ZM1491.98 668L1492.87 668.461L1493.1 668.019L1492.88 667.569L1491.98 668ZM1476.18 684L1476.64 684.887L1476.65 684.884L1476.66 684.88L1476.18 684ZM1453.38 688.4C1444.44 688.4 1436.59 686.756 1429.81 683.499L1428.95 685.301C1436.04 688.71 1444.19 690.4 1453.38 690.4V688.4ZM1429.83 683.506C1423.08 680.131 1417.83 675.075 1414.05 668.313L1412.31 669.287C1416.27 676.391 1421.82 681.736 1428.93 685.294L1429.83 683.506ZM1414.06 668.32C1410.29 661.441 1408.38 652.751 1408.38 642.2H1406.38C1406.38 652.982 1408.33 662.026 1412.3 669.28L1414.06 668.32ZM1408.38 642.2V581.2H1406.38V642.2H1408.38ZM1407.38 582.2H1432.38V580.2H1407.38V582.2ZM1431.38 581.2V638.8H1433.38V581.2H1431.38ZM1431.38 638.8C1431.38 648.527 1433.54 656.009 1438.03 661.064L1439.53 659.736C1435.49 655.191 1433.38 648.273 1433.38 638.8H1431.38ZM1438.05 661.086C1442.69 666 1449.18 668.4 1457.38 668.4V666.4C1449.58 666.4 1443.68 664.133 1439.51 659.714L1438.05 661.086ZM1457.38 668.4C1463.39 668.4 1468.63 667.171 1473.07 664.672L1472.09 662.928C1468 665.229 1463.11 666.4 1457.38 666.4V668.4ZM1473.06 664.678C1477.65 662.173 1481.19 658.416 1483.68 653.447L1481.89 652.553C1479.57 657.184 1476.31 660.627 1472.1 662.922L1473.06 664.678ZM1483.67 653.467C1486.29 648.486 1487.58 642.382 1487.58 635.2H1485.58C1485.58 642.152 1484.33 647.914 1481.9 652.533L1483.67 653.467ZM1487.58 635.2V581.2H1485.58V635.2H1487.58ZM1486.58 582.2H1511.58V580.2H1486.58V582.2ZM1510.58 581.2V688H1512.58V581.2H1510.58ZM1511.58 687H1487.78V689H1511.58V687ZM1488.78 688V659.2H1486.78V688H1488.78ZM1486.88 659.631L1491.08 668.431L1492.88 667.569L1488.68 658.769L1486.88 659.631ZM1491.09 667.539C1487.59 674.293 1482.47 679.481 1475.71 683.12L1476.66 684.88C1483.76 681.053 1489.18 675.574 1492.87 668.461L1491.09 667.539ZM1475.72 683.113C1468.94 686.634 1461.5 688.4 1453.38 688.4V690.4C1461.8 690.4 1469.56 688.566 1476.64 684.887L1475.72 683.113ZM1544.31 688H1543.31V689H1544.31V688ZM1544.31 581.2V580.2H1543.31V581.2H1544.31ZM1568.11 581.2H1569.11V580.2H1568.11V581.2ZM1568.11 610.6L1567.16 610.91L1569.11 610.6H1568.11ZM1565.31 602L1564.4 601.594L1564.24 601.945L1564.36 602.31L1565.31 602ZM1580.31 585.6L1579.84 584.719L1579.83 584.723L1580.31 585.6ZM1606.11 580H1607.11V579H1606.11V580ZM1606.11 603.8L1605.87 604.77L1607.11 605.081V603.8H1606.11ZM1603.11 603.4L1602.97 604.39L1603.04 604.4H1603.11V603.4ZM1577.71 611.6L1578.41 612.316L1578.42 612.307L1577.71 611.6ZM1569.31 688V689H1570.31V688H1569.31ZM1545.31 688V581.2H1543.31V688H1545.31ZM1544.31 582.2H1568.11V580.2H1544.31V582.2ZM1567.11 581.2V610.6H1569.11V581.2H1567.11ZM1569.06 610.29L1566.26 601.69L1564.36 602.31L1567.16 610.91L1569.06 610.29ZM1566.23 602.406C1569.34 595.403 1574.19 590.103 1580.8 586.477L1579.83 584.723C1572.84 588.564 1567.69 594.197 1564.4 601.594L1566.23 602.406ZM1580.79 586.48C1587.54 582.846 1595.96 581 1606.11 581V579C1595.73 579 1586.96 580.888 1579.84 584.72L1580.79 586.48ZM1605.11 580V603.8H1607.11V580H1605.11ZM1606.36 602.83C1605.22 602.547 1604.14 602.4 1603.11 602.4V604.4C1603.95 604.4 1604.87 604.52 1605.87 604.77L1606.36 602.83ZM1603.26 602.41C1602.28 602.27 1601.3 602.2 1600.31 602.2V604.2C1601.2 604.2 1602.09 604.263 1602.97 604.39L1603.26 602.41ZM1600.31 602.2C1590.64 602.2 1582.83 605.069 1577.01 610.893L1578.42 612.307C1583.8 606.931 1591.06 604.2 1600.31 604.2V602.2ZM1577.02 610.884C1571.16 616.604 1568.31 625.106 1568.31 636.2H1570.31C1570.31 625.427 1573.07 617.53 1578.41 612.316L1577.02 610.884ZM1568.31 636.2V688H1570.31V636.2H1568.31ZM1569.31 687H1544.31V689H1569.31V687ZM1645.35 682.4L1644.87 683.278L1644.87 683.282L1644.88 683.286L1645.35 682.4ZM1624.75 662.8L1623.88 663.302L1623.89 663.312L1624.75 662.8ZM1624.55 606.4L1623.68 605.898L1623.68 605.902L1624.55 606.4ZM1644.15 587L1643.66 586.126L1643.65 586.129L1644.15 587ZM1700.55 586.8L1701.03 585.927L1701.03 585.927L1700.55 586.8ZM1726.55 638.8L1725.55 638.7L1725.55 638.75V638.8H1726.55ZM1726.35 642.6V643.6H1727.24L1727.34 642.71L1726.35 642.6ZM1637.35 642.6H1636.35V643.6H1637.35V642.6ZM1637.35 626V625H1636.35V626H1637.35ZM1713.15 626L1713.61 626.883L1713.15 625V626ZM1703.35 631.2L1702.35 631.178L1702.31 632.882L1703.81 632.083L1703.35 631.2ZM1699.55 615L1698.68 615.496L1698.68 615.496L1699.55 615ZM1688.55 604L1688.04 604.862L1688.05 604.868L1688.55 604ZM1656.55 604L1656.05 603.132L1656.04 603.138L1656.55 604ZM1645.75 615.2L1644.87 614.714L1644.87 614.723L1645.75 615.2ZM1658.75 664.2L1658.3 665.094L1658.3 665.094L1658.75 664.2ZM1693.35 665.4L1693.71 666.332L1693.71 666.332L1693.35 665.4ZM1706.15 656.6L1706.9 655.944L1706.17 655.107L1705.41 655.918L1706.15 656.6ZM1719.55 672L1720.3 672.651L1720.87 671.995L1720.3 671.344L1719.55 672ZM1701.35 685L1701.72 685.926L1701.73 685.923L1701.35 685ZM1676.55 688.4C1664.81 688.4 1654.58 686.093 1645.81 681.514L1644.88 683.286C1653.98 688.04 1664.55 690.4 1676.55 690.4V688.4ZM1645.82 681.522C1637.17 676.804 1630.44 670.394 1625.6 662.288L1623.89 663.312C1628.92 671.739 1635.92 678.396 1644.87 683.278L1645.82 681.522ZM1625.61 662.298C1620.91 654.199 1618.55 644.975 1618.55 634.6H1616.55C1616.55 645.291 1618.98 654.868 1623.88 663.302L1625.61 662.298ZM1618.55 634.6C1618.55 624.084 1620.84 614.86 1625.41 606.898L1623.68 605.902C1618.91 614.207 1616.55 623.783 1616.55 634.6H1618.55ZM1625.41 606.902C1630.12 598.788 1636.53 592.449 1644.64 587.871L1643.65 586.129C1635.23 590.884 1628.57 597.478 1623.68 605.898L1625.41 606.902ZM1644.63 587.874C1652.87 583.299 1662.23 581 1672.75 581V579C1661.93 579 1652.22 581.368 1643.66 586.126L1644.63 587.874ZM1672.75 581C1683 581 1692.09 583.232 1700.06 587.673L1701.03 585.927C1692.73 581.301 1683.3 579 1672.75 579V581ZM1700.06 587.673C1708.03 592.115 1714.3 598.382 1718.87 606.492L1720.62 605.508C1715.86 597.085 1709.33 590.551 1701.03 585.927L1700.06 587.673ZM1718.87 606.492C1723.44 614.583 1725.75 624.141 1725.75 635.2H1727.75C1727.75 623.859 1725.38 613.95 1720.62 605.508L1718.87 606.492ZM1725.75 635.2C1725.75 636.226 1725.68 637.392 1725.55 638.7L1727.54 638.9C1727.68 637.541 1727.75 636.307 1727.75 635.2H1725.75ZM1725.55 638.8C1725.55 640.1 1725.48 641.33 1725.35 642.49L1727.34 642.71C1727.48 641.47 1727.55 640.166 1727.55 638.8H1725.55ZM1726.35 641.6H1637.35V643.6H1726.35V641.6ZM1638.35 642.6V626H1636.35V642.6H1638.35ZM1637.35 627H1713.15V625H1637.35V627ZM1712.68 625.117L1702.88 630.317L1703.81 632.083L1713.61 626.883L1712.68 625.117ZM1704.35 631.222C1704.48 624.933 1703.18 619.349 1700.41 614.504L1698.68 615.496C1701.24 619.984 1702.48 625.2 1702.35 631.178L1704.35 631.222ZM1700.41 614.504C1697.66 609.682 1693.86 605.887 1689.04 603.132L1688.05 604.868C1692.56 607.446 1696.1 610.985 1698.68 615.496L1700.41 614.504ZM1689.05 603.138C1684.34 600.369 1678.9 599 1672.75 599V601C1678.59 601 1683.68 602.298 1688.04 604.862L1689.05 603.138ZM1672.75 599C1666.46 599 1660.89 600.367 1656.05 603.132L1657.04 604.868C1661.54 602.299 1666.76 601 1672.75 601V599ZM1656.04 603.138C1651.34 605.899 1647.62 609.766 1644.87 614.714L1646.62 615.686C1649.2 611.034 1652.68 607.434 1657.05 604.862L1656.04 603.138ZM1644.87 614.723C1642.24 619.563 1640.95 625.267 1640.95 631.8H1642.95C1642.95 625.533 1644.19 620.17 1646.62 615.677L1644.87 614.723ZM1640.95 631.8V635.8H1642.95V631.8H1640.95ZM1640.95 635.8C1640.95 642.359 1642.45 648.206 1645.49 653.311L1647.2 652.289C1644.37 647.527 1642.95 642.041 1642.95 635.8H1640.95ZM1645.49 653.311C1648.52 658.416 1652.8 662.346 1658.3 665.094L1659.19 663.306C1654.02 660.721 1650.04 657.051 1647.2 652.289L1645.49 653.311ZM1658.3 665.094C1663.79 667.841 1670.08 669.2 1677.15 669.2V667.2C1670.34 667.2 1664.37 665.892 1659.19 663.306L1658.3 665.094ZM1677.15 669.2C1683.25 669.2 1688.77 668.25 1693.71 666.332L1692.98 664.468C1688.32 666.283 1683.04 667.2 1677.15 667.2V669.2ZM1693.71 666.332C1698.66 664.407 1703.05 661.385 1706.88 657.282L1705.41 655.918C1701.78 659.815 1697.63 662.659 1692.98 664.468L1693.71 666.332ZM1705.39 657.256L1718.79 672.656L1720.3 671.344L1706.9 655.944L1705.39 657.256ZM1718.79 671.349C1714.1 676.822 1708.16 681.066 1700.96 684.077L1701.73 685.923C1709.2 682.8 1715.4 678.378 1720.3 672.651L1718.79 671.349ZM1700.97 684.074C1693.91 686.95 1685.77 688.4 1676.55 688.4V690.4C1685.98 690.4 1694.38 688.917 1701.72 685.926L1700.97 684.074ZM1750.76 688H1749.76V689H1750.76V688ZM1750.76 539.6V538.6H1749.76V539.6H1750.76ZM1775.76 539.6H1776.76V538.6H1775.76V539.6ZM1775.76 688V689H1776.76V688H1775.76ZM1751.76 688V539.6H1749.76V688H1751.76ZM1750.76 540.6H1775.76V538.6H1750.76V540.6ZM1774.76 539.6V688H1776.76V539.6H1774.76ZM1775.76 687H1750.76V689H1775.76V687ZM1801.77 725.6L1801.46 726.549L1801.46 726.549L1801.77 725.6ZM1788.77 718.4L1787.89 717.922L1787.51 718.622L1788.11 719.149L1788.77 718.4ZM1798.77 700L1799.44 699.255L1798.5 698.412L1797.89 699.522L1798.77 700ZM1807.37 705.4L1807.76 704.477L1807.76 704.477L1807.37 705.4ZM1828.17 704L1828.8 704.777L1828.8 704.777L1828.17 704ZM1835.97 692.6L1836.88 693.01L1836.89 693.005L1835.97 692.6ZM1842.17 678.6L1841.34 678.045L1841.29 678.117L1841.26 678.195L1842.17 678.6ZM1844.17 675.6L1845 676.155L1845.06 676.078L1845.09 675.993L1844.17 675.6ZM1884.57 581.2V580.2H1883.91L1883.65 580.807L1884.57 581.2ZM1908.57 581.2L1909.49 581.598L1910.09 580.2H1908.57V581.2ZM1858.57 696.6L1857.65 696.202L1857.65 696.215L1858.57 696.6ZM1847.37 715.6L1846.62 714.937L1846.62 714.943L1846.61 714.949L1847.37 715.6ZM1833.77 725.4L1833.43 724.462L1833.42 724.465L1833.77 725.4ZM1839.37 691.8L1838.46 692.2L1839.07 693.604L1840.11 692.479L1839.37 691.8ZM1791.17 581.2V580.2H1789.65L1790.26 581.6L1791.17 581.2ZM1817.17 581.2L1818.09 580.809L1817.83 580.2H1817.17V581.2ZM1856.37 673.4L1857.11 674.079L1857.55 673.604L1857.29 673.009L1856.37 673.4ZM1817.37 727.2C1812.29 727.2 1807.19 726.353 1802.09 724.651L1801.46 726.549C1806.75 728.314 1812.06 729.2 1817.37 729.2V727.2ZM1802.09 724.651C1796.99 722.953 1792.78 720.614 1789.43 717.651L1788.11 719.149C1791.69 722.32 1796.15 724.78 1801.46 726.549L1802.09 724.651ZM1789.65 718.878L1799.65 700.478L1797.89 699.522L1787.89 717.922L1789.65 718.878ZM1798.11 700.745C1800.72 703.088 1803.69 704.948 1806.99 706.323L1807.76 704.477C1804.66 703.186 1801.89 701.445 1799.44 699.255L1798.11 700.745ZM1806.99 706.323C1810.3 707.705 1813.7 708.4 1817.17 708.4V706.4C1813.98 706.4 1810.84 705.762 1807.76 704.477L1806.99 706.323ZM1817.17 708.4C1821.87 708.4 1825.78 707.222 1828.8 704.777L1827.54 703.223C1824.96 705.311 1821.54 706.4 1817.17 706.4V708.4ZM1828.8 704.777C1831.78 702.369 1834.46 698.407 1836.88 693.01L1835.06 692.19C1832.69 697.459 1830.17 701.097 1827.54 703.223L1828.8 704.777ZM1836.89 693.005L1843.09 679.005L1841.26 678.195L1835.06 692.195L1836.89 693.005ZM1843 679.155L1845 676.155L1843.34 675.045L1841.34 678.045L1843 679.155ZM1845.09 675.993L1885.49 581.593L1883.65 580.807L1843.25 675.207L1845.09 675.993ZM1884.57 582.2H1908.57V580.2H1884.57V582.2ZM1907.65 580.802L1857.65 696.202L1859.49 696.998L1909.49 581.598L1907.65 580.802ZM1857.65 696.215C1854.34 704.15 1850.66 710.378 1846.62 714.937L1848.12 716.263C1852.35 711.489 1856.13 705.05 1859.49 696.985L1857.65 696.215ZM1846.61 714.949C1842.71 719.504 1838.31 722.662 1833.43 724.462L1834.12 726.338C1839.37 724.405 1844.04 721.029 1848.13 716.251L1846.61 714.949ZM1833.42 724.465C1828.61 726.283 1823.27 727.2 1817.37 727.2V729.2C1823.48 729.2 1829.06 728.25 1834.13 726.335L1833.42 724.465ZM1840.29 691.4L1792.09 580.8L1790.26 581.6L1838.46 692.2L1840.29 691.4ZM1791.17 582.2H1817.17V580.2H1791.17V582.2ZM1816.25 581.591L1855.45 673.791L1857.29 673.009L1818.09 580.809L1816.25 581.591ZM1855.64 672.721L1838.64 691.121L1840.11 692.479L1857.11 674.079L1855.64 672.721ZM1910.96 718.2L1909.99 717.946L1909.66 719.2H1910.96V718.2ZM1922.56 674L1923.53 673.776L1921.59 673.746L1922.56 674ZM1925.96 688.8V689.8H1927.21L1926.93 688.576L1925.96 688.8ZM1914.16 684.6L1913.47 685.323L1913.48 685.338L1913.5 685.353L1914.16 684.6ZM1914.16 660.8L1914.85 661.523L1914.85 661.522L1914.16 660.8ZM1941.56 677.2L1942.54 677.379L1942.54 677.372L1942.54 677.364L1941.56 677.2ZM1940.16 682.4L1939.21 682.084L1939.2 682.113L1939.19 682.142L1940.16 682.4ZM1937.36 690L1936.44 689.601L1936.43 689.63L1936.42 689.66L1937.36 690ZM1927.16 718.2V719.2H1927.86L1928.1 718.54L1927.16 718.2ZM1911.92 718.454L1923.52 674.254L1921.59 673.746L1909.99 717.946L1911.92 718.454ZM1921.58 674.224L1924.98 689.024L1926.93 688.576L1923.53 673.776L1921.58 674.224ZM1925.96 687.8C1921.51 687.8 1917.81 686.472 1914.81 683.847L1913.5 685.353C1916.9 688.328 1921.07 689.8 1925.96 689.8V687.8ZM1914.85 683.877C1912.01 681.164 1910.56 677.509 1910.56 672.8H1908.56C1908.56 677.958 1910.17 682.17 1913.47 685.323L1914.85 683.877ZM1910.56 672.8C1910.56 667.949 1912.02 664.231 1914.85 661.523L1913.47 660.077C1910.16 663.235 1908.56 667.518 1908.56 672.8H1910.56ZM1914.85 661.522C1917.86 658.638 1921.47 657.2 1925.76 657.2V655.2C1920.97 655.2 1916.86 656.828 1913.46 660.078L1914.85 661.522ZM1925.76 657.2C1930.18 657.2 1933.79 658.643 1936.65 661.507L1938.06 660.093C1934.79 656.823 1930.67 655.2 1925.76 655.2V657.2ZM1936.65 661.507C1939.5 664.36 1940.96 668.092 1940.96 672.8H1942.96C1942.96 667.641 1941.34 663.373 1938.06 660.093L1936.65 661.507ZM1940.96 672.8C1940.96 674.068 1940.83 675.479 1940.57 677.036L1942.54 677.364C1942.82 675.721 1942.96 674.199 1942.96 672.8H1940.96ZM1940.57 677.021C1940.32 678.427 1939.86 680.112 1939.21 682.084L1941.1 682.716C1941.78 680.688 1942.26 678.907 1942.54 677.379L1940.57 677.021ZM1939.19 682.142C1938.67 684.074 1937.76 686.556 1936.44 689.601L1938.27 690.399C1939.62 687.31 1940.57 684.726 1941.12 682.658L1939.19 682.142ZM1936.42 689.66L1926.22 717.86L1928.1 718.54L1938.3 690.34L1936.42 689.66ZM1927.16 717.2H1910.96V719.2H1927.16V717.2ZM2047.26 655L2046.26 655.045L2046.36 657.346L2047.97 655.699L2047.26 655ZM2045.86 624.2L2045.14 623.506L2044.84 623.816L2044.86 624.245L2045.86 624.2ZM2119.26 548V547H2118.83L2118.54 547.306L2119.26 548ZM2148.46 548L2149.19 548.685L2150.77 547H2148.46V548ZM2087.46 612.8L2086.73 612.115L2086.72 612.12L2086.72 612.126L2087.46 612.8ZM2073.06 628.6L2073.77 629.299L2073.79 629.286L2073.8 629.274L2073.06 628.6ZM2024.06 688H2023.06V689H2024.06V688ZM2024.06 548V547H2023.06V548H2024.06ZM2050.06 548H2051.06V547H2050.06V548ZM2050.06 688V689H2051.06V688H2050.06ZM2121.66 688L2120.89 688.643L2121.19 689H2121.66V688ZM2068.06 624.2L2067.32 623.529L2066.73 624.175L2067.29 624.843L2068.06 624.2ZM2085.26 605.2L2086.04 604.572L2085.3 603.662L2084.52 604.529L2085.26 605.2ZM2152.06 688V689H2154.15L2152.84 687.372L2152.06 688ZM2048.26 654.955L2046.86 624.155L2044.86 624.245L2046.26 655.045L2048.26 654.955ZM2046.58 624.894L2119.98 548.694L2118.54 547.306L2045.14 623.506L2046.58 624.894ZM2119.26 549H2148.46V547H2119.26V549ZM2147.73 547.315L2086.73 612.115L2088.19 613.485L2149.19 548.685L2147.73 547.315ZM2086.72 612.126L2072.32 627.926L2073.8 629.274L2088.2 613.474L2086.72 612.126ZM2072.34 627.901L2046.54 654.301L2047.97 655.699L2073.77 629.299L2072.34 627.901ZM2025.06 688V548H2023.06V688H2025.06ZM2024.06 549H2050.06V547H2024.06V549ZM2049.06 548V688H2051.06V548H2049.06ZM2050.06 687H2024.06V689H2050.06V687ZM2122.42 687.357L2068.82 623.557L2067.29 624.843L2120.89 688.643L2122.42 687.357ZM2068.8 624.871L2086 605.871L2084.52 604.529L2067.32 623.529L2068.8 624.871ZM2084.48 605.828L2151.28 688.628L2152.84 687.372L2086.04 604.572L2084.48 605.828ZM2152.06 687H2121.66V689H2152.06V687ZM2248.81 585L2248.36 585.894L2248.37 585.898L2248.81 585ZM2264.81 600.4L2263.93 600.887L2263.94 600.894L2264.81 600.4ZM2270.61 688V689H2271.61V688H2270.61ZM2245.61 688H2244.61V689H2245.61V688ZM2238.81 608.8L2238.08 609.486L2238.09 609.491L2238.09 609.497L2238.81 608.8ZM2204.61 605.4L2205.08 606.284L2205.08 606.284L2204.61 605.4ZM2194.01 616.2L2193.12 615.733L2193.12 615.743L2194.01 616.2ZM2190.41 688V689H2191.41V688H2190.41ZM2165.41 688H2164.41V689H2165.41V688ZM2165.41 581.2V580.2H2164.41V581.2H2165.41ZM2189.21 581.2H2190.21V580.2H2189.21V581.2ZM2189.21 610L2188.31 610.431L2190.21 610H2189.21ZM2185.01 601.2L2184.13 600.719L2183.88 601.168L2184.11 601.631L2185.01 601.2ZM2201.21 585.6L2201.66 586.491L2201.67 586.488L2201.21 585.6ZM2226.01 581C2234.41 581 2241.85 582.64 2248.36 585.894L2249.26 584.106C2242.43 580.693 2234.67 579 2226.01 579V581ZM2248.37 585.898C2254.98 589.137 2260.16 594.123 2263.93 600.887L2265.68 599.913C2261.72 592.811 2256.24 587.53 2249.25 584.102L2248.37 585.898ZM2263.94 600.894C2267.69 607.497 2269.61 616.11 2269.61 626.8H2271.61C2271.61 615.89 2269.66 606.903 2265.68 599.906L2263.94 600.894ZM2269.61 626.8V688H2271.61V626.8H2269.61ZM2270.61 687H2245.61V689H2270.61V687ZM2246.61 688V630H2244.61V688H2246.61ZM2246.61 630C2246.61 620.391 2244.31 613.027 2239.53 608.103L2238.09 609.497C2242.37 613.907 2244.61 620.676 2244.61 630H2246.61ZM2239.54 608.114C2234.9 603.2 2228.41 600.8 2220.21 600.8V602.8C2228.01 602.8 2233.91 605.067 2238.08 609.486L2239.54 608.114ZM2220.21 600.8C2214.2 600.8 2208.84 602.03 2204.14 604.516L2205.08 606.284C2209.45 603.97 2214.48 602.8 2220.21 602.8V600.8ZM2204.14 604.516C2199.42 607.016 2195.74 610.766 2193.12 615.733L2194.89 616.667C2197.34 612.034 2200.73 608.584 2205.08 606.284L2204.14 604.516ZM2193.12 615.743C2190.62 620.593 2189.41 626.697 2189.41 634H2191.41C2191.41 626.903 2192.59 621.14 2194.9 616.657L2193.12 615.743ZM2189.41 634V688H2191.41V634H2189.41ZM2190.41 687H2165.41V689H2190.41V687ZM2166.41 688V581.2H2164.41V688H2166.41ZM2165.41 582.2H2189.21V580.2H2165.41V582.2ZM2188.21 581.2V610H2190.21V581.2H2188.21ZM2190.11 609.569L2185.91 600.769L2184.11 601.631L2188.31 610.431L2190.11 609.569ZM2185.88 601.681C2189.52 595.061 2194.77 590.002 2201.66 586.491L2200.75 584.709C2193.51 588.398 2187.96 593.739 2184.13 600.719L2185.88 601.681ZM2201.67 586.488C2208.71 582.839 2216.81 581 2226.01 581V579C2216.54 579 2208.11 580.895 2200.75 584.712L2201.67 586.488ZM2321.32 682.4L2320.83 683.272L2320.84 683.277L2321.32 682.4ZM2301.12 662.8L2300.26 663.312L2300.26 663.312L2301.12 662.8ZM2301.12 606.4L2301.97 606.919L2301.98 606.912L2301.12 606.4ZM2321.32 587L2321.8 587.877L2321.8 587.877L2321.32 587ZM2379.92 587L2379.44 587.877L2379.44 587.88L2379.92 587ZM2400.12 606.2L2399.26 606.708L2399.26 606.719L2400.12 606.2ZM2400.12 662.8L2399.26 662.288L2399.25 662.298L2400.12 662.8ZM2379.92 682.4L2380.4 683.277L2380.4 683.275L2379.92 682.4ZM2366.92 664L2366.43 663.126L2366.43 663.126L2366.92 664ZM2378.12 652.4L2377.24 651.916L2377.24 651.925L2377.23 651.934L2378.12 652.4ZM2378.12 616.8L2377.23 617.266L2377.24 617.28L2377.25 617.294L2378.12 616.8ZM2366.92 605.2L2367.4 604.326L2367.4 604.326L2366.92 605.2ZM2334.32 605.2L2333.83 604.326L2333.82 604.332L2334.32 605.2ZM2323.12 616.8L2323.99 617.294L2323.99 617.284L2323.12 616.8ZM2323.12 652.4L2322.24 652.884L2322.24 652.884L2323.12 652.4ZM2334.32 664L2333.82 664.868L2333.83 664.874L2334.32 664ZM2350.52 688.4C2339.73 688.4 2330.17 686.099 2321.8 681.523L2320.84 683.277C2329.54 688.034 2339.44 690.4 2350.52 690.4V688.4ZM2321.81 681.528C2313.42 676.812 2306.82 670.402 2301.98 662.288L2300.26 663.312C2305.28 671.732 2312.14 678.388 2320.83 683.272L2321.81 681.528ZM2301.98 662.288C2297.14 654.19 2294.72 644.97 2294.72 634.6H2292.72C2292.72 645.296 2295.22 654.876 2300.26 663.312L2301.98 662.288ZM2294.72 634.6C2294.72 624.093 2297.14 614.877 2301.97 606.919L2300.26 605.881C2295.22 614.189 2292.72 623.773 2292.72 634.6H2294.72ZM2301.98 606.912C2306.82 598.801 2313.42 592.459 2321.8 587.877L2320.84 586.123C2312.15 590.874 2305.28 597.466 2300.26 605.888L2301.98 606.912ZM2321.8 587.877C2330.17 583.301 2339.73 581 2350.52 581V579C2339.44 579 2329.54 581.366 2320.84 586.123L2321.8 587.877ZM2350.52 581C2361.44 581 2371.07 583.302 2379.44 587.877L2380.4 586.123C2371.7 581.365 2361.73 579 2350.52 579V581ZM2379.44 587.88C2387.96 592.465 2394.55 598.739 2399.26 606.708L2400.98 605.692C2396.08 597.395 2389.21 590.869 2380.39 586.12L2379.44 587.88ZM2399.26 606.719C2404.09 614.675 2406.52 623.958 2406.52 634.6H2408.52C2408.52 623.642 2406.01 613.991 2400.97 605.681L2399.26 606.719ZM2406.52 634.6C2406.52 644.97 2404.09 654.19 2399.26 662.288L2400.98 663.312C2406.01 654.876 2408.52 645.296 2408.52 634.6H2406.52ZM2399.25 662.298C2394.55 670.402 2387.95 676.809 2379.43 681.525L2380.4 683.275C2389.22 678.391 2396.09 671.731 2400.98 663.302L2399.25 662.298ZM2379.44 681.523C2371.07 686.098 2361.44 688.4 2350.52 688.4V690.4C2361.73 690.4 2371.7 688.035 2380.4 683.277L2379.44 681.523ZM2350.52 669C2356.8 669 2362.44 667.633 2367.4 664.874L2366.43 663.126C2361.8 665.701 2356.5 667 2350.52 667V669ZM2367.4 664.874C2372.38 662.109 2376.25 658.097 2379 652.866L2377.23 651.934C2374.65 656.837 2371.05 660.558 2366.43 663.126L2367.4 664.874ZM2378.99 652.884C2381.89 647.645 2383.32 641.54 2383.32 634.6H2381.32C2381.32 641.26 2379.95 647.022 2377.24 651.916L2378.99 652.884ZM2383.32 634.6C2383.32 627.532 2381.89 621.42 2378.99 616.306L2377.25 617.294C2379.95 622.046 2381.32 627.801 2381.32 634.6H2383.32ZM2379 616.334C2376.25 611.103 2372.38 607.091 2367.4 604.326L2366.43 606.074C2371.05 608.642 2374.65 612.363 2377.23 617.266L2379 616.334ZM2367.4 604.326C2362.44 601.569 2356.87 600.2 2350.72 600.2V602.2C2356.56 602.2 2361.79 603.498 2366.43 606.074L2367.4 604.326ZM2350.72 600.2C2344.43 600.2 2338.8 601.567 2333.83 604.326L2334.8 606.074C2339.44 603.499 2344.73 602.2 2350.72 602.2V600.2ZM2333.82 604.332C2328.98 607.096 2325.12 611.102 2322.24 616.316L2323.99 617.284C2326.71 612.365 2330.32 608.637 2334.81 606.068L2333.82 604.332ZM2322.25 616.306C2319.35 621.42 2317.92 627.532 2317.92 634.6H2319.92C2319.92 627.801 2321.29 622.046 2323.99 617.294L2322.25 616.306ZM2317.92 634.6C2317.92 641.54 2319.35 647.645 2322.24 652.884L2323.99 651.916C2321.29 647.022 2319.92 641.26 2319.92 634.6H2317.92ZM2322.24 652.884C2325.12 658.098 2328.98 662.104 2333.82 664.868L2334.81 663.132C2330.32 660.563 2326.71 656.835 2323.99 651.916L2322.24 652.884ZM2333.83 664.874C2338.79 667.631 2344.36 669 2350.52 669V667C2344.67 667 2339.44 665.702 2334.8 663.126L2333.83 664.874ZM2452.09 688L2451.15 688.345L2451.4 689H2452.09V688ZM2412.89 581.2V580.2H2411.46L2411.95 581.545L2412.89 581.2ZM2436.49 581.2L2437.44 580.864L2437.2 580.2H2436.49V581.2ZM2470.09 675.4V676.4H2471.51L2471.04 675.064L2470.09 675.4ZM2458.89 675.4L2457.96 675.05L2457.45 676.4H2458.89V675.4ZM2494.09 581.2V580.2H2493.4L2493.16 580.85L2494.09 581.2ZM2515.09 581.2L2516.03 580.859L2515.79 580.2H2515.09V581.2ZM2549.29 675.4V676.4H2550.72L2550.23 675.059L2549.29 675.4ZM2538.29 675.4L2537.36 675.055L2536.86 676.4H2538.29V675.4ZM2572.89 581.2V580.2H2572.2L2571.96 580.855L2572.89 581.2ZM2595.09 581.2L2596.03 581.546L2596.53 580.2H2595.09V581.2ZM2555.69 688V689H2556.39L2556.63 688.346L2555.69 688ZM2531.69 688L2530.76 688.35L2531 689H2531.69V688ZM2500.49 604.6V603.6H2499.05L2499.56 604.95L2500.49 604.6ZM2507.89 604.6L2508.83 604.956L2509.35 603.6H2507.89V604.6ZM2476.09 688V689H2476.78L2477.03 688.356L2476.09 688ZM2453.03 687.655L2413.83 580.855L2411.95 581.545L2451.15 688.345L2453.03 687.655ZM2412.89 582.2H2436.49V580.2H2412.89V582.2ZM2435.55 581.536L2469.15 675.736L2471.04 675.064L2437.44 580.864L2435.55 581.536ZM2470.09 674.4H2458.89V676.4H2470.09V674.4ZM2459.83 675.75L2495.03 581.55L2493.16 580.85L2457.96 675.05L2459.83 675.75ZM2494.09 582.2H2515.09V580.2H2494.09V582.2ZM2514.15 581.541L2548.35 675.741L2550.23 675.059L2516.03 580.859L2514.15 581.541ZM2549.29 674.4H2538.29V676.4H2549.29V674.4ZM2539.23 675.745L2573.83 581.545L2571.96 580.855L2537.36 675.055L2539.23 675.745ZM2572.89 582.2H2595.09V580.2H2572.89V582.2ZM2594.16 580.854L2554.76 687.654L2556.63 688.346L2596.03 581.546L2594.16 580.854ZM2555.69 687H2531.69V689H2555.69V687ZM2532.63 687.65L2501.43 604.25L2499.56 604.95L2530.76 688.35L2532.63 687.65ZM2500.49 605.6H2507.89V603.6H2500.49V605.6ZM2506.96 604.244L2475.16 687.644L2477.03 688.356L2508.83 604.956L2506.96 604.244ZM2476.09 687H2452.09V689H2476.09V687ZM2669.96 688H2668.96V689H2669.96V688ZM2669.96 548V547H2668.96V548H2669.96ZM2691.36 548L2692.21 547.486L2691.92 547H2691.36V548ZM2752.56 650.2V651.2H2754.32L2753.41 649.686L2752.56 650.2ZM2741.36 650.2L2740.49 649.692L2739.61 651.2H2741.36V650.2ZM2801.56 548V547H2800.98L2800.69 547.492L2801.56 548ZM2822.96 548L2823.96 547.999L2823.95 547H2822.96V548ZM2823.16 688V689H2824.16L2824.16 687.999L2823.16 688ZM2798.56 688L2797.56 688.002L2797.56 689H2798.56V688ZM2798.36 586.6V585.6H2797.35L2797.36 586.602L2798.36 586.6ZM2803.56 586.6L2804.41 587.114L2805.32 585.6H2803.56V586.6ZM2752.36 672V673H2752.92L2753.21 672.514L2752.36 672ZM2740.76 672L2739.9 672.52L2740.19 673H2740.76V672ZM2688.76 586.6V585.6H2686.98L2687.9 587.12L2688.76 586.6ZM2694.76 586.6H2695.76V585.6H2694.76V586.6ZM2694.76 688V689H2695.76V688H2694.76ZM2670.96 688V548H2668.96V688H2670.96ZM2669.96 549H2691.36V547H2669.96V549ZM2690.5 548.514L2751.7 650.714L2753.41 649.686L2692.21 547.486L2690.5 548.514ZM2752.56 649.2H2741.36V651.2H2752.56V649.2ZM2742.22 650.708L2802.42 548.508L2800.69 547.492L2740.49 649.692L2742.22 650.708ZM2801.56 549H2822.96V547H2801.56V549ZM2821.96 548.001L2822.16 688.001L2824.16 687.999L2823.96 547.999L2821.96 548.001ZM2823.16 687H2798.56V689H2823.16V687ZM2799.56 687.998L2799.36 586.598L2797.36 586.602L2797.56 688.002L2799.56 687.998ZM2798.36 587.6H2803.56V585.6H2798.36V587.6ZM2802.7 586.086L2751.5 671.486L2753.21 672.514L2804.41 587.114L2802.7 586.086ZM2752.36 671H2740.76V673H2752.36V671ZM2741.61 671.48L2689.61 586.08L2687.9 587.12L2739.9 672.52L2741.61 671.48ZM2688.76 587.6H2694.76V585.6H2688.76V587.6ZM2693.76 586.6V688H2695.76V586.6H2693.76ZM2694.76 687H2669.96V689H2694.76V687ZM2877.57 682.4L2877.09 683.278L2877.1 683.282L2877.11 683.286L2877.57 682.4ZM2856.97 662.8L2856.11 663.302L2856.11 663.312L2856.97 662.8ZM2856.77 606.4L2855.91 605.898L2855.9 605.902L2856.77 606.4ZM2876.37 587L2875.89 586.126L2875.88 586.129L2876.37 587ZM2932.77 586.8L2933.26 585.927L2933.26 585.927L2932.77 586.8ZM2958.77 638.8L2957.78 638.7L2957.77 638.75V638.8H2958.77ZM2958.57 642.6V643.6H2959.47L2959.57 642.71L2958.57 642.6ZM2869.57 642.6H2868.57V643.6H2869.57V642.6ZM2869.57 626V625H2868.57V626H2869.57ZM2945.37 626L2945.84 626.883L2945.37 625V626ZM2935.57 631.2L2934.57 631.178L2934.54 632.882L2936.04 632.083L2935.57 631.2ZM2931.77 615L2930.9 615.496L2930.9 615.496L2931.77 615ZM2920.77 604L2920.26 604.862L2920.28 604.868L2920.77 604ZM2888.77 604L2888.28 603.132L2888.26 603.138L2888.77 604ZM2877.97 615.2L2877.1 614.714L2877.09 614.723L2877.97 615.2ZM2890.97 664.2L2890.52 665.094L2890.52 665.094L2890.97 664.2ZM2925.57 665.4L2925.93 666.332L2925.93 666.332L2925.57 665.4ZM2938.37 656.6L2939.13 655.944L2938.4 655.107L2937.64 655.918L2938.37 656.6ZM2951.77 672L2952.53 672.651L2953.09 671.995L2952.53 671.344L2951.77 672ZM2933.57 685L2933.95 685.926L2933.96 685.923L2933.57 685ZM2908.77 688.4C2897.04 688.4 2886.8 686.093 2878.03 681.514L2877.11 683.286C2886.21 688.04 2896.77 690.4 2908.77 690.4V688.4ZM2878.05 681.522C2869.4 676.804 2862.67 670.394 2857.83 662.288L2856.11 663.312C2861.14 671.739 2868.14 678.396 2877.09 683.278L2878.05 681.522ZM2857.84 662.298C2853.13 654.199 2850.77 644.975 2850.77 634.6H2848.77C2848.77 645.291 2851.21 654.868 2856.11 663.302L2857.84 662.298ZM2850.77 634.6C2850.77 624.084 2853.07 614.86 2857.64 606.898L2855.9 605.902C2851.14 614.207 2848.77 623.783 2848.77 634.6H2850.77ZM2857.64 606.902C2862.35 598.788 2868.75 592.449 2876.86 587.871L2875.88 586.129C2867.46 590.884 2860.8 597.478 2855.91 605.898L2857.64 606.902ZM2876.86 587.874C2885.09 583.299 2894.46 581 2904.97 581V579C2894.15 579 2884.45 581.368 2875.89 586.126L2876.86 587.874ZM2904.97 581C2915.22 581 2924.32 583.232 2932.29 587.673L2933.26 585.927C2924.96 581.301 2915.52 579 2904.97 579V581ZM2932.29 587.673C2940.25 592.115 2946.52 598.382 2951.1 606.492L2952.84 605.508C2948.09 597.085 2941.56 590.551 2933.26 585.927L2932.29 587.673ZM2951.1 606.492C2955.67 614.583 2957.97 624.141 2957.97 635.2H2959.97C2959.97 623.859 2957.61 613.95 2952.84 605.508L2951.1 606.492ZM2957.97 635.2C2957.97 636.226 2957.91 637.392 2957.78 638.7L2959.77 638.9C2959.9 637.541 2959.97 636.307 2959.97 635.2H2957.97ZM2957.77 638.8C2957.77 640.1 2957.71 641.33 2957.58 642.49L2959.57 642.71C2959.7 641.47 2959.77 640.166 2959.77 638.8H2957.77ZM2958.57 641.6H2869.57V643.6H2958.57V641.6ZM2870.57 642.6V626H2868.57V642.6H2870.57ZM2869.57 627H2945.37V625H2869.57V627ZM2944.9 625.117L2935.1 630.317L2936.04 632.083L2945.84 626.883L2944.9 625.117ZM2936.57 631.222C2936.71 624.933 2935.41 619.349 2932.64 614.504L2930.9 615.496C2933.47 619.984 2934.7 625.2 2934.57 631.178L2936.57 631.222ZM2932.64 614.504C2929.88 609.682 2926.09 605.887 2921.27 603.132L2920.28 604.868C2924.79 607.446 2928.33 610.985 2930.9 615.496L2932.64 614.504ZM2921.28 603.138C2916.57 600.369 2911.12 599 2904.97 599V601C2910.82 601 2915.91 602.298 2920.26 604.862L2921.28 603.138ZM2904.97 599C2898.69 599 2893.11 600.367 2888.28 603.132L2889.27 604.868C2893.76 602.299 2898.99 601 2904.97 601V599ZM2888.26 603.138C2883.57 605.899 2879.85 609.766 2877.1 614.714L2878.85 615.686C2881.43 611.034 2884.91 607.434 2889.28 604.862L2888.26 603.138ZM2877.09 614.723C2874.47 619.563 2873.17 625.267 2873.17 631.8H2875.17C2875.17 625.533 2876.41 620.17 2878.85 615.677L2877.09 614.723ZM2873.17 631.8V635.8H2875.17V631.8H2873.17ZM2873.17 635.8C2873.17 642.359 2874.68 648.206 2877.71 653.311L2879.43 652.289C2876.6 647.527 2875.17 642.041 2875.17 635.8H2873.17ZM2877.71 653.311C2880.75 658.416 2885.03 662.346 2890.52 665.094L2891.42 663.306C2886.25 660.721 2882.26 657.051 2879.43 652.289L2877.71 653.311ZM2890.52 665.094C2896.02 667.841 2902.31 669.2 2909.37 669.2V667.2C2902.57 667.2 2896.59 665.892 2891.42 663.306L2890.52 665.094ZM2909.37 669.2C2915.48 669.2 2921 668.25 2925.93 666.332L2925.21 664.468C2920.54 666.283 2915.27 667.2 2909.37 667.2V669.2ZM2925.93 666.332C2930.88 664.407 2935.27 661.385 2939.1 657.282L2937.64 655.918C2934 659.815 2929.86 662.659 2925.21 664.468L2925.93 666.332ZM2937.62 657.256L2951.02 672.656L2952.53 671.344L2939.13 655.944L2937.62 657.256ZM2951.01 671.349C2946.32 676.822 2940.39 681.066 2933.19 684.077L2933.96 685.923C2941.42 682.8 2947.62 678.378 2952.53 672.651L2951.01 671.349ZM2933.19 684.074C2926.14 686.95 2918 688.4 2908.77 688.4V690.4C2918.21 690.4 2926.61 688.917 2933.95 685.926L2933.19 684.074ZM3095.93 688H3094.93V689H3095.93V688ZM3095.93 548V547H3094.93V548H3095.93ZM3117.33 548L3118.19 547.486L3117.9 547H3117.33V548ZM3178.53 650.2V651.2H3180.3L3179.39 649.686L3178.53 650.2ZM3167.33 650.2L3166.47 649.692L3165.58 651.2H3167.33V650.2ZM3227.53 548V547H3226.96L3226.67 547.492L3227.53 548ZM3248.93 548L3249.93 547.999L3249.93 547H3248.93V548ZM3249.13 688V689H3250.13L3250.13 687.999L3249.13 688ZM3224.53 688L3223.53 688.002L3223.53 689H3224.53V688ZM3224.33 586.6V585.6H3223.33L3223.33 586.602L3224.33 586.6ZM3229.53 586.6L3230.39 587.114L3231.3 585.6H3229.53V586.6ZM3178.33 672V673H3178.9L3179.19 672.514L3178.33 672ZM3166.73 672L3165.88 672.52L3166.17 673H3166.73V672ZM3114.73 586.6V585.6H3112.95L3113.88 587.12L3114.73 586.6ZM3120.73 586.6H3121.73V585.6H3120.73V586.6ZM3120.73 688V689H3121.73V688H3120.73ZM3096.93 688V548H3094.93V688H3096.93ZM3095.93 549H3117.33V547H3095.93V549ZM3116.47 548.514L3177.67 650.714L3179.39 649.686L3118.19 547.486L3116.47 548.514ZM3178.53 649.2H3167.33V651.2H3178.53V649.2ZM3168.19 650.708L3228.39 548.508L3226.67 547.492L3166.47 649.692L3168.19 650.708ZM3227.53 549H3248.93V547H3227.53V549ZM3247.93 548.001L3248.13 688.001L3250.13 687.999L3249.93 547.999L3247.93 548.001ZM3249.13 687H3224.53V689H3249.13V687ZM3225.53 687.998L3225.33 586.598L3223.33 586.602L3223.53 688.002L3225.53 687.998ZM3224.33 587.6H3229.53V585.6H3224.33V587.6ZM3228.68 586.086L3177.48 671.486L3179.19 672.514L3230.39 587.114L3228.68 586.086ZM3178.33 671H3166.73V673H3178.33V671ZM3167.59 671.48L3115.59 586.08L3113.88 587.12L3165.88 672.52L3167.59 671.48ZM3114.73 587.6H3120.73V585.6H3114.73V587.6ZM3119.73 586.6V688H3121.73V586.6H3119.73ZM3120.73 687H3095.93V689H3120.73V687ZM3303.35 682.4L3302.86 683.272L3302.87 683.277L3303.35 682.4ZM3283.15 662.8L3282.29 663.312L3282.29 663.312L3283.15 662.8ZM3283.15 606.4L3284 606.919L3284.01 606.912L3283.15 606.4ZM3303.35 587L3303.83 587.877L3303.83 587.877L3303.35 587ZM3361.95 587L3361.47 587.877L3361.47 587.88L3361.95 587ZM3382.15 606.2L3381.29 606.708L3381.29 606.719L3382.15 606.2ZM3382.15 662.8L3381.29 662.288L3381.28 662.298L3382.15 662.8ZM3361.95 682.4L3362.43 683.277L3362.43 683.275L3361.95 682.4ZM3348.95 664L3348.46 663.126L3348.46 663.126L3348.95 664ZM3360.15 652.4L3359.27 651.916L3359.27 651.925L3359.26 651.934L3360.15 652.4ZM3360.15 616.8L3359.26 617.266L3359.27 617.28L3359.28 617.294L3360.15 616.8ZM3348.95 605.2L3349.43 604.326L3349.43 604.326L3348.95 605.2ZM3316.35 605.2L3315.86 604.326L3315.85 604.332L3316.35 605.2ZM3305.15 616.8L3306.02 617.294L3306.02 617.284L3305.15 616.8ZM3305.15 652.4L3304.27 652.884L3304.27 652.884L3305.15 652.4ZM3316.35 664L3315.85 664.868L3315.86 664.874L3316.35 664ZM3332.55 688.4C3321.76 688.4 3312.2 686.099 3303.83 681.523L3302.87 683.277C3311.57 688.034 3321.47 690.4 3332.55 690.4V688.4ZM3303.84 681.528C3295.45 676.812 3288.85 670.402 3284.01 662.288L3282.29 663.312C3287.31 671.732 3294.18 678.388 3302.86 683.272L3303.84 681.528ZM3284.01 662.288C3279.17 654.19 3276.75 644.97 3276.75 634.6H3274.75C3274.75 645.296 3277.26 654.876 3282.29 663.312L3284.01 662.288ZM3276.75 634.6C3276.75 624.093 3279.18 614.877 3284 606.919L3282.29 605.881C3277.25 614.189 3274.75 623.773 3274.75 634.6H3276.75ZM3284.01 606.912C3288.85 598.801 3295.45 592.459 3303.83 587.877L3302.87 586.123C3294.18 590.874 3287.32 597.466 3282.29 605.888L3284.01 606.912ZM3303.83 587.877C3312.2 583.301 3321.76 581 3332.55 581V579C3321.47 579 3311.57 581.366 3302.87 586.123L3303.83 587.877ZM3332.55 581C3343.47 581 3353.1 583.302 3361.47 587.877L3362.43 586.123C3353.73 581.365 3343.76 579 3332.55 579V581ZM3361.47 587.88C3369.99 592.465 3376.58 598.739 3381.29 606.708L3383.01 605.692C3378.11 597.395 3371.24 590.869 3362.42 586.12L3361.47 587.88ZM3381.29 606.719C3386.12 614.675 3388.55 623.958 3388.55 634.6H3390.55C3390.55 623.642 3388.04 613.991 3383 605.681L3381.29 606.719ZM3388.55 634.6C3388.55 644.97 3386.12 654.19 3381.29 662.288L3383.01 663.312C3388.04 654.876 3390.55 645.296 3390.55 634.6H3388.55ZM3381.28 662.298C3376.58 670.402 3369.98 676.809 3361.46 681.525L3362.43 683.275C3371.25 678.391 3378.12 671.731 3383.01 663.302L3381.28 662.298ZM3361.47 681.523C3353.1 686.098 3343.47 688.4 3332.55 688.4V690.4C3343.76 690.4 3353.73 688.035 3362.43 683.277L3361.47 681.523ZM3332.55 669C3338.83 669 3344.47 667.633 3349.43 664.874L3348.46 663.126C3343.83 665.701 3338.53 667 3332.55 667V669ZM3349.43 664.874C3354.41 662.109 3358.28 658.097 3361.03 652.866L3359.26 651.934C3356.68 656.837 3353.09 660.558 3348.46 663.126L3349.43 664.874ZM3361.02 652.884C3363.92 647.645 3365.35 641.54 3365.35 634.6H3363.35C3363.35 641.26 3361.98 647.022 3359.27 651.916L3361.02 652.884ZM3365.35 634.6C3365.35 627.532 3363.92 621.42 3361.02 616.306L3359.28 617.294C3361.98 622.046 3363.35 627.801 3363.35 634.6H3365.35ZM3361.03 616.334C3358.28 611.103 3354.41 607.091 3349.43 604.326L3348.46 606.074C3353.09 608.642 3356.68 612.363 3359.26 617.266L3361.03 616.334ZM3349.43 604.326C3344.47 601.569 3338.9 600.2 3332.75 600.2V602.2C3338.59 602.2 3343.82 603.498 3348.46 606.074L3349.43 604.326ZM3332.75 600.2C3326.47 600.2 3320.83 601.567 3315.86 604.326L3316.83 606.074C3321.47 603.499 3326.76 602.2 3332.75 602.2V600.2ZM3315.85 604.332C3311.01 607.096 3307.15 611.102 3304.27 616.316L3306.02 617.284C3308.74 612.365 3312.35 608.637 3316.84 606.068L3315.85 604.332ZM3304.28 616.306C3301.38 621.42 3299.95 627.532 3299.95 634.6H3301.95C3301.95 627.801 3303.32 622.046 3306.02 617.294L3304.28 616.306ZM3299.95 634.6C3299.95 641.54 3301.38 647.645 3304.27 652.884L3306.02 651.916C3303.32 647.022 3301.95 641.26 3301.95 634.6H3299.95ZM3304.27 652.884C3307.15 658.098 3311.01 662.104 3315.85 664.868L3316.84 663.132C3312.35 660.563 3308.74 656.835 3306.02 651.916L3304.27 652.884ZM3315.86 664.874C3320.82 667.631 3326.39 669 3332.55 669V667C3326.7 667 3321.47 665.702 3316.83 663.126L3315.86 664.874ZM3413.45 688H3412.45V689H3413.45V688ZM3413.45 581.2V580.2H3412.45V581.2H3413.45ZM3437.25 581.2H3438.25V580.2H3437.25V581.2ZM3437.25 610.6L3436.3 610.91L3438.25 610.6H3437.25ZM3434.45 602L3433.54 601.594L3433.38 601.945L3433.5 602.31L3434.45 602ZM3449.45 585.6L3448.98 584.719L3448.97 584.723L3449.45 585.6ZM3475.25 580H3476.25V579H3475.25V580ZM3475.25 603.8L3475.01 604.77L3476.25 605.081V603.8H3475.25ZM3472.25 603.4L3472.11 604.39L3472.18 604.4H3472.25V603.4ZM3446.85 611.6L3447.55 612.316L3447.56 612.307L3446.85 611.6ZM3438.45 688V689H3439.45V688H3438.45ZM3414.45 688V581.2H3412.45V688H3414.45ZM3413.45 582.2H3437.25V580.2H3413.45V582.2ZM3436.25 581.2V610.6H3438.25V581.2H3436.25ZM3438.21 610.29L3435.41 601.69L3433.5 602.31L3436.3 610.91L3438.21 610.29ZM3435.37 602.406C3438.48 595.403 3443.33 590.103 3449.94 586.477L3448.97 584.723C3441.98 588.564 3436.83 594.197 3433.54 601.594L3435.37 602.406ZM3449.93 586.48C3456.68 582.846 3465.1 581 3475.25 581V579C3464.87 579 3456.1 580.888 3448.98 584.72L3449.93 586.48ZM3474.25 580V603.8H3476.25V580H3474.25ZM3475.5 602.83C3474.36 602.547 3473.28 602.4 3472.25 602.4V604.4C3473.09 604.4 3474.01 604.52 3475.01 604.77L3475.5 602.83ZM3472.4 602.41C3471.42 602.27 3470.44 602.2 3469.45 602.2V604.2C3470.34 604.2 3471.23 604.263 3472.11 604.39L3472.4 602.41ZM3469.45 602.2C3459.78 602.2 3451.97 605.069 3446.15 610.893L3447.56 612.307C3452.94 606.931 3460.2 604.2 3469.45 604.2V602.2ZM3446.16 610.884C3440.3 616.604 3437.45 625.106 3437.45 636.2H3439.45C3439.45 625.427 3442.21 617.53 3447.55 612.316L3446.16 610.884ZM3437.45 636.2V688H3439.45V636.2H3437.45ZM3438.45 687H3413.45V689H3438.45V687ZM3514.49 682.4L3514.01 683.278L3514.01 683.282L3514.02 683.286L3514.49 682.4ZM3493.89 662.8L3493.02 663.302L3493.03 663.312L3493.89 662.8ZM3493.69 606.4L3492.82 605.898L3492.82 605.902L3493.69 606.4ZM3513.29 587L3512.8 586.126L3512.79 586.129L3513.29 587ZM3569.69 586.8L3570.17 585.927L3570.17 585.927L3569.69 586.8ZM3595.69 638.8L3594.69 638.7L3594.69 638.75V638.8H3595.69ZM3595.49 642.6V643.6H3596.38L3596.48 642.71L3595.49 642.6ZM3506.49 642.6H3505.49V643.6H3506.49V642.6ZM3506.49 626V625H3505.49V626H3506.49ZM3582.29 626L3582.75 626.883L3582.29 625V626ZM3572.49 631.2L3571.49 631.178L3571.45 632.882L3572.95 632.083L3572.49 631.2ZM3568.69 615L3567.82 615.496L3567.82 615.496L3568.69 615ZM3557.69 604L3557.18 604.862L3557.19 604.868L3557.69 604ZM3525.69 604L3525.19 603.132L3525.18 603.138L3525.69 604ZM3514.89 615.2L3514.01 614.714L3514.01 614.723L3514.89 615.2ZM3527.89 664.2L3527.44 665.094L3527.44 665.094L3527.89 664.2ZM3562.49 665.4L3562.85 666.332L3562.85 666.332L3562.49 665.4ZM3575.29 656.6L3576.04 655.944L3575.31 655.107L3574.55 655.918L3575.29 656.6ZM3588.69 672L3589.45 672.651L3590.01 671.995L3589.44 671.344L3588.69 672ZM3570.49 685L3570.86 685.926L3570.87 685.923L3570.49 685ZM3545.69 688.4C3533.95 688.4 3523.72 686.093 3514.95 681.514L3514.02 683.286C3523.12 688.04 3533.69 690.4 3545.69 690.4V688.4ZM3514.96 681.522C3506.32 676.804 3499.58 670.394 3494.74 662.288L3493.03 663.312C3498.06 671.739 3505.06 678.396 3514.01 683.278L3514.96 681.522ZM3494.75 662.298C3490.05 654.199 3487.69 644.975 3487.69 634.6H3485.69C3485.69 645.291 3488.12 654.868 3493.02 663.302L3494.75 662.298ZM3487.69 634.6C3487.69 624.084 3489.98 614.86 3494.55 606.898L3492.82 605.902C3488.05 614.207 3485.69 623.783 3485.69 634.6H3487.69ZM3494.55 606.902C3499.26 598.788 3505.67 592.449 3513.78 587.871L3512.79 586.129C3504.37 590.884 3497.71 597.478 3492.82 605.898L3494.55 606.902ZM3513.77 587.874C3522.01 583.299 3531.37 581 3541.89 581V579C3531.07 579 3521.36 581.368 3512.8 586.126L3513.77 587.874ZM3541.89 581C3552.14 581 3561.23 583.232 3569.2 587.673L3570.17 585.927C3561.87 581.301 3552.44 579 3541.89 579V581ZM3569.2 587.673C3577.17 592.115 3583.44 598.382 3588.02 606.492L3589.76 605.508C3585 597.085 3578.47 590.551 3570.17 585.927L3569.2 587.673ZM3588.02 606.492C3592.58 614.583 3594.89 624.141 3594.89 635.2H3596.89C3596.89 623.859 3594.52 613.95 3589.76 605.508L3588.02 606.492ZM3594.89 635.2C3594.89 636.226 3594.82 637.392 3594.69 638.7L3596.68 638.9C3596.82 637.541 3596.89 636.307 3596.89 635.2H3594.89ZM3594.69 638.8C3594.69 640.1 3594.62 641.33 3594.49 642.49L3596.48 642.71C3596.62 641.47 3596.69 640.166 3596.69 638.8H3594.69ZM3595.49 641.6H3506.49V643.6H3595.49V641.6ZM3507.49 642.6V626H3505.49V642.6H3507.49ZM3506.49 627H3582.29V625H3506.49V627ZM3581.82 625.117L3572.02 630.317L3572.95 632.083L3582.75 626.883L3581.82 625.117ZM3573.49 631.222C3573.62 624.933 3572.32 619.349 3569.55 614.504L3567.82 615.496C3570.38 619.984 3571.62 625.2 3571.49 631.178L3573.49 631.222ZM3569.55 614.504C3566.8 609.682 3563 605.887 3558.18 603.132L3557.19 604.868C3561.7 607.446 3565.24 610.985 3567.82 615.496L3569.55 614.504ZM3558.19 603.138C3553.49 600.369 3548.04 599 3541.89 599V601C3547.73 601 3552.82 602.298 3557.18 604.862L3558.19 603.138ZM3541.89 599C3535.6 599 3530.03 600.367 3525.19 603.132L3526.18 604.868C3530.68 602.299 3535.9 601 3541.89 601V599ZM3525.18 603.138C3520.48 605.899 3516.76 609.766 3514.01 614.714L3515.76 615.686C3518.34 611.034 3521.82 607.434 3526.19 604.862L3525.18 603.138ZM3514.01 614.723C3511.38 619.563 3510.09 625.267 3510.09 631.8H3512.09C3512.09 625.533 3513.33 620.17 3515.76 615.677L3514.01 614.723ZM3510.09 631.8V635.8H3512.09V631.8H3510.09ZM3510.09 635.8C3510.09 642.359 3511.59 648.206 3514.63 653.311L3516.35 652.289C3513.51 647.527 3512.09 642.041 3512.09 635.8H3510.09ZM3514.63 653.311C3517.66 658.416 3521.94 662.346 3527.44 665.094L3528.33 663.306C3523.16 660.721 3519.18 657.051 3516.35 652.289L3514.63 653.311ZM3527.44 665.094C3532.93 667.841 3539.22 669.2 3546.29 669.2V667.2C3539.48 667.2 3533.51 665.892 3528.33 663.306L3527.44 665.094ZM3546.29 669.2C3552.39 669.2 3557.92 668.25 3562.85 666.332L3562.12 664.468C3557.46 666.283 3552.18 667.2 3546.29 667.2V669.2ZM3562.85 666.332C3567.8 664.407 3572.19 661.385 3576.02 657.282L3574.55 655.918C3570.92 659.815 3566.77 662.659 3562.12 664.468L3562.85 666.332ZM3574.53 657.256L3587.93 672.656L3589.44 671.344L3576.04 655.944L3574.53 657.256ZM3587.93 671.349C3583.24 676.822 3577.3 681.066 3570.1 684.077L3570.87 685.923C3578.34 682.8 3584.54 678.378 3589.45 672.651L3587.93 671.349ZM3570.11 684.074C3563.05 686.95 3554.92 688.4 3545.69 688.4V690.4C3555.12 690.4 3563.52 688.917 3570.86 685.926L3570.11 684.074Z" fill="black" mask="url(#path-8-outside-1_105_9)"/>
<path d="M1266 718V717H1265V718H1266ZM1785.67 718H1786.67V717H1785.67V718ZM1785.67 731V732H1786.67V731H1785.67ZM1266 731H1265V732H1266V731ZM1851.64 718V717H1850.64V718H1851.64ZM1904.45 718H1905.45V717H1904.45V718ZM1904.45 731V732H1905.45V731H1904.45ZM1851.64 731H1850.64V732H1851.64V731ZM1933.73 718V717H1932.73V718H1933.73ZM3603.49 718H3604.49V717H3603.49V718ZM3603.49 731V732H3604.49V731H3603.49ZM1933.73 731H1932.73V732H1933.73V731ZM1266 719H1785.67V717H1266V719ZM1784.67 718V731H1786.67V718H1784.67ZM1785.67 730H1266V732H1785.67V730ZM1267 731V718H1265V731H1267ZM1851.64 719H1904.45V717H1851.64V719ZM1903.45 718V731H1905.45V718H1903.45ZM1904.45 730H1851.64V732H1904.45V730ZM1852.64 731V718H1850.64V731H1852.64ZM1933.73 719H3603.49V717H1933.73V719ZM3602.49 718V731H3604.49V718H3602.49ZM3603.49 730H1933.73V732H3603.49V730ZM1934.73 731V718H1932.73V731H1934.73Z" fill="black" mask="url(#path-8-outside-1_105_9)"/>
<defs>
<filter id="filter0_d_105_9" x="0.0644531" y="84.3086" width="5431.99" height="1028.4" filterUnits="userSpaceOnUse" color-interpolation-filters="sRGB">
<feFlood flood-opacity="0" result="BackgroundImageFix"/>
<feColorMatrix in="SourceAlpha" type="matrix" values="0 0 0 0 0 0 0 0 0 0 0 0 0 0 0 0 0 0 127 0" result="hardAlpha"/>
<feOffset dy="32"/>
<feGaussianBlur stdDeviation="15"/>
<feComposite in2="hardAlpha" operator="out"/>
<feColorMatrix type="matrix" values="0 0 0 0 1 0 0 0 0 1 0 0 0 0 1 0 0 0 0.25 0"/>
<feBlend mode="normal" in2="BackgroundImageFix" result="effect1_dropShadow_105_9"/>
<feBlend mode="normal" in="SourceGraphic" in2="effect1_dropShadow_105_9" result="shape"/>
</filter>
<filter id="filter1_d_105_9" x="3649.49" y="695.101" width="428.559" height="519.811" filterUnits="userSpaceOnUse" color-interpolation-filters="sRGB">
<feFlood flood-opacity="0" result="BackgroundImageFix"/>
<feColorMatrix in="SourceAlpha" type="matrix" values="0 0 0 0 0 0 0 0 0 0 0 0 0 0 0 0 0 0 127 0" result="hardAlpha"/>
<feOffset dy="32"/>
<feGaussianBlur stdDeviation="15"/>
<feComposite in2="hardAlpha" operator="out"/>
<feColorMatrix type="matrix" values="0 0 0 0 0 0 0 0 0 0 0 0 0 0 0 0 0 0 0.25 0"/>
<feBlend mode="normal" in2="BackgroundImageFix" result="effect1_dropShadow_105_9"/>
<feBlend mode="normal" in="SourceGraphic" in2="effect1_dropShadow_105_9" result="shape"/>
</filter>
</defs>
</svg>
