<svg width="5419" height="1197" viewBox="0 0 5419 1197" fill="none" xmlns="http://www.w3.org/2000/svg">
<g filter="url(#filter0_d_113_99)">
<path d="M3451.85 120.448C3181.55 111.009 2910.28 96.1828 2639.91 93.7794C2092.58 88.9142 1542.98 121.403 1012.6 207.153C659.231 264.285 122.908 322.787 51.214 631.942C34.405 704.425 13.3043 803.171 63.1057 872.492C112.101 940.692 274.538 957.894 365.801 971.954C531.128 997.426 699.453 1007.56 867.41 1015.17C1216.64 1030.98 1567.47 1041.51 1916.89 1041.71C2692.98 1042.14 3477.24 999.257 4229.99 875.608C4599.9 814.846 5054.85 745.766 5323.14 540.098C5366.33 506.996 5410.06 455.516 5370.69 409.053C5338.7 371.297 5267.42 341.419 5216.23 320.244C5041.23 247.85 4840.15 219.998 4644.72 193.7C4356.04 154.856 4065.55 134.245 3772.99 135.875C3358.53 138.185 2995.98 220.627 2611.83 316.924C2507.83 342.995 2404.22 363.621 2305.78 398.92C2280.66 407.927 2240.42 416.435 2226.96 434.084" stroke="black" stroke-width="18" stroke-linecap="round"/>
</g>
<g filter="url(#filter1_d_113_99)">
<path d="M3899.84 1126.01C3898.98 1123.07 3896.84 1119.43 3895.52 1116.71C3894.64 1114.9 3891.42 1111.23 3889.59 1110.23C3886.52 1108.56 3886.81 1101.97 3886.24 1098.71C3885.41 1094 3881.65 1089.96 3878.94 1086.13C3875.02 1080.59 3871.47 1074.01 3865.79 1070.03C3862.44 1067.68 3859.06 1063.77 3856.24 1060.73C3852.32 1056.48 3848.05 1053.39 3842.94 1050.67C3837.87 1047.97 3831.67 1045.39 3827.03 1042.14C3823.89 1039.94 3821.69 1036.47 3818.27 1034.55C3812.03 1031.05 3803.66 1023.85 3795.84 1024.78C3794.33 1024.96 3791.31 1024.16 3789.72 1023.91C3787.17 1023.5 3784.3 1023.3 3781.8 1022.47C3777.14 1020.93 3771.18 1021.28 3766.12 1020.79C3760.35 1020.23 3755.62 1020.55 3749.98 1019C3748.37 1018.56 3746.03 1019.06 3744.29 1018.88C3742.28 1018.67 3740.57 1017.08 3738.26 1017.35C3733.87 1017.86 3727.67 1014.2 3723.41 1012.94C3718.85 1011.58 3714.28 1009.88 3710.86 1006.55C3708.39 1004.14 3705.67 1003.27 3703.58 1000.17C3702.17 998.082 3699.06 994.483 3698.67 992.245C3697.99 988.421 3690.21 973.955 3696.14 972.91C3702.96 971.707 3704.7 965.247 3710.86 964.16C3714.39 963.538 3717.42 961.184 3720.65 959.846C3723.35 958.724 3725.85 958 3729.01 957.442C3735.41 956.315 3741.8 955.187 3748.2 954.059C3751.69 953.444 3756.36 954.037 3759.89 954.44C3764.03 954.912 3767.68 953.892 3771.82 953.411C3774.08 953.148 3777.85 954.476 3780.38 954.588C3783.44 954.723 3787.16 953.993 3790.13 955.018C3793.39 956.144 3796.47 956.098 3799.88 955.496C3805.36 954.53 3800.93 951.767 3799.32 949.831C3796.96 946.992 3792.15 946.279 3790.93 942.129C3790.59 940.972 3789.13 938.83 3788.05 938.241C3787.06 937.704 3786.99 935.177 3786.21 934.17C3781.39 927.987 3778.4 920.573 3776.08 913.048C3772.87 902.602 3765.65 893.474 3763.72 882.552C3763.01 878.485 3759.8 872.207 3756.97 869.188C3756.15 868.312 3754.19 868.36 3753.98 867.176C3753.52 864.586 3753.07 861.997 3752.61 859.407C3751.9 855.389 3749.93 851.494 3748.71 847.542C3746.99 841.956 3743.35 836.834 3742.35 831.13C3741.51 826.361 3740.67 821.593 3739.83 816.824C3739.54 815.182 3739.25 813.54 3738.96 811.898C3738.55 809.605 3740.37 809.917 3739.99 807.808C3739.58 805.437 3741.11 802.67 3741.23 800.118C3741.36 797.167 3743.41 793.783 3745.47 791.506C3746.93 789.892 3746.23 788.452 3746.96 786.359C3747.41 785.058 3748.99 784.011 3749.65 782.807C3750.1 781.989 3752 780.271 3752.88 780.041C3754.7 779.56 3756.27 776.735 3757.56 775.307C3759.09 773.619 3763 772.101 3765.28 771.7C3769.72 770.916 3771.63 770.016 3775.11 772.604C3777.06 774.056 3779.34 776.773 3781.65 777.604C3784.59 778.657 3785.52 782.252 3787.94 783.088C3789.76 783.717 3794.04 787.294 3794.76 789.359C3795.17 790.515 3797.54 792.633 3798.53 793.53C3799.94 794.806 3799.02 797.028 3800.53 798.209C3802.21 799.526 3804.53 804.836 3804.89 806.914C3805.56 810.704 3808.01 815.105 3809.78 818.556C3812.24 823.367 3814.41 829.249 3817.15 833.765C3820.94 840.013 3821.24 848.056 3824.71 854.46C3826.65 858.054 3827.14 862.263 3828.7 866.016C3829.82 868.718 3831.7 871.335 3832.52 874.133C3833.39 877.092 3834.87 879.649 3836.63 882.2C3838.22 884.502 3838.5 887.845 3840.19 889.925C3842.97 893.352 3843.59 898.828 3845.73 902.77C3847.47 905.98 3850.03 908.512 3852.15 911.504C3853.62 913.568 3856.49 920.017 3855.28 913.198C3854.68 909.788 3854.08 906.377 3853.48 902.967C3853.19 901.297 3850.5 892.437 3851.8 890.954C3852.6 890.046 3855.8 886.19 3855.66 885.438C3854.66 879.753 3870.71 875.567 3873.73 873.217C3876.24 871.265 3880.85 870.008 3884.05 869.443C3886.19 869.067 3888.32 868.691 3890.45 868.315C3892.41 867.97 3893.93 869.134 3895.86 869.071C3897.72 869.01 3903.19 872.417 3904.67 874.207C3905.92 875.701 3908.86 879.619 3910.44 879.784C3911.23 879.866 3911.44 882.099 3912.62 881.89C3912.86 881.849 3913.9 879.284 3915.17 878.901C3916.45 878.518 3916.39 876.928 3917.86 876.67C3919.6 876.362 3920.81 875.36 3922.4 874.99C3932.26 872.68 3941.64 869.777 3951.92 870.664C3958.12 871.199 3965.34 874.753 3969.18 879.928C3970.2 881.305 3975.51 888.373 3975.01 884.176C3974.72 881.784 3981.15 880.455 3983.08 880.114C3990.59 878.79 3999.68 880.027 4005.6 885.375C4007.09 886.729 4008.98 887.514 4010.52 888.903C4011.92 890.167 4012.56 891.905 4013.68 892.986C4017.32 896.501 4020.17 900.973 4023.49 904.835C4025.11 906.73 4027.55 912.896 4027.97 915.279C4028.72 919.542 4029.47 923.805 4030.22 928.068C4031.82 937.16 4029.41 947.279 4025.31 955.357C4023 959.923 4022.39 965.179 4020.19 969.79C4018.73 972.835 4019.46 976.174 4018.54 979.263C4017.75 981.908 4016.96 982.521 4017.49 985.505C4018.27 989.935 4015.81 994.811 4016.49 999.748C4017.05 1003.89 4014.36 1007.61 4015.06 1011.62C4015.37 1013.39 4014.53 1014.63 4014.33 1016.34C4014.09 1018.43 4014.95 1020.94 4015.31 1023.01C4016.04 1027.11 4016.76 1031.22 4017.48 1035.32C4018.18 1039.26 4019.34 1043.32 4021.7 1046.5C4023 1048.26 4025.06 1049.8 4025.69 1051.95C4026.18 1053.64 4025.47 1051.99 4023.56 1052.33C4016.41 1053.58 4008.07 1052.44 4001.93 1057.9C3995.49 1063.62 3987.67 1067.81 3981.07 1073.4C3978.33 1075.72 3975.2 1078.46 3972.31 1080.51C3969.8 1082.28 3964.39 1084.77 3963.2 1087.58C3961.91 1090.65 3953.71 1094.68 3950.95 1096.78C3948.57 1098.59 3946.4 1100.67 3943.99 1102.45C3942.52 1103.54 3941.67 1105.47 3940.15 1106.4C3939.09 1107.04 3937.89 1106.69 3937.3 1107.98C3935.52 1111.88 3930.22 1114.65 3927.25 1117.17C3924.23 1119.73 3919.82 1121.87 3916.03 1123.11C3912.65 1124.22 3897.79 1124.34 3898.5 1128.39C3899.33 1133.1 3899.41 1139.24 3901.25 1143.69C3901.66 1144.67 3908.04 1142.15 3909.24 1141.94C3915.2 1140.89 3922.12 1140.42 3926.77 1136.65C3931.35 1132.93 3939.38 1130.97 3942.75 1126.16C3944.13 1124.2 3947.82 1123.58 3949.7 1122.05C3952.21 1120.02 3953.52 1118.63 3955.94 1117C3961.92 1112.97 3966.64 1107.98 3972.49 1104.21C3975.12 1102.52 3977.85 1101.02 3980.41 1099.3C3981.41 1098.63 3982.07 1096.91 3983.03 1096.44C3984.2 1095.88 3986.44 1095.66 3987.29 1094.57C3990.56 1090.39 3997.33 1084.61 4002.5 1082.46C4010.73 1079.05 4016.79 1072.86 4025.97 1071.24C4027.99 1070.88 4033.64 1069.59 4031.62 1066.73C4030.33 1064.92 4028.68 1063.44 4027.33 1061.82C4026.49 1060.8 4023.95 1060.89 4023.48 1059.37C4023.12 1058.18 4016.36 1056.61 4015.02 1056.27C4011.84 1055.48 4008.49 1054.98 4005.23 1055.56" stroke="black" stroke-width="18" stroke-linecap="round"/>
<path d="M3693.83 833.572C3695.12 833.345 3695.52 831.997 3696.51 831.517C3697.08 831.239 3697.83 831.415 3698.4 831.138C3698.87 830.909 3699.28 830.347 3699.82 830.084C3700.96 829.53 3701.84 828.144 3703.08 827.926C3703.77 827.804 3705.82 826.497 3706.34 825.923C3708.27 823.792 3712.21 824.094 3713.98 822.076C3714.62 821.349 3716.86 821.078 3717.8 820.913C3719.32 820.644 3720.85 820.374 3722.38 820.104" stroke="black" stroke-width="18" stroke-linecap="round"/>
<path d="M3681.49 779.523C3685.95 778.737 3690.48 778.341 3694.99 778.66C3699.24 778.96 3702.98 780.643 3707.1 781.411C3708.47 781.666 3709.54 782.456 3710.91 782.368C3711.81 782.311 3712.68 783.465 3713.68 783.509C3715.49 783.59 3717.54 786.018 3719.52 785.669" stroke="black" stroke-width="18" stroke-linecap="round"/>
<path d="M3712.89 729.812C3713.5 729.855 3715.92 732.58 3716.6 733.172C3717.63 734.065 3718.79 735.15 3719.97 735.792C3722.47 737.16 3723.22 740.597 3725.17 742.506C3726.27 743.589 3726.43 744.935 3727.23 746.135C3728.26 747.678 3729.09 749.142 3729.47 750.984C3729.79 752.543 3731.54 753.586 3731.82 755.188C3731.96 756.009 3732.24 757.342 3733.04 757.582" stroke="black" stroke-width="18" stroke-linecap="round"/>
<path d="M3773.07 704.102C3773.76 708.032 3772.62 712.106 3773.28 715.865C3773.57 717.513 3773.24 719.169 3773.55 720.923C3773.98 723.356 3771.84 725.309 3772.25 727.606C3772.99 731.829 3771.2 735.777 3771.95 739.976C3772.27 741.813 3770.12 745.457 3768.74 746.475" stroke="black" stroke-width="18" stroke-linecap="round"/>
<path d="M3823.16 738.121C3819.21 741.778 3815.21 745.403 3810.69 748.361C3807.67 750.332 3804.6 752.05 3801.98 754.554C3800.32 756.143 3798.76 758.26 3796.89 759.523C3795.82 760.239 3795.21 762.265 3794.04 763.131" stroke="black" stroke-width="18" stroke-linecap="round"/>
</g>
<path d="M1376.2 698C1365.27 698 1354.8 696.467 1344.8 693.4C1334.8 690.2 1326.87 686.133 1321 681.2L1330 661C1335.6 665.4 1342.53 669.067 1350.8 672C1359.07 674.933 1367.53 676.4 1376.2 676.4C1383.53 676.4 1389.47 675.6 1394 674C1398.53 672.4 1401.87 670.267 1404 667.6C1406.13 664.8 1407.2 661.667 1407.2 658.2C1407.2 653.933 1405.67 650.533 1402.6 648C1399.53 645.333 1395.53 643.267 1390.6 641.8C1385.8 640.2 1380.4 638.733 1374.4 637.4C1368.53 636.067 1362.6 634.533 1356.6 632.8C1350.73 630.933 1345.33 628.6 1340.4 625.8C1335.6 622.867 1331.67 619 1328.6 614.2C1325.53 609.4 1324 603.267 1324 595.8C1324 588.2 1326 581.267 1330 575C1334.13 568.6 1340.33 563.533 1348.6 559.8C1357 555.933 1367.6 554 1380.4 554C1388.8 554 1397.13 555.067 1405.4 557.2C1413.67 559.333 1420.87 562.4 1427 566.4L1418.8 586.6C1412.53 582.867 1406.07 580.133 1399.4 578.4C1392.73 576.533 1386.33 575.6 1380.2 575.6C1373 575.6 1367.13 576.467 1362.6 578.2C1358.2 579.933 1354.93 582.2 1352.8 585C1350.8 587.8 1349.8 591 1349.8 594.6C1349.8 598.867 1351.27 602.333 1354.2 605C1357.27 607.533 1361.2 609.533 1366 611C1370.93 612.467 1376.4 613.933 1382.4 615.4C1388.4 616.733 1394.33 618.267 1400.2 620C1406.2 621.733 1411.6 624 1416.4 626.8C1421.33 629.6 1425.27 633.4 1428.2 638.2C1431.27 643 1432.8 649.067 1432.8 656.4C1432.8 663.867 1430.73 670.8 1426.6 677.2C1422.6 683.467 1416.4 688.533 1408 692.4C1399.6 696.133 1389 698 1376.2 698ZM1501.38 697.4C1492.31 697.4 1484.31 695.733 1477.38 692.4C1470.45 688.933 1465.05 683.733 1461.18 676.8C1457.31 669.733 1455.38 660.867 1455.38 650.2V589.2H1480.38V646.8C1480.38 656.4 1482.51 663.6 1486.78 668.4C1491.18 673.067 1497.38 675.4 1505.38 675.4C1511.25 675.4 1516.31 674.2 1520.58 671.8C1524.98 669.4 1528.38 665.8 1530.78 661C1533.31 656.2 1534.58 650.267 1534.58 643.2V589.2H1559.58V696H1535.78V667.2L1539.98 676C1536.38 682.933 1531.11 688.267 1524.18 692C1517.25 695.6 1509.65 697.4 1501.38 697.4ZM1592.31 696V589.2H1616.11V618.6L1613.31 610C1616.51 602.8 1621.51 597.333 1628.31 593.6C1635.25 589.867 1643.85 588 1654.11 588V611.8C1653.05 611.533 1652.05 611.4 1651.11 611.4C1650.18 611.267 1649.25 611.2 1648.31 611.2C1638.85 611.2 1631.31 614 1625.71 619.6C1620.11 625.067 1617.31 633.267 1617.31 644.2V696H1592.31ZM1724.55 697.4C1712.68 697.4 1702.28 695.067 1693.35 690.4C1684.55 685.6 1677.68 679.067 1672.75 670.8C1667.95 662.533 1665.55 653.133 1665.55 642.6C1665.55 631.933 1667.88 622.533 1672.55 614.4C1677.35 606.133 1683.88 599.667 1692.15 595C1700.55 590.333 1710.08 588 1720.75 588C1731.15 588 1740.41 590.267 1748.55 594.8C1756.68 599.333 1763.08 605.733 1767.75 614C1772.41 622.267 1774.75 632 1774.75 643.2C1774.75 644.267 1774.68 645.467 1774.55 646.8C1774.55 648.133 1774.48 649.4 1774.35 650.6H1685.35V634H1761.15L1751.35 639.2C1751.48 633.067 1750.21 627.667 1747.55 623C1744.88 618.333 1741.21 614.667 1736.55 612C1732.01 609.333 1726.75 608 1720.75 608C1714.61 608 1709.21 609.333 1704.55 612C1700.01 614.667 1696.41 618.4 1693.75 623.2C1691.21 627.867 1689.95 633.4 1689.95 639.8V643.8C1689.95 650.2 1691.41 655.867 1694.35 660.8C1697.28 665.733 1701.41 669.533 1706.75 672.2C1712.08 674.867 1718.21 676.2 1725.15 676.2C1731.15 676.2 1736.55 675.267 1741.35 673.4C1746.15 671.533 1750.41 668.6 1754.15 664.6L1767.55 680C1762.75 685.6 1756.68 689.933 1749.35 693C1742.15 695.933 1733.88 697.4 1724.55 697.4ZM1798.76 696V547.6H1823.76V696H1798.76ZM1865.37 736.2C1860.17 736.2 1854.97 735.333 1849.77 733.6C1844.57 731.867 1840.24 729.467 1836.77 726.4L1846.77 708C1849.31 710.267 1852.17 712.067 1855.37 713.4C1858.57 714.733 1861.84 715.4 1865.17 715.4C1869.71 715.4 1873.37 714.267 1876.17 712C1878.97 709.733 1881.57 705.933 1883.97 700.6L1890.17 686.6L1892.17 683.6L1932.57 589.2H1956.57L1906.57 704.6C1903.24 712.6 1899.51 718.933 1895.37 723.6C1891.37 728.267 1886.84 731.533 1881.77 733.4C1876.84 735.267 1871.37 736.2 1865.37 736.2ZM1887.37 699.8L1839.17 589.2H1865.17L1904.37 681.4L1887.37 699.8ZM1958.96 726.2L1970.56 682L1973.96 696.8C1969.29 696.8 1965.36 695.4 1962.16 692.6C1959.09 689.667 1957.56 685.733 1957.56 680.8C1957.56 675.733 1959.09 671.733 1962.16 668.8C1965.36 665.733 1969.22 664.2 1973.76 664.2C1978.42 664.2 1982.29 665.733 1985.36 668.8C1988.42 671.867 1989.96 675.867 1989.96 680.8C1989.96 682.133 1989.82 683.6 1989.56 685.2C1989.29 686.667 1988.82 688.4 1988.16 690.4C1987.62 692.4 1986.69 694.933 1985.36 698L1975.16 726.2H1958.96ZM2095.26 663L2093.86 632.2L2167.26 556H2196.46L2135.46 620.8L2121.06 636.6L2095.26 663ZM2072.06 696V556H2098.06V696H2072.06ZM2169.66 696L2116.06 632.2L2133.26 613.2L2200.06 696H2169.66ZM2274.01 588C2282.54 588 2290.14 589.667 2296.81 593C2303.61 596.333 2308.94 601.467 2312.81 608.4C2316.67 615.2 2318.61 624 2318.61 634.8V696H2293.61V638C2293.61 628.533 2291.34 621.467 2286.81 616.8C2282.41 612.133 2276.21 609.8 2268.21 609.8C2262.34 609.8 2257.14 611 2252.61 613.4C2248.07 615.8 2244.54 619.4 2242.01 624.2C2239.61 628.867 2238.41 634.8 2238.41 642V696H2213.41V589.2H2237.21V618L2233.01 609.2C2236.74 602.4 2242.14 597.2 2249.21 593.6C2256.41 589.867 2264.67 588 2274.01 588ZM2398.52 697.4C2387.58 697.4 2377.85 695.067 2369.32 690.4C2360.78 685.6 2354.05 679.067 2349.12 670.8C2344.18 662.533 2341.72 653.133 2341.72 642.6C2341.72 631.933 2344.18 622.533 2349.12 614.4C2354.05 606.133 2360.78 599.667 2369.32 595C2377.85 590.333 2387.58 588 2398.52 588C2409.58 588 2419.38 590.333 2427.92 595C2436.58 599.667 2443.32 606.067 2448.12 614.2C2453.05 622.333 2455.52 631.8 2455.52 642.6C2455.52 653.133 2453.05 662.533 2448.12 670.8C2443.32 679.067 2436.58 685.6 2427.92 690.4C2419.38 695.067 2409.58 697.4 2398.52 697.4ZM2398.52 676C2404.65 676 2410.12 674.667 2414.92 672C2419.72 669.333 2423.45 665.467 2426.12 660.4C2428.92 655.333 2430.32 649.4 2430.32 642.6C2430.32 635.667 2428.92 629.733 2426.12 624.8C2423.45 619.733 2419.72 615.867 2414.92 613.2C2410.12 610.533 2404.72 609.2 2398.72 609.2C2392.58 609.2 2387.12 610.533 2382.32 613.2C2377.65 615.867 2373.92 619.733 2371.12 624.8C2368.32 629.733 2366.92 635.667 2366.92 642.6C2366.92 649.4 2368.32 655.333 2371.12 660.4C2373.92 665.467 2377.65 669.333 2382.32 672C2387.12 674.667 2392.52 676 2398.52 676ZM2500.09 696L2460.89 589.2H2484.49L2518.09 683.4H2506.89L2542.09 589.2H2563.09L2597.29 683.4H2586.29L2620.89 589.2H2643.09L2603.69 696H2579.69L2548.49 612.6H2555.89L2524.09 696H2500.09ZM2717.96 696V556H2739.36L2800.56 658.2H2789.36L2849.56 556H2870.96L2871.16 696H2846.56L2846.36 594.6H2851.56L2800.36 680H2788.76L2736.76 594.6H2742.76V696H2717.96ZM2956.77 697.4C2944.91 697.4 2934.51 695.067 2925.57 690.4C2916.77 685.6 2909.91 679.067 2904.97 670.8C2900.17 662.533 2897.77 653.133 2897.77 642.6C2897.77 631.933 2900.11 622.533 2904.77 614.4C2909.57 606.133 2916.11 599.667 2924.37 595C2932.77 590.333 2942.31 588 2952.97 588C2963.37 588 2972.64 590.267 2980.77 594.8C2988.91 599.333 2995.31 605.733 2999.97 614C3004.64 622.267 3006.97 632 3006.97 643.2C3006.97 644.267 3006.91 645.467 3006.77 646.8C3006.77 648.133 3006.71 649.4 3006.57 650.6H2917.57V634H2993.37L2983.57 639.2C2983.71 633.067 2982.44 627.667 2979.77 623C2977.11 618.333 2973.44 614.667 2968.77 612C2964.24 609.333 2958.97 608 2952.97 608C2946.84 608 2941.44 609.333 2936.77 612C2932.24 614.667 2928.64 618.4 2925.97 623.2C2923.44 627.867 2922.17 633.4 2922.17 639.8V643.8C2922.17 650.2 2923.64 655.867 2926.57 660.8C2929.51 665.733 2933.64 669.533 2938.97 672.2C2944.31 674.867 2950.44 676.2 2957.37 676.2C2963.37 676.2 2968.77 675.267 2973.57 673.4C2978.37 671.533 2982.64 668.6 2986.37 664.6L2999.77 680C2994.97 685.6 2988.91 689.933 2981.57 693C2974.37 695.933 2966.11 697.4 2956.77 697.4ZM3088.66 696V556H3110.06L3171.26 658.2H3160.06L3220.26 556H3241.66L3241.86 696H3217.26L3217.06 594.6H3222.26L3171.06 680H3159.46L3107.46 594.6H3113.46V696H3088.66ZM3325.28 697.4C3314.34 697.4 3304.61 695.067 3296.08 690.4C3287.54 685.6 3280.81 679.067 3275.88 670.8C3270.94 662.533 3268.48 653.133 3268.48 642.6C3268.48 631.933 3270.94 622.533 3275.88 614.4C3280.81 606.133 3287.54 599.667 3296.08 595C3304.61 590.333 3314.34 588 3325.28 588C3336.34 588 3346.14 590.333 3354.68 595C3363.34 599.667 3370.08 606.067 3374.88 614.2C3379.81 622.333 3382.28 631.8 3382.28 642.6C3382.28 653.133 3379.81 662.533 3374.88 670.8C3370.08 679.067 3363.34 685.6 3354.68 690.4C3346.14 695.067 3336.34 697.4 3325.28 697.4ZM3325.28 676C3331.41 676 3336.88 674.667 3341.68 672C3346.48 669.333 3350.21 665.467 3352.88 660.4C3355.68 655.333 3357.08 649.4 3357.08 642.6C3357.08 635.667 3355.68 629.733 3352.88 624.8C3350.21 619.733 3346.48 615.867 3341.68 613.2C3336.88 610.533 3331.48 609.2 3325.48 609.2C3319.34 609.2 3313.88 610.533 3309.08 613.2C3304.41 615.867 3300.68 619.733 3297.88 624.8C3295.08 629.733 3293.68 635.667 3293.68 642.6C3293.68 649.4 3295.08 655.333 3297.88 660.4C3300.68 665.467 3304.41 669.333 3309.08 672C3313.88 674.667 3319.28 676 3325.28 676ZM3406.18 696V589.2H3429.98V618.6L3427.18 610C3430.38 602.8 3435.38 597.333 3442.18 593.6C3449.11 589.867 3457.71 588 3467.98 588V611.8C3466.91 611.533 3465.91 611.4 3464.98 611.4C3464.05 611.267 3463.11 611.2 3462.18 611.2C3452.71 611.2 3445.18 614 3439.58 619.6C3433.98 625.067 3431.18 633.267 3431.18 644.2V696H3406.18ZM3538.41 697.4C3526.55 697.4 3516.15 695.067 3507.21 690.4C3498.41 685.6 3491.55 679.067 3486.61 670.8C3481.81 662.533 3479.41 653.133 3479.41 642.6C3479.41 631.933 3481.75 622.533 3486.41 614.4C3491.21 606.133 3497.75 599.667 3506.01 595C3514.41 590.333 3523.95 588 3534.61 588C3545.01 588 3554.28 590.267 3562.41 594.8C3570.55 599.333 3576.95 605.733 3581.61 614C3586.28 622.267 3588.61 632 3588.61 643.2C3588.61 644.267 3588.55 645.467 3588.41 646.8C3588.41 648.133 3588.35 649.4 3588.21 650.6H3499.21V634H3575.01L3565.21 639.2C3565.35 633.067 3564.08 627.667 3561.41 623C3558.75 618.333 3555.08 614.667 3550.41 612C3545.88 609.333 3540.61 608 3534.61 608C3528.48 608 3523.08 609.333 3518.41 612C3513.88 614.667 3510.28 618.4 3507.61 623.2C3505.08 627.867 3503.81 633.4 3503.81 639.8V643.8C3503.81 650.2 3505.28 655.867 3508.21 660.8C3511.15 665.733 3515.28 669.533 3520.61 672.2C3525.95 674.867 3532.08 676.2 3539.01 676.2C3545.01 676.2 3550.41 675.267 3555.21 673.4C3560.01 671.533 3564.28 668.6 3568.01 664.6L3581.41 680C3576.61 685.6 3570.55 689.933 3563.21 693C3556.01 695.933 3547.75 697.4 3538.41 697.4Z" fill="black"/>
<path d="M1314 726H1833.67V739H1314V726ZM1899.64 726H1952.45V739H1899.64V726ZM1981.73 726H3596.21V739H1981.73V726Z" fill="black"/>
<defs>
<filter id="filter0_d_113_99" x="0.0644531" y="82.3086" width="5417.99" height="1012.4" filterUnits="userSpaceOnUse" color-interpolation-filters="sRGB">
<feFlood flood-opacity="0" result="BackgroundImageFix"/>
<feColorMatrix in="SourceAlpha" type="matrix" values="0 0 0 0 0 0 0 0 0 0 0 0 0 0 0 0 0 0 127 0" result="hardAlpha"/>
<feOffset dy="21"/>
<feGaussianBlur stdDeviation="11.5"/>
<feComposite in2="hardAlpha" operator="out"/>
<feColorMatrix type="matrix" values="0 0 0 0 0 0 0 0 0 0 0 0 0 0 0 0 0 0 0.25 0"/>
<feBlend mode="normal" in2="BackgroundImageFix" result="effect1_dropShadow_113_99"/>
<feBlend mode="normal" in="SourceGraphic" in2="effect1_dropShadow_113_99" result="shape"/>
</filter>
<filter id="filter1_d_113_99" x="3649.49" y="693.101" width="414.559" height="503.811" filterUnits="userSpaceOnUse" color-interpolation-filters="sRGB">
<feFlood flood-opacity="0" result="BackgroundImageFix"/>
<feColorMatrix in="SourceAlpha" type="matrix" values="0 0 0 0 0 0 0 0 0 0 0 0 0 0 0 0 0 0 127 0" result="hardAlpha"/>
<feOffset dy="21"/>
<feGaussianBlur stdDeviation="11.5"/>
<feComposite in2="hardAlpha" operator="out"/>
<feColorMatrix type="matrix" values="0 0 0 0 0 0 0 0 0 0 0 0 0 0 0 0 0 0 0.25 0"/>
<feBlend mode="normal" in2="BackgroundImageFix" result="effect1_dropShadow_113_99"/>
<feBlend mode="normal" in="SourceGraphic" in2="effect1_dropShadow_113_99" result="shape"/>
</filter>
</defs>
</svg>
