<svg width="370" height="253" viewBox="0 0 370 253" fill="none" xmlns="http://www.w3.org/2000/svg">
<g filter="url(#filter0_d_111_94)">
<path d="M144.108 21C142.51 31.8736 128.146 39.3193 119.417 47.2756C102.704 62.5102 84.3493 75.5205 65.9209 89.4549C54.4327 98.1416 38.1548 108.878 33 120.571" stroke="white" stroke-width="18" stroke-linecap="round"/>
<path d="M149.399 107.582C191.025 107.582 232.833 108.55 274.462 107.582C287.053 107.289 298.775 102.17 311.74 102.17C319.857 102.17 327.974 102.17 336.091 102.17" stroke="white" stroke-width="18" stroke-linecap="round"/>
<path d="M33 120.571C44.2022 138.923 78.8094 151.188 99.299 162.75C110.34 168.98 117.163 176.982 126.733 183.494C136.938 190.439 153.891 197.598 160.568 207.695" stroke="white" stroke-width="18" stroke-linecap="round"/>
</g>
<defs>
<filter id="filter0_d_111_94" x="-0.00195312" y="-0.00119114" width="369.093" height="252.697" filterUnits="userSpaceOnUse" color-interpolation-filters="sRGB">
<feFlood flood-opacity="0" result="BackgroundImageFix"/>
<feColorMatrix in="SourceAlpha" type="matrix" values="0 0 0 0 0 0 0 0 0 0 0 0 0 0 0 0 0 0 127 0" result="hardAlpha"/>
<feOffset dy="12"/>
<feGaussianBlur stdDeviation="12"/>
<feComposite in2="hardAlpha" operator="out"/>
<feColorMatrix type="matrix" values="0 0 0 0 1 0 0 0 0 1 0 0 0 0 1 0 0 0 0.59 0"/>
<feBlend mode="normal" in2="BackgroundImageFix" result="effect1_dropShadow_111_94"/>
<feBlend mode="normal" in="SourceGraphic" in2="effect1_dropShadow_111_94" result="shape"/>
</filter>
</defs>
</svg>
