<svg width="338" height="224" viewBox="0 0 338 224" fill="none" xmlns="http://www.w3.org/2000/svg">
<g filter="url(#filter0_d_111_94)">
<path d="M128.108 9C126.51 19.8736 112.146 27.3193 103.417 35.2756C86.7037 50.5102 68.3493 63.5205 49.9209 77.4549C38.4327 86.1416 22.1548 96.8775 17 108.571" stroke="white" stroke-width="18" stroke-linecap="round"/>
<path d="M133.399 95.5817C175.025 95.5817 216.833 96.5498 258.462 95.5817C271.053 95.2889 282.775 90.1703 295.74 90.1703C303.857 90.1703 311.974 90.1703 320.091 90.1703" stroke="white" stroke-width="18" stroke-linecap="round"/>
<path d="M17 108.571C28.2022 126.923 62.8094 139.188 83.299 150.75C94.3401 156.98 101.163 164.982 110.733 171.494C120.938 178.439 137.891 185.598 144.568 195.695" stroke="white" stroke-width="18" stroke-linecap="round"/>
</g>
<defs>
<filter id="filter0_d_111_94" x="-0.00195312" y="-0.00119019" width="337.093" height="223.697" filterUnits="userSpaceOnUse" color-interpolation-filters="sRGB">
<feFlood flood-opacity="0" result="BackgroundImageFix"/>
<feColorMatrix in="SourceAlpha" type="matrix" values="0 0 0 0 0 0 0 0 0 0 0 0 0 0 0 0 0 0 127 0" result="hardAlpha"/>
<feOffset dy="11"/>
<feGaussianBlur stdDeviation="4"/>
<feComposite in2="hardAlpha" operator="out"/>
<feColorMatrix type="matrix" values="0 0 0 0 1 0 0 0 0 1 0 0 0 0 1 0 0 0 0.37 0"/>
<feBlend mode="normal" in2="BackgroundImageFix" result="effect1_dropShadow_111_94"/>
<feBlend mode="normal" in="SourceGraphic" in2="effect1_dropShadow_111_94" result="shape"/>
</filter>
</defs>
</svg>
