<svg width="322" height="205" viewBox="0 0 322 205" fill="none" xmlns="http://www.w3.org/2000/svg">
<path d="M120.108 9C118.51 19.8736 104.146 27.3193 95.4173 35.2756C78.7037 50.5102 60.3493 63.5205 41.9209 77.4549C30.4327 86.1416 14.1548 96.8775 9 108.571" stroke="white" stroke-width="18" stroke-linecap="round"/>
<path d="M125.399 95.5817C167.025 95.5817 208.833 96.5498 250.462 95.5817C263.053 95.2889 274.775 90.1703 287.74 90.1703C295.857 90.1703 303.974 90.1703 312.091 90.1703" stroke="white" stroke-width="18" stroke-linecap="round"/>
<path d="M9 108.571C20.2022 126.923 54.8094 139.188 75.299 150.75C86.3401 156.98 93.1633 164.982 102.733 171.494C112.938 178.439 129.891 185.598 136.568 195.695" stroke="white" stroke-width="18" stroke-linecap="round"/>
</svg>
