<svg width="5433" height="1216" viewBox="0 0 5433 1216" fill="none" xmlns="http://www.w3.org/2000/svg">
<g filter="url(#filter0_d_105_9)">
<path d="M3459.23 120.567C3188.93 111.128 2917.67 96.3024 2647.3 93.8991C2099.97 89.0338 1550.37 121.522 1019.99 207.273C666.617 264.405 130.294 322.907 58.6002 632.062C41.7913 704.545 20.6905 803.29 70.4919 872.612C119.487 940.812 281.924 958.014 373.187 972.074C538.514 997.545 706.84 1007.68 874.797 1015.29C1224.02 1031.1 1574.86 1041.63 1924.27 1041.83C2700.37 1042.26 3484.62 999.377 4237.38 875.727C4607.28 814.965 5062.23 745.886 5330.53 540.218C5373.71 507.115 5417.45 455.635 5378.08 409.173C5346.08 371.417 5274.8 341.539 5223.62 320.364C5048.62 247.969 4847.54 220.117 4652.11 193.82C4363.43 154.975 4072.93 134.364 3780.38 135.995C3365.91 138.305 3003.36 220.747 2619.21 317.044C2515.21 343.114 2411.61 363.741 2313.17 399.04C2288.05 408.047 2247.8 416.555 2234.35 434.204" stroke="#F4F6E3" stroke-width="18" stroke-linecap="round"/>
</g>
<g filter="url(#filter1_d_105_9)">
<path d="M3907.23 1126.13C3906.37 1123.19 3904.23 1119.55 3902.9 1116.83C3902.02 1115.02 3898.8 1111.35 3896.97 1110.35C3893.91 1108.68 3894.2 1102.09 3893.62 1098.83C3892.79 1094.12 3889.04 1090.08 3886.33 1086.25C3882.41 1080.71 3878.86 1074.13 3873.18 1070.15C3869.83 1067.8 3866.44 1063.89 3863.63 1060.85C3859.71 1056.6 3855.44 1053.51 3850.33 1050.79C3845.26 1048.09 3839.06 1045.51 3834.42 1042.26C3831.27 1040.06 3829.08 1036.59 3825.65 1034.67C3819.41 1031.17 3811.04 1023.97 3803.22 1024.9C3801.72 1025.08 3798.7 1024.28 3797.11 1024.03C3794.56 1023.62 3791.69 1023.42 3789.19 1022.59C3784.53 1021.05 3778.56 1021.4 3773.51 1020.91C3767.74 1020.35 3763.01 1020.67 3757.37 1019.12C3755.75 1018.67 3753.42 1019.18 3751.68 1019C3749.66 1018.79 3747.95 1017.2 3745.65 1017.47C3741.26 1017.98 3735.05 1014.32 3730.8 1013.06C3726.24 1011.7 3721.66 1010 3718.25 1006.67C3715.77 1004.26 3713.05 1003.39 3710.97 1000.29C3709.56 998.202 3706.45 994.602 3706.05 992.364C3705.38 988.54 3697.6 974.074 3703.52 973.029C3710.34 971.826 3712.08 965.366 3718.24 964.279C3721.77 963.657 3724.81 961.303 3728.03 959.965C3730.74 958.843 3733.23 958.12 3736.4 957.561C3742.8 956.434 3749.19 955.306 3755.59 954.178C3759.07 953.564 3763.75 954.156 3767.28 954.559C3771.42 955.031 3775.07 954.011 3779.21 953.53C3781.46 953.268 3785.23 954.595 3787.77 954.707C3790.82 954.842 3794.55 954.112 3797.51 955.137C3800.77 956.263 3803.86 956.217 3807.27 955.615C3812.74 954.65 3808.32 951.886 3806.71 949.95C3804.35 947.111 3799.54 946.398 3798.32 942.248C3797.98 941.091 3796.51 938.95 3795.44 938.36C3794.45 937.823 3794.38 935.297 3793.59 934.289C3788.78 928.106 3785.79 920.692 3783.47 913.167C3780.25 902.721 3773.04 893.593 3771.11 882.672C3770.39 878.604 3767.19 872.326 3764.36 869.307C3763.53 868.431 3761.57 868.479 3761.37 867.295C3760.91 864.706 3760.45 862.116 3760 859.526C3759.29 855.508 3757.31 851.613 3756.1 847.662C3754.37 842.075 3750.74 836.953 3749.73 831.249C3748.89 826.481 3748.05 821.712 3747.21 816.944C3746.92 815.301 3746.63 813.659 3746.34 812.017C3745.94 809.724 3747.75 810.037 3747.38 807.927C3746.96 805.556 3748.5 802.789 3748.61 800.237C3748.74 797.286 3750.8 793.902 3752.86 791.625C3754.32 790.011 3753.62 788.571 3754.34 786.478C3754.79 785.177 3756.38 784.13 3757.04 782.926C3757.49 782.108 3759.39 780.39 3760.26 780.16C3762.09 779.679 3763.66 776.854 3764.95 775.426C3766.47 773.738 3770.39 772.22 3772.66 771.819C3777.11 771.035 3779.01 770.135 3782.49 772.723C3784.45 774.176 3786.73 776.893 3789.04 777.723C3791.98 778.776 3792.91 782.371 3795.33 783.207C3797.15 783.836 3801.42 787.413 3802.15 789.478C3802.56 790.635 3804.92 792.752 3805.92 793.649C3807.33 794.925 3806.4 797.148 3807.91 798.328C3809.6 799.646 3811.91 804.955 3812.28 807.033C3812.95 810.823 3815.4 815.224 3817.17 818.675C3819.63 823.486 3821.8 829.369 3824.54 833.884C3828.33 840.132 3828.63 848.176 3832.09 854.58C3834.04 858.173 3834.53 862.382 3836.08 866.135C3837.21 868.837 3839.09 871.454 3839.91 874.252C3840.78 877.211 3842.26 879.768 3844.02 882.319C3845.6 884.621 3845.89 887.964 3847.58 890.044C3850.36 893.471 3850.98 898.947 3853.11 902.89C3854.85 906.099 3857.42 908.631 3859.54 911.623C3861 913.687 3863.87 920.136 3862.67 913.318C3862.07 909.907 3861.47 906.496 3860.87 903.086C3860.57 901.417 3857.88 892.556 3859.19 891.074C3859.99 890.165 3863.18 886.309 3863.05 885.557C3862.05 879.872 3878.1 875.686 3881.12 873.336C3883.62 871.384 3888.23 870.127 3891.44 869.562C3893.57 869.186 3895.7 868.81 3897.84 868.434C3899.79 868.089 3901.31 869.253 3903.24 869.19C3905.11 869.129 3910.57 872.536 3912.06 874.327C3913.3 875.82 3916.25 879.738 3917.83 879.903C3918.62 879.985 3918.83 882.218 3920.01 882.01C3920.24 881.968 3921.28 879.403 3922.56 879.02C3923.84 878.637 3923.78 877.047 3925.24 876.789C3926.99 876.481 3928.2 875.48 3929.78 875.109C3939.65 872.799 3949.02 869.896 3959.3 870.783C3965.51 871.319 3972.73 874.873 3976.57 880.048C3977.59 881.424 3982.9 888.493 3982.39 884.295C3982.11 881.903 3988.54 880.574 3990.47 880.233C3997.98 878.909 4007.07 880.146 4012.98 885.494C4014.48 886.848 4016.37 887.633 4017.91 889.023C4019.3 890.286 4019.95 892.024 4021.07 893.105C4024.71 896.62 4027.56 901.092 4030.87 904.954C4032.5 906.849 4034.93 913.015 4035.35 915.398C4036.1 919.661 4036.86 923.924 4037.61 928.188C4039.21 937.279 4036.79 947.398 4032.7 955.477C4030.39 960.042 4029.78 965.298 4027.58 969.909C4026.12 972.954 4026.84 976.293 4025.93 979.383C4025.14 982.027 4024.35 982.641 4024.88 985.624C4025.66 990.054 4023.2 994.931 4023.87 999.868C4024.44 1004.01 4021.74 1007.73 4022.45 1011.74C4022.76 1013.51 4021.91 1014.74 4021.72 1016.46C4021.48 1018.55 4022.33 1021.05 4022.7 1023.13C4023.42 1027.23 4024.15 1031.34 4024.87 1035.44C4025.56 1039.38 4026.73 1043.44 4029.09 1046.62C4030.39 1048.38 4032.45 1049.92 4033.08 1052.07C4033.57 1053.76 4032.86 1052.11 4030.94 1052.44C4023.8 1053.7 4015.45 1052.56 4009.31 1058.02C4002.87 1063.74 3995.06 1067.93 3988.46 1073.51C3985.71 1075.84 3982.58 1078.58 3979.7 1080.63C3977.19 1082.4 3971.78 1084.89 3970.59 1087.7C3969.3 1090.76 3961.1 1094.8 3958.34 1096.9C3955.95 1098.71 3953.78 1100.79 3951.38 1102.57C3949.9 1103.66 3949.06 1105.59 3947.53 1106.52C3946.48 1107.16 3945.27 1106.8 3944.69 1108.1C3942.9 1112 3937.61 1114.77 3934.63 1117.29C3931.62 1119.85 3927.21 1121.98 3923.42 1123.23C3920.03 1124.33 3905.18 1124.46 3905.89 1128.51C3906.72 1133.22 3906.79 1139.36 3908.64 1143.81C3909.04 1144.79 3915.42 1142.27 3916.63 1142.05C3922.59 1141 3929.5 1140.54 3934.16 1136.77C3938.74 1133.05 3946.77 1131.09 3950.14 1126.28C3951.51 1124.32 3955.2 1123.7 3957.08 1122.17C3959.59 1120.14 3960.9 1118.75 3963.32 1117.12C3969.3 1113.09 3974.03 1108.1 3979.87 1104.33C3982.5 1102.63 3985.24 1101.14 3987.8 1099.42C3988.8 1098.75 3989.46 1097.03 3990.42 1096.56C3991.59 1096 3993.83 1095.78 3994.68 1094.69C3997.94 1090.51 4004.72 1084.73 4009.88 1082.58C4018.11 1079.17 4024.18 1072.98 4033.35 1071.36C4035.38 1071 4041.03 1069.7 4039 1066.85C4037.72 1065.04 4036.06 1063.56 4034.72 1061.94C4033.87 1060.92 4031.34 1061.01 4030.87 1059.49C4030.5 1058.3 4023.75 1056.72 4022.41 1056.39C4019.23 1055.6 4015.87 1055.1 4012.61 1055.68" stroke="#F4F6E3" stroke-width="18" stroke-linecap="round"/>
<path d="M3701.22 833.691C3702.51 833.465 3702.91 832.116 3703.89 831.636C3704.46 831.358 3705.22 831.535 3705.79 831.257C3706.26 831.029 3706.67 830.466 3707.21 830.203C3708.35 829.649 3709.23 828.263 3710.47 828.045C3711.16 827.923 3713.21 826.616 3713.73 826.042C3715.65 823.911 3719.6 824.213 3721.37 822.195C3722.01 821.468 3724.25 821.197 3725.18 821.032C3726.71 820.763 3728.24 820.493 3729.77 820.224" stroke="#F4F6E3" stroke-width="18" stroke-linecap="round"/>
<path d="M3688.88 779.643C3693.34 778.856 3697.87 778.46 3702.38 778.779C3706.63 779.079 3710.37 780.762 3714.49 781.53C3715.86 781.785 3716.92 782.575 3718.3 782.488C3719.2 782.43 3720.06 783.584 3721.06 783.628C3722.88 783.709 3724.93 786.138 3726.91 785.788" stroke="#F4F6E3" stroke-width="18" stroke-linecap="round"/>
<path d="M3720.27 729.931C3720.89 729.974 3723.31 732.699 3723.99 733.291C3725.02 734.184 3726.18 735.27 3727.35 735.911C3729.85 737.279 3730.61 740.717 3732.55 742.625C3733.66 743.709 3733.82 745.054 3734.62 746.254C3735.65 747.797 3736.48 749.261 3736.86 751.103C3737.18 752.662 3738.92 753.705 3739.21 755.307C3739.35 756.128 3739.62 757.461 3740.43 757.701" stroke="#F4F6E3" stroke-width="18" stroke-linecap="round"/>
<path d="M3780.46 704.221C3781.15 708.151 3780.01 712.225 3780.67 715.984C3780.96 717.632 3780.63 719.288 3780.94 721.043C3781.37 723.475 3779.23 725.428 3779.63 727.725C3780.38 731.948 3778.59 735.896 3779.33 740.096C3779.66 741.933 3777.5 745.576 3776.13 746.595" stroke="#F4F6E3" stroke-width="18" stroke-linecap="round"/>
<path d="M3830.55 738.241C3826.59 741.897 3822.59 745.523 3818.07 748.48C3815.06 750.451 3811.99 752.169 3809.37 754.673C3807.7 756.262 3806.15 758.379 3804.27 759.642C3803.21 760.359 3802.59 762.384 3801.42 763.25" stroke="#F4F6E3" stroke-width="18" stroke-linecap="round"/>
</g>
<path d="M774.856 665.784C764.064 665.784 760.872 661.832 755.552 653.624C754.032 651.192 752.36 649.064 750.384 646.936C744 639.944 740.048 630.824 733.36 624.288C731.84 622.768 730.168 621.856 727.888 621.856C720.592 621.856 720.136 630.52 720.136 635.536C720.136 642.072 720.896 648.608 720.896 655.144C720.896 664.568 719.68 667.152 709.04 667.152C704.48 667.152 696.88 665.936 696.88 660.464C696.88 651.192 698.096 642.072 698.248 632.952C698.4 623.832 698.704 615.016 698.704 605.896C698.704 603.616 698.704 601.488 698.704 599.208L698.4 585.528C698.4 583.248 698.4 580.968 698.4 578.688C698.4 571.696 699.464 571.088 706.608 570.176C707.976 570.024 709.192 569.72 710.56 569.72C720.44 569.72 724.696 576.712 729.256 583.704C732.6 588.872 750.84 612.888 756.464 612.888C759.352 612.888 762.088 610.912 762.088 608.024C762.088 601.792 760.872 574.736 762.848 571.24C765.28 567.136 771.512 566.68 776.072 566.68C788.08 566.68 788.536 574.888 788.536 583.856C788.536 587.504 788.08 591 788.08 594.648C788.08 604.376 790.056 614.104 790.056 623.832C790.056 624.896 790.056 625.808 790.056 626.72L789.752 632.496C789.752 633.408 789.752 634.32 789.752 635.384C789.752 642.528 791.272 649.368 791.272 656.512C791.272 664.264 781.24 665.784 774.856 665.784ZM923.508 620.64V620.944C922.444 639.488 914.54 651.496 896.756 659.856C886.724 664.568 875.476 667 864.228 667C832.916 667 809.508 650.128 809.508 619.272C809.508 591.304 835.044 566.68 864.836 566.68C876.388 566.68 890.676 569.264 900.1 575.8C916.972 587.504 923.812 597.688 923.812 617.6C923.812 618.512 923.964 619.88 923.508 620.64ZM868.332 648C886.572 648 898.276 638.272 902.532 621.856L902.684 621.552V621.4V614.864C902.684 610.456 902.228 605.44 900.708 601.488C896.3 590.088 879.732 586.136 868.332 586.136C847.66 586.136 831.548 601.336 831.548 620.792C831.548 640.248 850.396 648 868.332 648ZM1046.16 660.768C1042.51 665.632 1040.84 666.24 1034.6 666.24C1023.51 666.24 1023.96 663.048 1019.1 655.448C1015.45 649.824 1015 638.576 1005.42 638.576C989.156 638.576 999.34 666.848 979.124 666.848C976.996 666.848 973.804 666.696 971.828 665.936C964.076 663.352 940.82 593.584 937.476 582.184C936.716 579.6 935.348 576.864 935.348 574.28C935.348 568.352 945.988 567.592 950.548 567.592C954.956 567.592 957.084 567.896 959.516 571.544C961.644 574.888 962.252 578.84 963.772 582.488C967.724 591.152 970.156 604.528 974.716 612.128C975.932 614.104 977.756 615.32 980.188 615.32C990.372 615.32 984.596 589.632 1008.16 589.632C1016.06 589.632 1020.01 596.016 1022.9 601.944C1024.42 605.136 1027.16 607.72 1028.37 610.912C1028.83 612.128 1028.98 613.496 1029.59 614.712C1030.65 616.84 1032.32 617.904 1034.91 617.904C1037.64 617.904 1039.16 616.84 1040.38 614.56C1044.79 605.592 1052.24 571.392 1059.53 567.896C1061.66 566.68 1067.74 566.68 1070.32 566.68C1075.04 566.68 1080.05 567.288 1080.05 572.912C1080.05 577.928 1046.92 660.464 1046.16 660.768ZM1108.43 651.952L1108.28 652.256C1107.98 653.016 1093.69 675.208 1089.89 675.512C1088.22 675.664 1086.24 675.208 1083.96 673.992C1080.31 672.168 1080.92 670.04 1082.14 667.152C1082.29 666.696 1082.44 666.088 1082.59 665.632C1083.05 664.112 1083.51 662.744 1083.96 661.376C1084.72 659.248 1085.33 657.12 1085.94 654.84C1088.22 647.24 1092.02 643.592 1094.6 643.44C1095.06 643.288 1100.23 643.44 1106.15 646.784C1108.43 648 1108.59 649.216 1108.74 649.824C1109.04 650.432 1108.74 651.192 1108.43 651.952ZM1213.84 667C1211.56 667 1209.43 667 1207.15 667L1193.62 666.696C1191.5 666.544 1189.22 666.544 1186.94 666.544C1168.09 666.544 1165.5 665.48 1165.5 646.176C1165.2 624.592 1163.83 602.856 1163.83 581.272C1163.83 577.928 1163.68 571.848 1167.48 570.024L1168.24 569.264C1171.89 567.744 1175.99 566.68 1179.94 566.68C1186.78 566.68 1190.74 570.024 1190.74 576.56C1190.74 583.4 1189.67 590.392 1189.67 597.536C1189.67 610.152 1190.58 623.072 1191.34 635.688C1191.65 641.616 1197.27 645.112 1203.05 645.112C1214.45 645.112 1225.7 643.592 1237.1 643.592C1243.78 643.592 1245.91 650.736 1245.91 655.904C1245.91 660.768 1244.7 666.088 1238.46 666.088C1230.26 666.088 1222.2 667 1213.84 667ZM1316.69 666.392C1306.96 666.392 1297.38 667 1287.66 667C1277.32 667 1266.83 665.48 1265.31 653.928C1263.49 640.552 1262.73 627.024 1262.73 613.496C1262.73 601.488 1262.42 580.968 1270.02 570.936C1273.22 566.832 1307.72 566.984 1313.04 566.984C1314.26 566.984 1315.32 566.984 1316.54 566.984L1323.38 567.136C1324.59 567.136 1325.81 567.136 1326.87 567.136C1334.93 567.136 1352.56 564.856 1352.56 576.408C1352.56 587.352 1346.18 587.504 1336.75 587.504C1322.77 587.504 1306.66 586.896 1292.98 590.088C1287.66 591.152 1287.05 596.624 1287.05 601.184C1287.05 604.68 1289.94 606.96 1293.58 606.96H1319.73C1329.15 606.96 1339.49 604.832 1339.49 617.752C1339.49 634.016 1288.72 620.944 1288.72 635.08C1288.72 639.944 1288.42 647.848 1295.86 647.848C1311.52 647.848 1327.18 645.112 1342.68 645.112C1350.58 645.112 1353.78 649.824 1353.78 656.968C1353.78 665.328 1343.14 666.088 1336.45 666.088C1329.91 666.088 1323.38 666.392 1316.69 666.392ZM1417.21 667C1409.3 667 1403.98 665.024 1403.98 656.816C1403.98 644.504 1405.81 631.128 1405.81 618.512C1405.81 613.952 1404.44 588.872 1400.64 588.872C1393.49 588.872 1386.5 589.632 1379.36 589.632C1370.54 589.632 1365.22 589.632 1365.22 579.448C1365.22 574.888 1366.74 569.872 1372.06 568.656C1377.38 567.592 1386.5 567.896 1392.28 567.744C1409.76 567.136 1427.09 566.68 1444.57 566.68L1449.28 566.832C1450.19 566.832 1450.95 566.832 1451.71 566.832C1461.59 566.832 1466.3 567.44 1466.3 578.08C1466.3 580.208 1465.85 582.488 1464.33 584.16C1462.05 586.896 1454.45 586.136 1447.15 586.136C1438.79 586.136 1430.58 587.2 1430.58 595.408C1430.58 611.976 1432.71 628.696 1432.71 645.264C1432.71 657.12 1432.25 667 1417.21 667ZM1484.37 590.696C1480.88 589.176 1476.01 575.192 1475.56 570.48C1475.41 567.136 1484.07 563.64 1488.33 564.704C1489.39 564.856 1490.15 565.464 1490.61 566.224C1492.12 569.72 1494.25 584.464 1493.19 586.288C1491.97 589.632 1487.26 591.912 1484.37 590.696ZM1530 596.168C1530 605.44 1558.72 608.784 1565.11 609.544C1581.22 611.52 1596.72 617.904 1596.72 635.536C1596.72 647.544 1588.52 657.576 1577.42 662.592C1569.06 666.392 1560.09 667 1550.82 667C1540.64 667 1509.02 666.24 1509.02 652.408C1509.02 646.024 1514.04 639.488 1521.18 639.488C1531.36 639.488 1540.94 646.48 1552.64 646.48C1559.03 646.48 1570.12 644.048 1570.12 636.144C1570.12 632.8 1567.24 630.216 1564.5 628.24C1559.64 625.2 1552.64 625.96 1547.02 625.352C1528.48 623.072 1504.31 621.096 1504.31 597.992C1504.31 582.792 1518.75 571.696 1533.34 568.2C1534.71 567.136 1548.69 566.68 1550.82 566.68C1562.37 566.68 1584.87 568.808 1584.87 583.704C1584.87 589.784 1578.48 594.952 1572.25 594.952C1565.41 594.952 1558.12 588.112 1546.11 588.112C1541.24 588.112 1530 589.784 1530 596.168ZM1706.93 566.68C1718.33 566.68 1725.93 569.72 1735.65 574.736C1739.45 576.712 1743.71 578.384 1743.71 583.248C1743.71 589.632 1736.72 594.648 1730.33 594.648C1722.43 594.648 1714.98 588.112 1704.65 588.112C1687.32 588.112 1674.09 604.072 1674.09 619.88C1674.09 635.992 1688.38 643.896 1703.89 643.896C1710.42 643.896 1716.96 642.832 1723.19 641.16C1724.71 640.704 1726.08 640.552 1727.6 640.552C1734.13 640.552 1739.91 644.808 1739.91 651.192C1739.91 662.592 1727.9 663.504 1718.93 665.024C1712.55 665.936 1706.17 666.848 1699.78 666.848C1695.83 666.848 1692.33 666.24 1688.53 665.936C1678.96 665.176 1671.36 664.264 1663.76 658.032C1652.97 648.912 1649.93 633.256 1649.93 620.336C1649.93 616.992 1650.08 613.496 1650.53 610.152C1654.03 584.464 1680.48 566.68 1706.93 566.68ZM1840.08 566.68C1847.83 566.68 1851.48 568.2 1851.48 576.104C1851.48 578.384 1851.48 580.816 1851.63 583.096C1853.15 608.328 1855.59 633.408 1855.59 658.792C1855.59 666.24 1848.9 666.848 1842.67 666.848C1840.39 666.848 1837.95 666.696 1835.83 666.24C1828.07 664.872 1830.35 643.744 1828.53 636.6C1826.25 627.784 1817.28 626.112 1808.92 626.112C1806.49 626.112 1804.21 626.264 1801.78 626.568C1794.94 627.328 1784.45 626.264 1784.45 635.536C1784.45 640.248 1784.91 644.808 1784.91 649.52C1784.91 660.768 1784.6 667 1770.77 667C1759.83 667 1758.76 662.288 1758.76 653.168C1758.76 630.216 1757.39 607.112 1757.39 584.008C1757.39 574.432 1758.76 566.984 1770.92 566.984C1784.45 566.984 1783.99 571.848 1783.99 582.944C1783.99 591.76 1780.04 608.176 1793.42 608.176C1801.78 608.176 1810.29 607.416 1818.65 607.416C1822.91 607.416 1827.62 604.224 1827.62 599.968C1827.62 592.976 1827.01 586.288 1827.01 579.448C1827.01 577.624 1827.01 571.544 1828.53 570.328C1831.11 567.288 1836.28 566.68 1840.08 566.68ZM1931.66 666.392C1921.94 666.392 1912.36 667 1902.63 667C1892.3 667 1881.81 665.48 1880.29 653.928C1878.46 640.552 1877.7 627.024 1877.7 613.496C1877.7 601.488 1877.4 580.968 1885 570.936C1888.19 566.832 1922.7 566.984 1928.02 566.984C1929.23 566.984 1930.3 566.984 1931.51 566.984L1938.35 567.136C1939.57 567.136 1940.78 567.136 1941.85 567.136C1949.9 567.136 1967.54 564.856 1967.54 576.408C1967.54 587.352 1961.15 587.504 1951.73 587.504C1937.74 587.504 1921.63 586.896 1907.95 590.088C1902.63 591.152 1902.02 596.624 1902.02 601.184C1902.02 604.68 1904.91 606.96 1908.56 606.96H1934.7C1944.13 606.96 1954.46 604.832 1954.46 617.752C1954.46 634.016 1903.7 620.944 1903.7 635.08C1903.7 639.944 1903.39 647.848 1910.84 647.848C1926.5 647.848 1942.15 645.112 1957.66 645.112C1965.56 645.112 1968.75 649.824 1968.75 656.968C1968.75 665.328 1958.11 666.088 1951.42 666.088C1944.89 666.088 1938.35 666.392 1931.66 666.392ZM2036.9 566.68C2048.3 566.68 2055.9 569.72 2065.63 574.736C2069.43 576.712 2073.69 578.384 2073.69 583.248C2073.69 589.632 2066.69 594.648 2060.31 594.648C2052.41 594.648 2044.96 588.112 2034.62 588.112C2017.29 588.112 2004.07 604.072 2004.07 619.88C2004.07 635.992 2018.36 643.896 2033.86 643.896C2040.4 643.896 2046.93 642.832 2053.17 641.16C2054.69 640.704 2056.05 640.552 2057.57 640.552C2064.11 640.552 2069.89 644.808 2069.89 651.192C2069.89 662.592 2057.88 663.504 2048.91 665.024C2042.53 665.936 2036.14 666.848 2029.76 666.848C2025.81 666.848 2022.31 666.24 2018.51 665.936C2008.93 665.176 2001.33 664.264 1993.73 658.032C1982.94 648.912 1979.9 633.256 1979.9 620.336C1979.9 616.992 1980.05 613.496 1980.51 610.152C1984.01 584.464 2010.45 566.68 2036.9 566.68ZM2164.28 666.544H2161.7C2145.89 666.24 2143 633.712 2128.56 633.712C2123.09 633.712 2117.92 637.056 2117.92 642.528C2117.92 647.392 2119.6 652.104 2119.6 656.968C2119.6 660.464 2118.68 662.288 2115.8 664.264C2114.58 666.544 2105.61 667 2103.33 667C2100.9 667 2095.43 666.848 2093.91 664.72C2090.87 660.616 2091.02 642.072 2091.02 636.752C2091.02 627.024 2091.63 617.144 2091.63 607.416C2091.63 598.144 2090.41 589.176 2090.41 580.056C2090.41 568.504 2093.76 566.68 2106.07 566.68C2107.44 566.68 2109.11 566.68 2110.48 566.984C2118.53 568.96 2118.38 587.2 2118.38 592.824C2118.38 597.232 2122.48 600.12 2126.89 600.12C2135.71 600.12 2153.8 577.472 2160.48 571.544C2162.92 569.416 2166.41 568.048 2169.91 568.048C2174.77 568.048 2182.68 572.456 2182.68 577.624C2182.68 582.488 2177.81 586.744 2174.16 589.48C2167.02 594.8 2158.2 603.464 2151.52 609.848C2150.6 610.456 2150.15 611.52 2150.15 612.736C2150.15 615.168 2172.34 648.304 2175.23 652.864C2176.6 654.84 2177.81 655.296 2177.81 658.032C2177.81 663.504 2169.15 666.544 2164.28 666.544ZM2351.33 620.64V620.944C2350.26 639.488 2342.36 651.496 2324.58 659.856C2314.54 664.568 2303.3 667 2292.05 667C2260.74 667 2237.33 650.128 2237.33 619.272C2237.33 591.304 2262.86 566.68 2292.66 566.68C2304.21 566.68 2318.5 569.264 2327.92 575.8C2344.79 587.504 2351.63 597.688 2351.63 617.6C2351.63 618.512 2351.78 619.88 2351.33 620.64ZM2296.15 648C2314.39 648 2326.1 638.272 2330.35 621.856L2330.5 621.552V621.4V614.864C2330.5 610.456 2330.05 605.44 2328.53 601.488C2324.12 590.088 2307.55 586.136 2296.15 586.136C2275.48 586.136 2259.37 601.336 2259.37 620.792C2259.37 640.248 2278.22 648 2296.15 648ZM2455.64 566.832C2470.54 566.832 2471.6 577.472 2471.6 588.568C2471.6 598.144 2470.08 607.568 2470.08 617.144C2470.08 617.904 2470.08 618.512 2470.08 619.272L2470.54 623.528C2470.54 637.816 2466.13 655.296 2451.08 660.768C2442.42 664.112 2431.63 667 2422.2 667C2420.68 667 2418.86 666.544 2417.34 666.696L2416.88 667C2415.82 667.152 2415.52 666.696 2414.6 666.544C2378.73 661.376 2369.92 645.568 2369.92 613.8C2369.92 604.984 2370.07 596.016 2370.07 587.352C2370.07 581.728 2370.22 570.48 2376.76 568.048C2379.34 567.136 2382.68 566.68 2385.42 566.68C2391.8 566.68 2397.58 570.176 2397.58 576.56C2397.58 589.328 2396.06 602.248 2396.06 615.016C2396.06 633.104 2401.08 648.76 2422.81 648.76C2445.61 648.76 2445.16 629 2445.16 612.888C2445.16 602.856 2444.4 592.976 2443.64 582.944C2443.48 580.512 2442.42 578.08 2442.42 575.648C2442.42 569.112 2449.87 566.832 2455.64 566.832ZM2540.14 667C2532.23 667 2526.91 665.024 2526.91 656.816C2526.91 644.504 2528.74 631.128 2528.74 618.512C2528.74 613.952 2527.37 588.872 2523.57 588.872C2516.42 588.872 2509.43 589.632 2502.29 589.632C2493.47 589.632 2488.15 589.632 2488.15 579.448C2488.15 574.888 2489.67 569.872 2494.99 568.656C2500.31 567.592 2509.43 567.896 2515.21 567.744C2532.69 567.136 2550.02 566.68 2567.5 566.68L2572.21 566.832C2573.12 566.832 2573.88 566.832 2574.64 566.832C2584.52 566.832 2589.23 567.44 2589.23 578.08C2589.23 580.208 2588.78 582.488 2587.26 584.16C2584.98 586.896 2577.38 586.136 2570.08 586.136C2561.72 586.136 2553.51 587.2 2553.51 595.408C2553.51 611.976 2555.64 628.696 2555.64 645.264C2555.64 657.12 2555.18 667 2540.14 667ZM2727.65 618.512C2721.88 618.512 2712.76 640.4 2701.36 640.4C2691.78 640.4 2685.09 620.792 2678.56 620.792C2676.28 620.792 2673.84 622.312 2673.84 624.744C2673.84 632.344 2675.67 639.944 2675.67 647.696C2675.67 657.576 2674 665.632 2661.38 665.632C2647.85 665.632 2646.94 655.144 2646.64 644.656C2646.48 637.968 2645.57 631.584 2645.57 625.048C2645.57 619.576 2646.18 614.104 2646.18 608.48C2646.18 598.144 2645.42 587.808 2645.42 577.472C2645.42 570.176 2650.13 567.592 2657.43 567.592C2659.1 567.592 2660.92 567.744 2662.6 568.352C2664.57 568.2 2667.46 569.416 2669.28 570.024V570.176C2677.34 571.392 2688.74 610.456 2703.18 610.456C2709.72 610.456 2713.52 600.272 2715.8 595.408C2717.47 592.064 2730.54 568.96 2733.43 567.744C2735.86 566.68 2742.09 566.68 2744.98 566.68C2755.77 566.68 2756.68 572.76 2756.68 581.424C2756.68 593.736 2756.99 606.048 2756.99 618.36C2756.99 627.328 2756.53 636.144 2756.53 645.112C2756.53 654.992 2758.81 667 2744.68 667C2737.23 667 2731.3 665.784 2731.3 657.728C2731.3 653.32 2732.21 649.064 2732.21 644.656V622.312C2732.21 619.88 2730.08 618.512 2727.65 618.512ZM2888.59 574.28C2888.59 579.144 2874.3 594.496 2870.35 598.448C2863.66 605.288 2855.45 610.76 2849.52 618.208C2845.57 623.072 2844.2 640.248 2844.2 646.632C2844.2 658.488 2847.09 667 2830.37 667C2818.52 667 2817.76 662.288 2817.76 652.56C2817.76 646.328 2818.52 640.248 2819.73 634.168C2819.88 633.408 2820.04 632.648 2820.04 631.888C2820.04 624.896 2789.94 589.784 2783.4 582.792C2781.12 580.36 2776.56 576.256 2776.56 572.76C2776.56 567.592 2789.18 566.68 2793.13 566.68C2796.02 566.68 2799.52 566.984 2801.64 568.808C2804.23 571.088 2805.75 574.432 2808.03 577.016C2813.04 582.792 2817.91 588.872 2823.08 594.648C2825.51 597.384 2828.7 598.6 2832.5 598.6C2836.45 598.6 2839.49 597.536 2842.23 594.8C2847.85 589.024 2861.53 571.544 2867.46 568.504C2869.44 567.592 2871.72 567.44 2873.84 567.44C2878.4 567.44 2888.59 568.352 2888.59 574.28ZM2993.31 667C2991.03 667 2988.9 667 2986.62 667L2973.09 666.696C2970.97 666.544 2968.69 666.544 2966.41 666.544C2947.56 666.544 2944.97 665.48 2944.97 646.176C2944.67 624.592 2943.3 602.856 2943.3 581.272C2943.3 577.928 2943.15 571.848 2946.95 570.024L2947.71 569.264C2951.36 567.744 2955.46 566.68 2959.41 566.68C2966.25 566.68 2970.21 570.024 2970.21 576.56C2970.21 583.4 2969.14 590.392 2969.14 597.536C2969.14 610.152 2970.05 623.072 2970.81 635.688C2971.12 641.616 2976.74 645.112 2982.52 645.112C2993.92 645.112 3005.17 643.592 3016.57 643.592C3023.25 643.592 3025.38 650.736 3025.38 655.904C3025.38 660.768 3024.17 666.088 3017.93 666.088C3009.73 666.088 3001.67 667 2993.31 667ZM3039 663.2C3039 652.256 3078.22 576.408 3085.36 568.808C3087.34 566.68 3092.2 567.136 3095.09 567.136C3096.46 567.136 3097.98 566.984 3099.35 567.288L3099.8 567.744C3103.76 570.632 3104.52 572.456 3106.19 576.864C3108.92 584.16 3112.88 591 3116.37 597.992C3119.72 604.68 3122.76 611.216 3126.25 617.752C3130.66 626.416 3145.56 648.76 3145.56 656.36C3145.56 663.2 3139.78 667 3132.79 667C3115 667 3122.15 642.072 3100.11 642.072C3092.05 642.072 3079.28 643.288 3071.68 645.72C3069.1 646.632 3066.82 650.28 3066.52 652.864C3065.45 654.232 3064.84 659.856 3063.32 662.592C3060.44 667.76 3050.86 666.848 3045.54 666.848C3042.96 666.848 3039 666.544 3039 663.2ZM3081.41 619.728C3081.41 622.92 3084 624.744 3087.34 624.744C3092.05 624.744 3101.17 624.744 3101.17 618.816C3101.17 617.144 3095.85 606.504 3094.79 604.224C3094.18 603.16 3093.12 602.248 3091.75 602.248C3090.38 602.248 3089.16 603.16 3088.56 604.224C3087.34 606.656 3081.41 617.752 3081.41 619.728ZM3185.1 667C3177.19 667 3171.87 665.024 3171.87 656.816C3171.87 644.504 3173.7 631.128 3173.7 618.512C3173.7 613.952 3172.33 588.872 3168.53 588.872C3161.39 588.872 3154.39 589.632 3147.25 589.632C3138.43 589.632 3133.11 589.632 3133.11 579.448C3133.11 574.888 3134.63 569.872 3139.95 568.656C3145.27 567.592 3154.39 567.896 3160.17 567.744C3177.65 567.136 3194.98 566.68 3212.46 566.68L3217.17 566.832C3218.08 566.832 3218.84 566.832 3219.6 566.832C3229.48 566.832 3234.19 567.44 3234.19 578.08C3234.19 580.208 3233.74 582.488 3232.22 584.16C3229.94 586.896 3222.34 586.136 3215.04 586.136C3206.68 586.136 3198.47 587.2 3198.47 595.408C3198.47 611.976 3200.6 628.696 3200.6 645.264C3200.6 657.12 3200.15 667 3185.1 667ZM3305.01 666.392C3295.28 666.392 3285.7 667 3275.98 667C3265.64 667 3255.15 665.48 3253.63 653.928C3251.81 640.552 3251.05 627.024 3251.05 613.496C3251.05 601.488 3250.74 580.968 3258.34 570.936C3261.54 566.832 3296.04 566.984 3301.36 566.984C3302.58 566.984 3303.64 566.984 3304.86 566.984L3311.7 567.136C3312.91 567.136 3314.13 567.136 3315.19 567.136C3323.25 567.136 3340.88 564.856 3340.88 576.408C3340.88 587.352 3334.5 587.504 3325.07 587.504C3311.09 587.504 3294.98 586.896 3281.3 590.088C3275.98 591.152 3275.37 596.624 3275.37 601.184C3275.37 604.68 3278.26 606.96 3281.9 606.96H3308.05C3317.47 606.96 3327.81 604.832 3327.81 617.752C3327.81 634.016 3277.04 620.944 3277.04 635.08C3277.04 639.944 3276.74 647.848 3284.18 647.848C3299.84 647.848 3315.5 645.112 3331 645.112C3338.9 645.112 3342.1 649.824 3342.1 656.968C3342.1 665.328 3331.46 666.088 3324.77 666.088C3318.23 666.088 3311.7 666.392 3305.01 666.392ZM3380.72 596.168C3380.72 605.44 3409.44 608.784 3415.83 609.544C3431.94 611.52 3447.44 617.904 3447.44 635.536C3447.44 647.544 3439.24 657.576 3428.14 662.592C3419.78 666.392 3410.81 667 3401.54 667C3391.36 667 3359.74 666.24 3359.74 652.408C3359.74 646.024 3364.76 639.488 3371.9 639.488C3382.08 639.488 3391.66 646.48 3403.36 646.48C3409.75 646.48 3420.84 644.048 3420.84 636.144C3420.84 632.8 3417.96 630.216 3415.22 628.24C3410.36 625.2 3403.36 625.96 3397.74 625.352C3379.2 623.072 3355.03 621.096 3355.03 597.992C3355.03 582.792 3369.47 571.696 3384.06 568.2C3385.43 567.136 3399.41 566.68 3401.54 566.68C3413.09 566.68 3435.59 568.808 3435.59 583.704C3435.59 589.784 3429.2 594.952 3422.97 594.952C3416.13 594.952 3408.84 588.112 3396.83 588.112C3391.96 588.112 3380.72 589.784 3380.72 596.168ZM3513.14 667C3505.24 667 3499.92 665.024 3499.92 656.816C3499.92 644.504 3501.74 631.128 3501.74 618.512C3501.74 613.952 3500.38 588.872 3496.58 588.872C3489.43 588.872 3482.44 589.632 3475.3 589.632C3466.48 589.632 3461.16 589.632 3461.16 579.448C3461.16 574.888 3462.68 569.872 3468 568.656C3473.32 567.592 3482.44 567.896 3488.22 567.744C3505.7 567.136 3523.02 566.68 3540.5 566.68L3545.22 566.832C3546.13 566.832 3546.89 566.832 3547.65 566.832C3557.53 566.832 3562.24 567.44 3562.24 578.08C3562.24 580.208 3561.78 582.488 3560.26 584.16C3557.98 586.896 3550.38 586.136 3543.09 586.136C3534.73 586.136 3526.52 587.2 3526.52 595.408C3526.52 611.976 3528.65 628.696 3528.65 645.264C3528.65 657.12 3528.19 667 3513.14 667ZM3618.43 587.2C3618.43 579.904 3619.03 573.368 3627.09 570.176C3633.93 567.44 3651.11 566.68 3658.86 566.68C3688.04 566.68 3711.75 570.632 3711.75 603.616C3711.75 637.968 3683.79 636.6 3655.97 636.6C3643.81 636.6 3645.79 651.04 3645.33 658.792C3645.03 663.048 3645.33 664.568 3640.77 666.088C3637.73 667.152 3633.93 667 3630.59 667C3623.59 667 3619.34 666.696 3619.34 658.64C3619.34 634.928 3618.43 610.912 3618.43 587.2ZM3642.44 605.136C3642.44 611.064 3642.75 618.664 3651.11 618.664C3657.03 618.664 3663.11 617.904 3669.04 617.904C3679.68 617.904 3686.98 615.016 3686.98 603.768C3686.98 589.632 3678.31 585.68 3664.63 585.68C3644.87 585.68 3642.44 586.44 3642.44 605.136ZM3827.3 599.816C3827.3 617.296 3808.75 630.064 3808.75 636.448C3808.75 643.44 3820.15 651.344 3820.15 659.4C3820.15 665.176 3808.75 667 3804.19 667C3801.3 667 3798.42 666.696 3795.83 665.632C3788.69 662.44 3783.22 636.904 3766.34 636.904C3761.63 636.904 3758.59 640.4 3758.59 644.656C3758.59 649.52 3759.05 654.384 3759.05 659.248C3759.05 660.312 3757.98 665.176 3756.62 665.176H3755.7C3753.27 666.696 3747.8 666.696 3744.76 666.696C3737.92 666.696 3733.36 666.696 3732.3 659.096C3731.54 654.232 3731.54 649.368 3731.54 644.504C3731.54 633.408 3732.75 622.312 3732.75 611.216C3732.75 599.816 3731.23 584.464 3735.18 573.976C3738.53 564.856 3767.41 566.832 3776.22 566.832C3802.06 566.832 3822.13 570.024 3827.14 597.688C3827.3 598.448 3827.3 599.208 3827.3 599.816ZM3770.45 619.88C3784.43 619.88 3804.5 619.88 3804.5 602.096C3804.5 588.872 3796.74 582.488 3782.91 582.488C3780.02 582.488 3776.98 582.944 3773.94 582.944C3762.24 582.944 3759.5 581.576 3758.14 594.344C3757.98 596.32 3757.83 598.296 3757.83 600.272C3757.83 608.784 3758.29 619.88 3770.45 619.88ZM3957.13 620.64V620.944C3956.06 639.488 3948.16 651.496 3930.37 659.856C3920.34 664.568 3909.09 667 3897.85 667C3866.53 667 3843.13 650.128 3843.13 619.272C3843.13 591.304 3868.66 566.68 3898.45 566.68C3910.01 566.68 3924.29 569.264 3933.72 575.8C3950.59 587.504 3957.43 597.688 3957.43 617.6C3957.43 618.512 3957.58 619.88 3957.13 620.64ZM3901.95 648C3920.19 648 3931.89 638.272 3936.15 621.856L3936.3 621.552V621.4V614.864C3936.3 610.456 3935.85 605.44 3934.33 601.488C3929.92 590.088 3913.35 586.136 3901.95 586.136C3881.28 586.136 3865.17 601.336 3865.17 620.792C3865.17 640.248 3884.01 648 3901.95 648ZM4060.07 616.84C4060.07 648.304 4047.15 667 4011.13 667C3999.88 667 3987.42 664.872 3979.21 657.12C3975.56 653.624 3971.3 649.216 3971.3 644.048C3971.3 636.752 3979.06 631.128 3986.35 631.128C3994.86 631.128 3998.97 644.96 4016.45 644.96C4034.69 644.96 4037.12 629.304 4037.12 615.472C4037.12 608.48 4036.51 601.488 4036.51 594.496C4036.51 588.568 4034.38 582.792 4034.38 576.864C4034.38 568.352 4038.49 566.68 4047 566.68C4048.98 566.68 4053.23 566.984 4054.75 568.352C4057.18 570.48 4056.58 571.848 4056.88 574.584C4058.25 588.568 4060.07 602.704 4060.07 616.84ZM4133.88 666.392C4124.15 666.392 4114.58 667 4104.85 667C4094.51 667 4084.03 665.48 4082.51 653.928C4080.68 640.552 4079.92 627.024 4079.92 613.496C4079.92 601.488 4079.62 580.968 4087.22 570.936C4090.41 566.832 4124.91 566.984 4130.23 566.984C4131.45 566.984 4132.51 566.984 4133.73 566.984L4140.57 567.136C4141.79 567.136 4143 567.136 4144.07 567.136C4152.12 567.136 4169.75 564.856 4169.75 576.408C4169.75 587.352 4163.37 587.504 4153.95 587.504C4139.96 587.504 4123.85 586.896 4110.17 590.088C4104.85 591.152 4104.24 596.624 4104.24 601.184C4104.24 604.68 4107.13 606.96 4110.78 606.96H4136.92C4146.35 606.96 4156.68 604.832 4156.68 617.752C4156.68 634.016 4105.91 620.944 4105.91 635.08C4105.91 639.944 4105.61 647.848 4113.06 647.848C4128.71 647.848 4144.37 645.112 4159.87 645.112C4167.78 645.112 4170.97 649.824 4170.97 656.968C4170.97 665.328 4160.33 666.088 4153.64 666.088C4147.11 666.088 4140.57 666.392 4133.88 666.392ZM4239.12 566.68C4250.52 566.68 4258.12 569.72 4267.85 574.736C4271.65 576.712 4275.91 578.384 4275.91 583.248C4275.91 589.632 4268.91 594.648 4262.53 594.648C4254.63 594.648 4247.18 588.112 4236.84 588.112C4219.51 588.112 4206.29 604.072 4206.29 619.88C4206.29 635.992 4220.58 643.896 4236.08 643.896C4242.62 643.896 4249.15 642.832 4255.39 641.16C4256.91 640.704 4258.27 640.552 4259.79 640.552C4266.33 640.552 4272.11 644.808 4272.11 651.192C4272.11 662.592 4260.1 663.504 4251.13 665.024C4244.75 665.936 4238.36 666.848 4231.98 666.848C4228.03 666.848 4224.53 666.24 4220.73 665.936C4211.15 665.176 4203.55 664.264 4195.95 658.032C4185.16 648.912 4182.12 633.256 4182.12 620.336C4182.12 616.992 4182.27 613.496 4182.73 610.152C4186.23 584.464 4212.67 566.68 4239.12 566.68ZM4341.57 667C4333.67 667 4328.35 665.024 4328.35 656.816C4328.35 644.504 4330.17 631.128 4330.17 618.512C4330.17 613.952 4328.81 588.872 4325.01 588.872C4317.86 588.872 4310.87 589.632 4303.73 589.632C4294.91 589.632 4289.59 589.632 4289.59 579.448C4289.59 574.888 4291.11 569.872 4296.43 568.656C4301.75 567.592 4310.87 567.896 4316.65 567.744C4334.13 567.136 4351.45 566.68 4368.93 566.68L4373.65 566.832C4374.56 566.832 4375.32 566.832 4376.08 566.832C4385.96 566.832 4390.67 567.44 4390.67 578.08C4390.67 580.208 4390.21 582.488 4388.69 584.16C4386.41 586.896 4378.81 586.136 4371.52 586.136C4363.16 586.136 4354.95 587.2 4354.95 595.408C4354.95 611.976 4357.08 628.696 4357.08 645.264C4357.08 657.12 4356.62 667 4341.57 667ZM4430.02 596.168C4430.02 605.44 4458.75 608.784 4465.13 609.544C4481.24 611.52 4496.75 617.904 4496.75 635.536C4496.75 647.544 4488.54 657.576 4477.44 662.592C4469.08 666.392 4460.12 667 4450.84 667C4440.66 667 4409.04 666.24 4409.04 652.408C4409.04 646.024 4414.06 639.488 4421.2 639.488C4431.39 639.488 4440.96 646.48 4452.67 646.48C4459.05 646.48 4470.15 644.048 4470.15 636.144C4470.15 632.8 4467.26 630.216 4464.52 628.24C4459.66 625.2 4452.67 625.96 4447.04 625.352C4428.5 623.072 4404.33 621.096 4404.33 597.992C4404.33 582.792 4418.77 571.696 4433.36 568.2C4434.73 567.136 4448.72 566.68 4450.84 566.68C4462.4 566.68 4484.89 568.808 4484.89 583.704C4484.89 589.784 4478.51 594.952 4472.28 594.952C4465.44 594.952 4458.14 588.112 4446.13 588.112C4441.27 588.112 4430.02 589.784 4430.02 596.168Z" fill="#F4F6E3"/>
<path d="M687 689.8H4503.59V699.68H687V689.8Z" fill="#F4F6E3"/>
<defs>
<filter id="filter0_d_105_9" x="0.450684" y="84.4282" width="5431.99" height="1028.4" filterUnits="userSpaceOnUse" color-interpolation-filters="sRGB">
<feFlood flood-opacity="0" result="BackgroundImageFix"/>
<feColorMatrix in="SourceAlpha" type="matrix" values="0 0 0 0 0 0 0 0 0 0 0 0 0 0 0 0 0 0 127 0" result="hardAlpha"/>
<feOffset dy="32"/>
<feGaussianBlur stdDeviation="15"/>
<feComposite in2="hardAlpha" operator="out"/>
<feColorMatrix type="matrix" values="0 0 0 0 1 0 0 0 0 1 0 0 0 0 1 0 0 0 0.25 0"/>
<feBlend mode="normal" in2="BackgroundImageFix" result="effect1_dropShadow_105_9"/>
<feBlend mode="normal" in="SourceGraphic" in2="effect1_dropShadow_105_9" result="shape"/>
</filter>
<filter id="filter1_d_105_9" x="3649.88" y="695.22" width="428.559" height="519.811" filterUnits="userSpaceOnUse" color-interpolation-filters="sRGB">
<feFlood flood-opacity="0" result="BackgroundImageFix"/>
<feColorMatrix in="SourceAlpha" type="matrix" values="0 0 0 0 0 0 0 0 0 0 0 0 0 0 0 0 0 0 127 0" result="hardAlpha"/>
<feOffset dy="32"/>
<feGaussianBlur stdDeviation="15"/>
<feComposite in2="hardAlpha" operator="out"/>
<feColorMatrix type="matrix" values="0 0 0 0 0 0 0 0 0 0 0 0 0 0 0 0 0 0 0.25 0"/>
<feBlend mode="normal" in2="BackgroundImageFix" result="effect1_dropShadow_105_9"/>
<feBlend mode="normal" in="SourceGraphic" in2="effect1_dropShadow_105_9" result="shape"/>
</filter>
</defs>
</svg>
