<svg width="5373" height="1175" viewBox="0 0 5373 1175" fill="none" xmlns="http://www.w3.org/2000/svg">
<path d="M3428.85 120.448C3158.55 111.009 2887.28 96.1828 2616.91 93.7794C2069.58 88.9142 1519.98 121.403 989.603 207.153C636.231 264.285 99.9083 322.787 28.214 631.942C11.405 704.425 -9.6957 803.171 40.1057 872.492C89.1013 940.692 251.538 957.894 342.801 971.954C508.128 997.426 676.453 1007.56 844.41 1015.17C1193.64 1030.98 1544.47 1041.51 1893.89 1041.71C2669.98 1042.14 3454.24 999.257 4206.99 875.608C4576.9 814.846 5031.85 745.766 5300.14 540.098C5343.33 506.996 5387.06 455.516 5347.69 409.053C5315.7 371.297 5244.42 341.419 5193.23 320.244C5018.23 247.85 4817.15 219.998 4621.72 193.7C4333.04 154.856 4042.55 134.245 3749.99 135.875C3335.53 138.185 2972.98 220.627 2588.83 316.924C2484.83 342.995 2381.22 363.621 2282.78 398.92C2257.66 407.927 2217.42 416.435 2203.96 434.084" stroke="#F4F6E3" stroke-width="18" stroke-linecap="round"/>
<path d="M3876.84 1126.01C3875.98 1123.07 3873.84 1119.43 3872.52 1116.71C3871.64 1114.9 3868.42 1111.23 3866.59 1110.23C3863.52 1108.56 3863.81 1101.97 3863.24 1098.71C3862.41 1094 3858.65 1089.96 3855.94 1086.13C3852.02 1080.59 3848.47 1074.01 3842.79 1070.03C3839.44 1067.68 3836.06 1063.77 3833.24 1060.73C3829.32 1056.48 3825.05 1053.39 3819.94 1050.67C3814.87 1047.97 3808.67 1045.39 3804.03 1042.14C3800.89 1039.94 3798.69 1036.47 3795.27 1034.55C3789.03 1031.05 3780.66 1023.85 3772.84 1024.78C3771.33 1024.96 3768.31 1024.16 3766.72 1023.91C3764.17 1023.5 3761.3 1023.3 3758.8 1022.47C3754.14 1020.93 3748.18 1021.28 3743.12 1020.79C3737.35 1020.23 3732.62 1020.55 3726.98 1019C3725.37 1018.56 3723.03 1019.06 3721.29 1018.88C3719.28 1018.67 3717.57 1017.08 3715.26 1017.35C3710.87 1017.86 3704.67 1014.2 3700.41 1012.94C3695.85 1011.58 3691.28 1009.88 3687.86 1006.55C3685.39 1004.14 3682.67 1003.27 3680.58 1000.17C3679.17 998.082 3676.06 994.483 3675.67 992.245C3674.99 988.421 3667.21 973.955 3673.14 972.91C3679.96 971.707 3681.7 965.247 3687.86 964.16C3691.39 963.538 3694.42 961.184 3697.65 959.846C3700.35 958.724 3702.85 958 3706.01 957.442C3712.41 956.315 3718.8 955.187 3725.2 954.059C3728.69 953.444 3733.36 954.037 3736.89 954.44C3741.03 954.912 3744.68 953.892 3748.82 953.411C3751.08 953.148 3754.85 954.476 3757.38 954.588C3760.44 954.723 3764.16 953.993 3767.13 955.018C3770.39 956.144 3773.47 956.098 3776.88 955.496C3782.36 954.53 3777.93 951.767 3776.32 949.831C3773.96 946.992 3769.15 946.279 3767.93 942.129C3767.59 940.972 3766.13 938.83 3765.05 938.241C3764.06 937.704 3763.99 935.177 3763.21 934.17C3758.39 927.987 3755.4 920.573 3753.08 913.048C3749.87 902.602 3742.65 893.474 3740.72 882.552C3740.01 878.485 3736.8 872.207 3733.97 869.188C3733.15 868.312 3731.19 868.36 3730.98 867.176C3730.52 864.586 3730.07 861.997 3729.61 859.407C3728.9 855.389 3726.93 851.494 3725.71 847.542C3723.99 841.956 3720.35 836.834 3719.35 831.13C3718.51 826.361 3717.67 821.593 3716.83 816.824C3716.54 815.182 3716.25 813.54 3715.96 811.898C3715.55 809.605 3717.37 809.917 3716.99 807.808C3716.58 805.437 3718.11 802.67 3718.23 800.118C3718.36 797.167 3720.41 793.783 3722.47 791.506C3723.93 789.892 3723.23 788.452 3723.96 786.359C3724.41 785.058 3725.99 784.011 3726.65 782.807C3727.1 781.989 3729 780.271 3729.88 780.041C3731.7 779.56 3733.27 776.735 3734.56 775.307C3736.09 773.619 3740 772.101 3742.28 771.7C3746.72 770.916 3748.63 770.016 3752.11 772.604C3754.06 774.056 3756.34 776.773 3758.65 777.604C3761.59 778.657 3762.52 782.252 3764.94 783.088C3766.76 783.717 3771.04 787.294 3771.76 789.359C3772.17 790.515 3774.54 792.633 3775.53 793.53C3776.94 794.806 3776.02 797.028 3777.53 798.209C3779.21 799.526 3781.53 804.836 3781.89 806.914C3782.56 810.704 3785.01 815.105 3786.78 818.556C3789.24 823.367 3791.41 829.249 3794.15 833.765C3797.94 840.013 3798.24 848.056 3801.71 854.46C3803.65 858.054 3804.14 862.263 3805.7 866.016C3806.82 868.718 3808.7 871.335 3809.52 874.133C3810.39 877.092 3811.87 879.649 3813.63 882.2C3815.22 884.502 3815.5 887.845 3817.19 889.925C3819.97 893.352 3820.59 898.828 3822.73 902.77C3824.47 905.98 3827.03 908.512 3829.15 911.504C3830.62 913.568 3833.49 920.017 3832.28 913.198C3831.68 909.788 3831.08 906.377 3830.48 902.967C3830.19 901.297 3827.5 892.437 3828.8 890.954C3829.6 890.046 3832.8 886.19 3832.66 885.438C3831.66 879.753 3847.71 875.567 3850.73 873.217C3853.24 871.265 3857.85 870.008 3861.05 869.443C3863.19 869.067 3865.32 868.691 3867.45 868.315C3869.41 867.97 3870.93 869.134 3872.86 869.071C3874.72 869.01 3880.19 872.417 3881.67 874.207C3882.92 875.701 3885.86 879.619 3887.44 879.784C3888.23 879.866 3888.44 882.099 3889.62 881.89C3889.86 881.849 3890.9 879.284 3892.17 878.901C3893.45 878.518 3893.39 876.928 3894.86 876.67C3896.6 876.362 3897.81 875.36 3899.4 874.99C3909.26 872.68 3918.64 869.777 3928.92 870.664C3935.12 871.199 3942.34 874.753 3946.18 879.928C3947.2 881.305 3952.51 888.373 3952.01 884.176C3951.72 881.784 3958.15 880.455 3960.08 880.114C3967.59 878.79 3976.68 880.027 3982.6 885.375C3984.09 886.729 3985.98 887.514 3987.52 888.903C3988.92 890.167 3989.56 891.905 3990.68 892.986C3994.32 896.501 3997.17 900.973 4000.49 904.835C4002.11 906.73 4004.55 912.896 4004.97 915.279C4005.72 919.542 4006.47 923.805 4007.22 928.068C4008.82 937.16 4006.41 947.279 4002.31 955.357C4000 959.923 3999.39 965.179 3997.19 969.79C3995.73 972.835 3996.46 976.174 3995.54 979.263C3994.75 981.908 3993.96 982.521 3994.49 985.505C3995.27 989.935 3992.81 994.811 3993.49 999.748C3994.05 1003.89 3991.36 1007.61 3992.06 1011.62C3992.37 1013.39 3991.53 1014.63 3991.33 1016.34C3991.09 1018.43 3991.95 1020.94 3992.31 1023.01C3993.04 1027.11 3993.76 1031.22 3994.48 1035.32C3995.18 1039.26 3996.34 1043.32 3998.7 1046.5C4000 1048.26 4002.06 1049.8 4002.69 1051.95C4003.18 1053.64 4002.47 1051.99 4000.56 1052.33C3993.41 1053.58 3985.07 1052.44 3978.93 1057.9C3972.49 1063.62 3964.67 1067.81 3958.07 1073.4C3955.33 1075.72 3952.2 1078.46 3949.31 1080.51C3946.8 1082.28 3941.39 1084.77 3940.2 1087.58C3938.91 1090.65 3930.71 1094.68 3927.95 1096.78C3925.57 1098.59 3923.4 1100.67 3920.99 1102.45C3919.52 1103.54 3918.67 1105.47 3917.15 1106.4C3916.09 1107.04 3914.89 1106.69 3914.3 1107.98C3912.52 1111.88 3907.22 1114.65 3904.25 1117.17C3901.23 1119.73 3896.82 1121.87 3893.03 1123.11C3889.65 1124.22 3874.79 1124.34 3875.5 1128.39C3876.33 1133.1 3876.41 1139.24 3878.25 1143.69C3878.66 1144.67 3885.04 1142.15 3886.24 1141.94C3892.2 1140.89 3899.12 1140.42 3903.77 1136.65C3908.35 1132.93 3916.38 1130.97 3919.75 1126.16C3921.13 1124.2 3924.82 1123.58 3926.7 1122.05C3929.21 1120.02 3930.52 1118.63 3932.94 1117C3938.92 1112.97 3943.64 1107.98 3949.49 1104.21C3952.12 1102.52 3954.85 1101.02 3957.41 1099.3C3958.41 1098.63 3959.07 1096.91 3960.03 1096.44C3961.2 1095.88 3963.44 1095.66 3964.29 1094.57C3967.56 1090.39 3974.33 1084.61 3979.5 1082.46C3987.73 1079.05 3993.79 1072.86 4002.97 1071.24C4004.99 1070.88 4010.64 1069.59 4008.62 1066.73C4007.33 1064.92 4005.68 1063.44 4004.33 1061.82C4003.49 1060.8 4000.95 1060.89 4000.48 1059.37C4000.12 1058.18 3993.36 1056.61 3992.02 1056.27C3988.84 1055.48 3985.49 1054.98 3982.23 1055.56" stroke="#F4F6E3" stroke-width="18" stroke-linecap="round"/>
<path d="M3670.83 833.572C3672.12 833.345 3672.52 831.997 3673.51 831.517C3674.08 831.239 3674.83 831.415 3675.4 831.138C3675.87 830.909 3676.28 830.347 3676.82 830.084C3677.96 829.53 3678.84 828.144 3680.08 827.926C3680.77 827.804 3682.82 826.497 3683.34 825.923C3685.27 823.792 3689.21 824.094 3690.98 822.076C3691.62 821.349 3693.86 821.078 3694.8 820.913C3696.32 820.644 3697.85 820.374 3699.38 820.104" stroke="#F4F6E3" stroke-width="18" stroke-linecap="round"/>
<path d="M3658.49 779.523C3662.95 778.737 3667.48 778.341 3671.99 778.66C3676.24 778.96 3679.98 780.643 3684.1 781.411C3685.47 781.666 3686.54 782.456 3687.91 782.368C3688.81 782.311 3689.68 783.465 3690.68 783.509C3692.49 783.59 3694.54 786.018 3696.52 785.669" stroke="#F4F6E3" stroke-width="18" stroke-linecap="round"/>
<path d="M3689.89 729.812C3690.5 729.855 3692.92 732.58 3693.6 733.172C3694.63 734.065 3695.79 735.15 3696.97 735.792C3699.47 737.16 3700.22 740.597 3702.17 742.506C3703.27 743.589 3703.43 744.935 3704.23 746.135C3705.26 747.678 3706.09 749.142 3706.47 750.984C3706.79 752.543 3708.54 753.586 3708.82 755.188C3708.96 756.009 3709.24 757.342 3710.04 757.582" stroke="#F4F6E3" stroke-width="18" stroke-linecap="round"/>
<path d="M3750.07 704.102C3750.76 708.032 3749.62 712.106 3750.28 715.865C3750.57 717.513 3750.24 719.169 3750.55 720.923C3750.98 723.356 3748.84 725.309 3749.25 727.606C3749.99 731.829 3748.2 735.777 3748.95 739.976C3749.27 741.813 3747.12 745.457 3745.74 746.475" stroke="#F4F6E3" stroke-width="18" stroke-linecap="round"/>
<path d="M3800.16 738.121C3796.21 741.778 3792.21 745.403 3787.69 748.361C3784.67 750.332 3781.6 752.05 3778.98 754.554C3777.32 756.143 3775.76 758.26 3773.89 759.523C3772.82 760.239 3772.21 762.265 3771.04 763.131" stroke="#F4F6E3" stroke-width="18" stroke-linecap="round"/>
<path d="M744.47 665.665C733.678 665.665 730.486 661.713 725.166 653.505C723.646 651.073 721.974 648.945 719.998 646.817C713.614 639.825 709.662 630.705 702.974 624.169C701.454 622.649 699.782 621.737 697.502 621.737C690.206 621.737 689.75 630.401 689.75 635.417C689.75 641.953 690.51 648.489 690.51 655.025C690.51 664.449 689.294 667.033 678.654 667.033C674.094 667.033 666.494 665.817 666.494 660.345C666.494 651.073 667.71 641.953 667.862 632.833C668.014 623.713 668.318 614.897 668.318 605.777C668.318 603.497 668.318 601.369 668.318 599.089L668.014 585.409C668.014 583.129 668.014 580.849 668.014 578.569C668.014 571.577 669.078 570.969 676.222 570.057C677.59 569.905 678.806 569.601 680.174 569.601C690.054 569.601 694.31 576.593 698.87 583.585C702.214 588.753 720.454 612.769 726.078 612.769C728.966 612.769 731.702 610.793 731.702 607.905C731.702 601.673 730.486 574.617 732.462 571.121C734.894 567.017 741.126 566.561 745.686 566.561C757.694 566.561 758.15 574.769 758.15 583.737C758.15 587.385 757.694 590.881 757.694 594.529C757.694 604.257 759.67 613.985 759.67 623.713C759.67 624.777 759.67 625.689 759.67 626.601L759.366 632.377C759.366 633.289 759.366 634.201 759.366 635.265C759.366 642.409 760.886 649.249 760.886 656.393C760.886 664.145 750.854 665.665 744.47 665.665ZM893.122 620.521V620.825C892.058 639.369 884.154 651.377 866.37 659.737C856.338 664.449 845.09 666.881 833.842 666.881C802.53 666.881 779.122 650.009 779.122 619.153C779.122 591.185 804.658 566.561 834.45 566.561C846.002 566.561 860.29 569.145 869.714 575.681C886.586 587.385 893.426 597.569 893.426 617.481C893.426 618.393 893.578 619.761 893.122 620.521ZM837.946 647.881C856.186 647.881 867.89 638.153 872.146 621.737L872.298 621.433V621.281V614.745C872.298 610.337 871.842 605.321 870.322 601.369C865.914 589.969 849.346 586.017 837.946 586.017C817.274 586.017 801.162 601.217 801.162 620.673C801.162 640.129 820.01 647.881 837.946 647.881ZM1015.77 660.649C1012.12 665.513 1010.45 666.121 1004.22 666.121C993.122 666.121 993.578 662.929 988.714 655.329C985.066 649.705 984.61 638.457 975.034 638.457C958.77 638.457 968.954 666.729 948.738 666.729C946.61 666.729 943.418 666.577 941.442 665.817C933.69 663.233 910.434 593.465 907.09 582.065C906.33 579.481 904.962 576.745 904.962 574.161C904.962 568.233 915.602 567.473 920.162 567.473C924.57 567.473 926.698 567.777 929.13 571.425C931.258 574.769 931.866 578.721 933.386 582.369C937.338 591.033 939.77 604.409 944.33 612.009C945.546 613.985 947.37 615.201 949.802 615.201C959.986 615.201 954.21 589.513 977.77 589.513C985.674 589.513 989.626 595.897 992.514 601.825C994.034 605.017 996.77 607.601 997.986 610.793C998.442 612.009 998.594 613.377 999.202 614.593C1000.27 616.721 1001.94 617.785 1004.52 617.785C1007.26 617.785 1008.78 616.721 1009.99 614.441C1014.4 605.473 1021.85 571.273 1029.15 567.777C1031.27 566.561 1037.35 566.561 1039.94 566.561C1044.65 566.561 1049.67 567.169 1049.67 572.793C1049.67 577.809 1016.53 660.345 1015.77 660.649ZM1078.05 651.833L1077.9 652.137C1077.59 652.897 1063.3 675.089 1059.5 675.393C1057.83 675.545 1055.86 675.089 1053.58 673.873C1049.93 672.049 1050.54 669.921 1051.75 667.033C1051.9 666.577 1052.06 665.969 1052.21 665.513C1052.66 663.993 1053.12 662.625 1053.58 661.257C1054.34 659.129 1054.94 657.001 1055.55 654.721C1057.83 647.121 1061.63 643.473 1064.22 643.321C1064.67 643.169 1069.84 643.321 1075.77 646.665C1078.05 647.881 1078.2 649.097 1078.35 649.705C1078.66 650.313 1078.35 651.073 1078.05 651.833ZM1183.45 666.881C1181.17 666.881 1179.05 666.881 1176.77 666.881L1163.24 666.577C1161.11 666.425 1158.83 666.425 1156.55 666.425C1137.7 666.425 1135.12 665.361 1135.12 646.057C1134.81 624.473 1133.45 602.737 1133.45 581.153C1133.45 577.809 1133.29 571.729 1137.09 569.905L1137.85 569.145C1141.5 567.625 1145.61 566.561 1149.56 566.561C1156.4 566.561 1160.35 569.905 1160.35 576.441C1160.35 583.281 1159.29 590.273 1159.29 597.417C1159.29 610.033 1160.2 622.953 1160.96 635.569C1161.26 641.497 1166.89 644.993 1172.66 644.993C1184.06 644.993 1195.31 643.473 1206.71 643.473C1213.4 643.473 1215.53 650.617 1215.53 655.785C1215.53 660.649 1214.31 665.969 1208.08 665.969C1199.87 665.969 1191.81 666.881 1183.45 666.881ZM1286.3 666.273C1276.57 666.273 1267 666.881 1257.27 666.881C1246.93 666.881 1236.45 665.361 1234.93 653.809C1233.1 640.433 1232.34 626.905 1232.34 613.377C1232.34 601.369 1232.04 580.849 1239.64 570.817C1242.83 566.713 1277.33 566.865 1282.65 566.865C1283.87 566.865 1284.93 566.865 1286.15 566.865L1292.99 567.017C1294.21 567.017 1295.42 567.017 1296.49 567.017C1304.54 567.017 1322.17 564.737 1322.17 576.289C1322.17 587.233 1315.79 587.385 1306.37 587.385C1292.38 587.385 1276.27 586.777 1262.59 589.969C1257.27 591.033 1256.66 596.505 1256.66 601.065C1256.66 604.561 1259.55 606.841 1263.2 606.841H1289.34C1298.77 606.841 1309.1 604.713 1309.1 617.633C1309.1 633.897 1258.33 620.825 1258.33 634.961C1258.33 639.825 1258.03 647.729 1265.48 647.729C1281.13 647.729 1296.79 644.993 1312.29 644.993C1320.2 644.993 1323.39 649.705 1323.39 656.849C1323.39 665.209 1312.75 665.969 1306.06 665.969C1299.53 665.969 1292.99 666.273 1286.3 666.273ZM1386.82 666.881C1378.92 666.881 1373.6 664.905 1373.6 656.697C1373.6 644.385 1375.42 631.009 1375.42 618.393C1375.42 613.833 1374.05 588.753 1370.25 588.753C1363.11 588.753 1356.12 589.513 1348.97 589.513C1340.16 589.513 1334.84 589.513 1334.84 579.329C1334.84 574.769 1336.36 569.753 1341.68 568.537C1347 567.473 1356.12 567.777 1361.89 567.625C1379.37 567.017 1396.7 566.561 1414.18 566.561L1418.89 566.713C1419.8 566.713 1420.56 566.713 1421.32 566.713C1431.2 566.713 1435.92 567.321 1435.92 577.961C1435.92 580.089 1435.46 582.369 1433.94 584.041C1431.66 586.777 1424.06 586.017 1416.76 586.017C1408.4 586.017 1400.2 587.081 1400.2 595.289C1400.2 611.857 1402.32 628.577 1402.32 645.145C1402.32 657.001 1401.87 666.881 1386.82 666.881ZM1453.99 590.577C1450.49 589.057 1445.63 575.073 1445.17 570.361C1445.02 567.017 1453.68 563.521 1457.94 564.585C1459 564.737 1459.76 565.345 1460.22 566.105C1461.74 569.601 1463.87 584.345 1462.8 586.169C1461.59 589.513 1456.87 591.793 1453.99 590.577ZM1499.61 596.049C1499.61 605.321 1528.34 608.665 1534.72 609.425C1550.83 611.401 1566.34 617.785 1566.34 635.417C1566.34 647.425 1558.13 657.457 1547.03 662.473C1538.67 666.273 1529.71 666.881 1520.43 666.881C1510.25 666.881 1478.63 666.121 1478.63 652.289C1478.63 645.905 1483.65 639.369 1490.79 639.369C1500.98 639.369 1510.55 646.361 1522.26 646.361C1528.64 646.361 1539.74 643.929 1539.74 636.025C1539.74 632.681 1536.85 630.097 1534.11 628.121C1529.25 625.081 1522.26 625.841 1516.63 625.233C1498.09 622.953 1473.92 620.977 1473.92 597.873C1473.92 582.673 1488.36 571.577 1502.95 568.081C1504.32 567.017 1518.31 566.561 1520.43 566.561C1531.99 566.561 1554.48 568.689 1554.48 583.585C1554.48 589.665 1548.1 594.833 1541.87 594.833C1535.03 594.833 1527.73 587.993 1515.72 587.993C1510.86 587.993 1499.61 589.665 1499.61 596.049ZM1676.54 566.561C1687.94 566.561 1695.54 569.601 1705.27 574.617C1709.07 576.593 1713.32 578.265 1713.32 583.129C1713.32 589.513 1706.33 594.529 1699.95 594.529C1692.04 594.529 1684.6 587.993 1674.26 587.993C1656.93 587.993 1643.71 603.953 1643.71 619.761C1643.71 635.873 1658 643.777 1673.5 643.777C1680.04 643.777 1686.57 642.713 1692.8 641.041C1694.32 640.585 1695.69 640.433 1697.21 640.433C1703.75 640.433 1709.52 644.689 1709.52 651.073C1709.52 662.473 1697.52 663.385 1688.55 664.905C1682.16 665.817 1675.78 666.729 1669.4 666.729C1665.44 666.729 1661.95 666.121 1658.15 665.817C1648.57 665.057 1640.97 664.145 1633.37 657.913C1622.58 648.793 1619.54 633.137 1619.54 620.217C1619.54 616.873 1619.69 613.377 1620.15 610.033C1623.64 584.345 1650.09 566.561 1676.54 566.561ZM1809.7 566.561C1817.45 566.561 1821.1 568.081 1821.1 575.985C1821.1 578.265 1821.1 580.697 1821.25 582.977C1822.77 608.209 1825.2 633.289 1825.2 658.673C1825.2 666.121 1818.51 666.729 1812.28 666.729C1810 666.729 1807.57 666.577 1805.44 666.121C1797.69 664.753 1799.97 643.625 1798.14 636.481C1795.86 627.665 1786.9 625.993 1778.54 625.993C1776.1 625.993 1773.82 626.145 1771.39 626.449C1764.55 627.209 1754.06 626.145 1754.06 635.417C1754.06 640.129 1754.52 644.689 1754.52 649.401C1754.52 660.649 1754.22 666.881 1740.38 666.881C1729.44 666.881 1728.38 662.169 1728.38 653.049C1728.38 630.097 1727.01 606.993 1727.01 583.889C1727.01 574.313 1728.38 566.865 1740.54 566.865C1754.06 566.865 1753.61 571.729 1753.61 582.825C1753.61 591.641 1749.66 608.057 1763.03 608.057C1771.39 608.057 1779.9 607.297 1788.26 607.297C1792.52 607.297 1797.23 604.105 1797.23 599.849C1797.23 592.857 1796.62 586.169 1796.62 579.329C1796.62 577.505 1796.62 571.425 1798.14 570.209C1800.73 567.169 1805.9 566.561 1809.7 566.561ZM1901.28 666.273C1891.55 666.273 1881.97 666.881 1872.25 666.881C1861.91 666.881 1851.42 665.361 1849.9 653.809C1848.08 640.433 1847.32 626.905 1847.32 613.377C1847.32 601.369 1847.01 580.849 1854.61 570.817C1857.81 566.713 1892.31 566.865 1897.63 566.865C1898.85 566.865 1899.91 566.865 1901.13 566.865L1907.97 567.017C1909.18 567.017 1910.4 567.017 1911.46 567.017C1919.52 567.017 1937.15 564.737 1937.15 576.289C1937.15 587.233 1930.77 587.385 1921.34 587.385C1907.36 587.385 1891.25 586.777 1877.57 589.969C1872.25 591.033 1871.64 596.505 1871.64 601.065C1871.64 604.561 1874.53 606.841 1878.17 606.841H1904.32C1913.74 606.841 1924.08 604.713 1924.08 617.633C1924.08 633.897 1873.31 620.825 1873.31 634.961C1873.31 639.825 1873.01 647.729 1880.45 647.729C1896.11 647.729 1911.77 644.993 1927.27 644.993C1935.17 644.993 1938.37 649.705 1938.37 656.849C1938.37 665.209 1927.73 665.969 1921.04 665.969C1914.5 665.969 1907.97 666.273 1901.28 666.273ZM2006.52 566.561C2017.92 566.561 2025.52 569.601 2035.24 574.617C2039.04 576.593 2043.3 578.265 2043.3 583.129C2043.3 589.513 2036.31 594.529 2029.92 594.529C2022.02 594.529 2014.57 587.993 2004.24 587.993C1986.91 587.993 1973.68 603.953 1973.68 619.761C1973.68 635.873 1987.97 643.777 2003.48 643.777C2010.01 643.777 2016.55 642.713 2022.78 641.041C2024.3 640.585 2025.67 640.433 2027.19 640.433C2033.72 640.433 2039.5 644.689 2039.5 651.073C2039.5 662.473 2027.49 663.385 2018.52 664.905C2012.14 665.817 2005.76 666.729 1999.37 666.729C1995.42 666.729 1991.92 666.121 1988.12 665.817C1978.55 665.057 1970.95 664.145 1963.35 657.913C1952.56 648.793 1949.52 633.137 1949.52 620.217C1949.52 616.873 1949.67 613.377 1950.12 610.033C1953.62 584.345 1980.07 566.561 2006.52 566.561ZM2133.9 666.425H2131.31C2115.51 666.121 2112.62 633.593 2098.18 633.593C2092.71 633.593 2087.54 636.937 2087.54 642.409C2087.54 647.273 2089.21 651.985 2089.21 656.849C2089.21 660.345 2088.3 662.169 2085.41 664.145C2084.19 666.425 2075.23 666.881 2072.95 666.881C2070.51 666.881 2065.04 666.729 2063.52 664.601C2060.48 660.497 2060.63 641.953 2060.63 636.633C2060.63 626.905 2061.24 617.025 2061.24 607.297C2061.24 598.025 2060.03 589.057 2060.03 579.937C2060.03 568.385 2063.37 566.561 2075.68 566.561C2077.05 566.561 2078.72 566.561 2080.09 566.865C2088.15 568.841 2087.99 587.081 2087.99 592.705C2087.99 597.113 2092.1 600.001 2096.51 600.001C2105.32 600.001 2123.41 577.353 2130.1 571.425C2132.53 569.297 2136.03 567.929 2139.52 567.929C2144.39 567.929 2152.29 572.337 2152.29 577.505C2152.29 582.369 2147.43 586.625 2143.78 589.361C2136.63 594.681 2127.82 603.345 2121.13 609.729C2120.22 610.337 2119.76 611.401 2119.76 612.617C2119.76 615.049 2141.95 648.185 2144.84 652.745C2146.21 654.721 2147.43 655.177 2147.43 657.913C2147.43 663.385 2138.76 666.425 2133.9 666.425ZM2320.94 620.521V620.825C2319.88 639.369 2311.97 651.377 2294.19 659.737C2284.16 664.449 2272.91 666.881 2261.66 666.881C2230.35 666.881 2206.94 650.009 2206.94 619.153C2206.94 591.185 2232.48 566.561 2262.27 566.561C2273.82 566.561 2288.11 569.145 2297.53 575.681C2314.41 587.385 2321.25 597.569 2321.25 617.481C2321.25 618.393 2321.4 619.761 2320.94 620.521ZM2265.77 647.881C2284.01 647.881 2295.71 638.153 2299.97 621.737L2300.12 621.433V621.281V614.745C2300.12 610.337 2299.66 605.321 2298.14 601.369C2293.73 589.969 2277.17 586.017 2265.77 586.017C2245.09 586.017 2228.98 601.217 2228.98 620.673C2228.98 640.129 2247.83 647.881 2265.77 647.881ZM2425.26 566.713C2440.15 566.713 2441.22 577.353 2441.22 588.449C2441.22 598.025 2439.7 607.449 2439.7 617.025C2439.7 617.785 2439.7 618.393 2439.7 619.153L2440.15 623.409C2440.15 637.697 2435.75 655.177 2420.7 660.649C2412.03 663.993 2401.24 666.881 2391.82 666.881C2390.3 666.881 2388.47 666.425 2386.95 666.577L2386.5 666.881C2385.43 667.033 2385.13 666.577 2384.22 666.425C2348.35 661.257 2339.53 645.449 2339.53 613.681C2339.53 604.865 2339.68 595.897 2339.68 587.233C2339.68 581.609 2339.83 570.361 2346.37 567.929C2348.95 567.017 2352.3 566.561 2355.03 566.561C2361.42 566.561 2367.19 570.057 2367.19 576.441C2367.19 589.209 2365.67 602.129 2365.67 614.897C2365.67 632.985 2370.69 648.641 2392.43 648.641C2415.23 648.641 2414.77 628.881 2414.77 612.769C2414.77 602.737 2414.01 592.857 2413.25 582.825C2413.1 580.393 2412.03 577.961 2412.03 575.529C2412.03 568.993 2419.48 566.713 2425.26 566.713ZM2509.75 666.881C2501.85 666.881 2496.53 664.905 2496.53 656.697C2496.53 644.385 2498.35 631.009 2498.35 618.393C2498.35 613.833 2496.98 588.753 2493.18 588.753C2486.04 588.753 2479.05 589.513 2471.9 589.513C2463.09 589.513 2457.77 589.513 2457.77 579.329C2457.77 574.769 2459.29 569.753 2464.61 568.537C2469.93 567.473 2479.05 567.777 2484.82 567.625C2502.3 567.017 2519.63 566.561 2537.11 566.561L2541.82 566.713C2542.73 566.713 2543.49 566.713 2544.25 566.713C2554.13 566.713 2558.85 567.321 2558.85 577.961C2558.85 580.089 2558.39 582.369 2556.87 584.041C2554.59 586.777 2546.99 586.017 2539.69 586.017C2531.33 586.017 2523.13 587.081 2523.13 595.289C2523.13 611.857 2525.25 628.577 2525.25 645.145C2525.25 657.001 2524.8 666.881 2509.75 666.881ZM2697.26 618.393C2691.49 618.393 2682.37 640.281 2670.97 640.281C2661.39 640.281 2654.7 620.673 2648.17 620.673C2645.89 620.673 2643.46 622.193 2643.46 624.625C2643.46 632.225 2645.28 639.825 2645.28 647.577C2645.28 657.457 2643.61 665.513 2630.99 665.513C2617.46 665.513 2616.55 655.025 2616.25 644.537C2616.1 637.849 2615.18 631.465 2615.18 624.929C2615.18 619.457 2615.79 613.985 2615.79 608.361C2615.79 598.025 2615.03 587.689 2615.03 577.353C2615.03 570.057 2619.74 567.473 2627.04 567.473C2628.71 567.473 2630.54 567.625 2632.21 568.233C2634.18 568.081 2637.07 569.297 2638.9 569.905V570.057C2646.95 571.273 2658.35 610.337 2672.79 610.337C2679.33 610.337 2683.13 600.153 2685.41 595.289C2687.08 591.945 2700.15 568.841 2703.04 567.625C2705.47 566.561 2711.7 566.561 2714.59 566.561C2725.38 566.561 2726.3 572.641 2726.3 581.305C2726.3 593.617 2726.6 605.929 2726.6 618.241C2726.6 627.209 2726.14 636.025 2726.14 644.993C2726.14 654.873 2728.42 666.881 2714.29 666.881C2706.84 666.881 2700.91 665.665 2700.91 657.609C2700.91 653.201 2701.82 648.945 2701.82 644.537V622.193C2701.82 619.761 2699.7 618.393 2697.26 618.393ZM2858.2 574.161C2858.2 579.025 2843.91 594.377 2839.96 598.329C2833.27 605.169 2825.06 610.641 2819.14 618.089C2815.18 622.953 2813.82 640.129 2813.82 646.513C2813.82 658.369 2816.7 666.881 2799.98 666.881C2788.13 666.881 2787.37 662.169 2787.37 652.441C2787.37 646.209 2788.13 640.129 2789.34 634.049C2789.5 633.289 2789.65 632.529 2789.65 631.769C2789.65 624.777 2759.55 589.665 2753.02 582.673C2750.74 580.241 2746.18 576.137 2746.18 572.641C2746.18 567.473 2758.79 566.561 2762.74 566.561C2765.63 566.561 2769.13 566.865 2771.26 568.689C2773.84 570.969 2775.36 574.313 2777.64 576.897C2782.66 582.673 2787.52 588.753 2792.69 594.529C2795.12 597.265 2798.31 598.481 2802.11 598.481C2806.06 598.481 2809.1 597.417 2811.84 594.681C2817.46 588.905 2831.14 571.425 2837.07 568.385C2839.05 567.473 2841.33 567.321 2843.46 567.321C2848.02 567.321 2858.2 568.233 2858.2 574.161ZM2962.92 666.881C2960.64 666.881 2958.51 666.881 2956.23 666.881L2942.71 666.577C2940.58 666.425 2938.3 666.425 2936.02 666.425C2917.17 666.425 2914.59 665.361 2914.59 646.057C2914.28 624.473 2912.91 602.737 2912.91 581.153C2912.91 577.809 2912.76 571.729 2916.56 569.905L2917.32 569.145C2920.97 567.625 2925.07 566.561 2929.03 566.561C2935.87 566.561 2939.82 569.905 2939.82 576.441C2939.82 583.281 2938.75 590.273 2938.75 597.417C2938.75 610.033 2939.67 622.953 2940.43 635.569C2940.73 641.497 2946.35 644.993 2952.13 644.993C2963.53 644.993 2974.78 643.473 2986.18 643.473C2992.87 643.473 2994.99 650.617 2994.99 655.785C2994.99 660.649 2993.78 665.969 2987.55 665.969C2979.34 665.969 2971.28 666.881 2962.92 666.881ZM3008.62 663.081C3008.62 652.137 3047.83 576.289 3054.98 568.689C3056.95 566.561 3061.82 567.017 3064.71 567.017C3066.07 567.017 3067.59 566.865 3068.96 567.169L3069.42 567.625C3073.37 570.513 3074.13 572.337 3075.8 576.745C3078.54 584.041 3082.49 590.881 3085.99 597.873C3089.33 604.561 3092.37 611.097 3095.87 617.633C3100.27 626.297 3115.17 648.641 3115.17 656.241C3115.17 663.081 3109.39 666.881 3102.4 666.881C3084.62 666.881 3091.76 641.953 3069.72 641.953C3061.67 641.953 3048.9 643.169 3041.3 645.601C3038.71 646.513 3036.43 650.161 3036.13 652.745C3035.07 654.113 3034.46 659.737 3032.94 662.473C3030.05 667.641 3020.47 666.729 3015.15 666.729C3012.57 666.729 3008.62 666.425 3008.62 663.081ZM3051.03 619.609C3051.03 622.801 3053.61 624.625 3056.95 624.625C3061.67 624.625 3070.79 624.625 3070.79 618.697C3070.79 617.025 3065.47 606.385 3064.4 604.105C3063.79 603.041 3062.73 602.129 3061.36 602.129C3059.99 602.129 3058.78 603.041 3058.17 604.105C3056.95 606.537 3051.03 617.633 3051.03 619.609ZM3154.71 666.881C3146.81 666.881 3141.49 664.905 3141.49 656.697C3141.49 644.385 3143.31 631.009 3143.31 618.393C3143.31 613.833 3141.94 588.753 3138.14 588.753C3131 588.753 3124.01 589.513 3116.86 589.513C3108.05 589.513 3102.73 589.513 3102.73 579.329C3102.73 574.769 3104.25 569.753 3109.57 568.537C3114.89 567.473 3124.01 567.777 3129.78 567.625C3147.26 567.017 3164.59 566.561 3182.07 566.561L3186.78 566.713C3187.7 566.713 3188.46 566.713 3189.22 566.713C3199.1 566.713 3203.81 567.321 3203.81 577.961C3203.81 580.089 3203.35 582.369 3201.83 584.041C3199.55 586.777 3191.95 586.017 3184.66 586.017C3176.3 586.017 3168.09 587.081 3168.09 595.289C3168.09 611.857 3170.22 628.577 3170.22 645.145C3170.22 657.001 3169.76 666.881 3154.71 666.881ZM3274.62 666.273C3264.89 666.273 3255.32 666.881 3245.59 666.881C3235.25 666.881 3224.77 665.361 3223.25 653.809C3221.42 640.433 3220.66 626.905 3220.66 613.377C3220.66 601.369 3220.36 580.849 3227.96 570.817C3231.15 566.713 3265.65 566.865 3270.97 566.865C3272.19 566.865 3273.25 566.865 3274.47 566.865L3281.31 567.017C3282.53 567.017 3283.74 567.017 3284.81 567.017C3292.86 567.017 3310.49 564.737 3310.49 576.289C3310.49 587.233 3304.11 587.385 3294.69 587.385C3280.7 587.385 3264.59 586.777 3250.91 589.969C3245.59 591.033 3244.98 596.505 3244.98 601.065C3244.98 604.561 3247.87 606.841 3251.52 606.841H3277.66C3287.09 606.841 3297.42 604.713 3297.42 617.633C3297.42 633.897 3246.65 620.825 3246.65 634.961C3246.65 639.825 3246.35 647.729 3253.8 647.729C3269.45 647.729 3285.11 644.993 3300.61 644.993C3308.52 644.993 3311.71 649.705 3311.71 656.849C3311.71 665.209 3301.07 665.969 3294.38 665.969C3287.85 665.969 3281.31 666.273 3274.62 666.273ZM3350.33 596.049C3350.33 605.321 3379.06 608.665 3385.44 609.425C3401.55 611.401 3417.06 617.785 3417.06 635.417C3417.06 647.425 3408.85 657.457 3397.75 662.473C3389.39 666.273 3380.43 666.881 3371.15 666.881C3360.97 666.881 3329.35 666.121 3329.35 652.289C3329.35 645.905 3334.37 639.369 3341.51 639.369C3351.7 639.369 3361.27 646.361 3372.98 646.361C3379.36 646.361 3390.46 643.929 3390.46 636.025C3390.46 632.681 3387.57 630.097 3384.83 628.121C3379.97 625.081 3372.98 625.841 3367.35 625.233C3348.81 622.953 3324.64 620.977 3324.64 597.873C3324.64 582.673 3339.08 571.577 3353.67 568.081C3355.04 567.017 3369.03 566.561 3371.15 566.561C3382.71 566.561 3405.2 568.689 3405.2 583.585C3405.2 589.665 3398.82 594.833 3392.59 594.833C3385.75 594.833 3378.45 587.993 3366.44 587.993C3361.58 587.993 3350.33 589.665 3350.33 596.049ZM3482.76 666.881C3474.85 666.881 3469.53 664.905 3469.53 656.697C3469.53 644.385 3471.36 631.009 3471.36 618.393C3471.36 613.833 3469.99 588.753 3466.19 588.753C3459.05 588.753 3452.05 589.513 3444.91 589.513C3436.09 589.513 3430.77 589.513 3430.77 579.329C3430.77 574.769 3432.29 569.753 3437.61 568.537C3442.93 567.473 3452.05 567.777 3457.83 567.625C3475.31 567.017 3492.64 566.561 3510.12 566.561L3514.83 566.713C3515.74 566.713 3516.5 566.713 3517.26 566.713C3527.14 566.713 3531.85 567.321 3531.85 577.961C3531.85 580.089 3531.4 582.369 3529.88 584.041C3527.6 586.777 3520 586.017 3512.7 586.017C3504.34 586.017 3496.13 587.081 3496.13 595.289C3496.13 611.857 3498.26 628.577 3498.26 645.145C3498.26 657.001 3497.81 666.881 3482.76 666.881ZM3588.04 587.081C3588.04 579.785 3588.65 573.249 3596.7 570.057C3603.54 567.321 3620.72 566.561 3628.47 566.561C3657.66 566.561 3681.37 570.513 3681.37 603.497C3681.37 637.849 3653.4 636.481 3625.58 636.481C3613.42 636.481 3615.4 650.921 3614.94 658.673C3614.64 662.929 3614.94 664.449 3610.38 665.969C3607.34 667.033 3603.54 666.881 3600.2 666.881C3593.21 666.881 3588.95 666.577 3588.95 658.521C3588.95 634.809 3588.04 610.793 3588.04 587.081ZM3612.06 605.017C3612.06 610.945 3612.36 618.545 3620.72 618.545C3626.65 618.545 3632.73 617.785 3638.66 617.785C3649.3 617.785 3656.59 614.897 3656.59 603.649C3656.59 589.513 3647.93 585.561 3634.25 585.561C3614.49 585.561 3612.06 586.321 3612.06 605.017ZM3796.91 599.697C3796.91 617.177 3778.37 629.945 3778.37 636.329C3778.37 643.321 3789.77 651.225 3789.77 659.281C3789.77 665.057 3778.37 666.881 3773.81 666.881C3770.92 666.881 3768.03 666.577 3765.45 665.513C3758.3 662.321 3752.83 636.785 3735.96 636.785C3731.25 636.785 3728.21 640.281 3728.21 644.537C3728.21 649.401 3728.66 654.265 3728.66 659.129C3728.66 660.193 3727.6 665.057 3726.23 665.057H3725.32C3722.89 666.577 3717.41 666.577 3714.37 666.577C3707.53 666.577 3702.97 666.577 3701.91 658.977C3701.15 654.113 3701.15 649.249 3701.15 644.385C3701.15 633.289 3702.37 622.193 3702.37 611.097C3702.37 599.697 3700.85 584.345 3704.8 573.857C3708.14 564.737 3737.02 566.713 3745.84 566.713C3771.68 566.713 3791.74 569.905 3796.76 597.569C3796.91 598.329 3796.91 599.089 3796.91 599.697ZM3740.06 619.761C3754.05 619.761 3774.11 619.761 3774.11 601.977C3774.11 588.753 3766.36 582.369 3752.53 582.369C3749.64 582.369 3746.6 582.825 3743.56 582.825C3731.85 582.825 3729.12 581.457 3727.75 594.225C3727.6 596.201 3727.45 598.177 3727.45 600.153C3727.45 608.665 3727.9 619.761 3740.06 619.761ZM3926.74 620.521V620.825C3925.68 639.369 3917.77 651.377 3899.99 659.737C3889.96 664.449 3878.71 666.881 3867.46 666.881C3836.15 666.881 3812.74 650.009 3812.74 619.153C3812.74 591.185 3838.28 566.561 3868.07 566.561C3879.62 566.561 3893.91 569.145 3903.33 575.681C3920.2 587.385 3927.04 597.569 3927.04 617.481C3927.04 618.393 3927.2 619.761 3926.74 620.521ZM3871.56 647.881C3889.8 647.881 3901.51 638.153 3905.76 621.737L3905.92 621.433V621.281V614.745C3905.92 610.337 3905.46 605.321 3903.94 601.369C3899.53 589.969 3882.96 586.017 3871.56 586.017C3850.89 586.017 3834.78 601.217 3834.78 620.673C3834.78 640.129 3853.63 647.881 3871.56 647.881ZM4029.69 616.721C4029.69 648.185 4016.77 666.881 3980.74 666.881C3969.49 666.881 3957.03 664.753 3948.82 657.001C3945.17 653.505 3940.92 649.097 3940.92 643.929C3940.92 636.633 3948.67 631.009 3955.97 631.009C3964.48 631.009 3968.58 644.841 3986.06 644.841C4004.3 644.841 4006.73 629.185 4006.73 615.353C4006.73 608.361 4006.13 601.369 4006.13 594.377C4006.13 588.449 4004 582.673 4004 576.745C4004 568.233 4008.1 566.561 4016.61 566.561C4018.59 566.561 4022.85 566.865 4024.37 568.233C4026.8 570.361 4026.19 571.729 4026.49 574.465C4027.86 588.449 4029.69 602.585 4029.69 616.721ZM4103.5 666.273C4093.77 666.273 4084.19 666.881 4074.46 666.881C4064.13 666.881 4053.64 665.361 4052.12 653.809C4050.3 640.433 4049.54 626.905 4049.54 613.377C4049.54 601.369 4049.23 580.849 4056.83 570.817C4060.02 566.713 4094.53 566.865 4099.85 566.865C4101.06 566.865 4102.13 566.865 4103.34 566.865L4110.18 567.017C4111.4 567.017 4112.62 567.017 4113.68 567.017C4121.74 567.017 4139.37 564.737 4139.37 576.289C4139.37 587.233 4132.98 587.385 4123.56 587.385C4109.58 587.385 4093.46 586.777 4079.78 589.969C4074.46 591.033 4073.86 596.505 4073.86 601.065C4073.86 604.561 4076.74 606.841 4080.39 606.841H4106.54C4115.96 606.841 4126.3 604.713 4126.3 617.633C4126.3 633.897 4075.53 620.825 4075.53 634.961C4075.53 639.825 4075.22 647.729 4082.67 647.729C4098.33 647.729 4113.98 644.993 4129.49 644.993C4137.39 644.993 4140.58 649.705 4140.58 656.849C4140.58 665.209 4129.94 665.969 4123.26 665.969C4116.72 665.969 4110.18 666.273 4103.5 666.273ZM4208.74 566.561C4220.14 566.561 4227.74 569.601 4237.46 574.617C4241.26 576.593 4245.52 578.265 4245.52 583.129C4245.52 589.513 4238.53 594.529 4232.14 594.529C4224.24 594.529 4216.79 587.993 4206.46 587.993C4189.13 587.993 4175.9 603.953 4175.9 619.761C4175.9 635.873 4190.19 643.777 4205.7 643.777C4212.23 643.777 4218.77 642.713 4225 641.041C4226.52 640.585 4227.89 640.433 4229.41 640.433C4235.94 640.433 4241.72 644.689 4241.72 651.073C4241.72 662.473 4229.71 663.385 4220.74 664.905C4214.36 665.817 4207.98 666.729 4201.59 666.729C4197.64 666.729 4194.14 666.121 4190.34 665.817C4180.77 665.057 4173.17 664.145 4165.57 657.913C4154.78 648.793 4151.74 633.137 4151.74 620.217C4151.74 616.873 4151.89 613.377 4152.34 610.033C4155.84 584.345 4182.29 566.561 4208.74 566.561ZM4311.19 666.881C4303.28 666.881 4297.96 664.905 4297.96 656.697C4297.96 644.385 4299.79 631.009 4299.79 618.393C4299.79 613.833 4298.42 588.753 4294.62 588.753C4287.48 588.753 4280.48 589.513 4273.34 589.513C4264.52 589.513 4259.2 589.513 4259.2 579.329C4259.2 574.769 4260.72 569.753 4266.04 568.537C4271.36 567.473 4280.48 567.777 4286.26 567.625C4303.74 567.017 4321.07 566.561 4338.55 566.561L4343.26 566.713C4344.17 566.713 4344.93 566.713 4345.69 566.713C4355.57 566.713 4360.28 567.321 4360.28 577.961C4360.28 580.089 4359.83 582.369 4358.31 584.041C4356.03 586.777 4348.43 586.017 4341.13 586.017C4332.77 586.017 4324.56 587.081 4324.56 595.289C4324.56 611.857 4326.69 628.577 4326.69 645.145C4326.69 657.001 4326.24 666.881 4311.19 666.881ZM4399.63 596.049C4399.63 605.321 4428.36 608.665 4434.75 609.425C4450.86 611.401 4466.36 617.785 4466.36 635.417C4466.36 647.425 4458.15 657.457 4447.06 662.473C4438.7 666.273 4429.73 666.881 4420.46 666.881C4410.27 666.881 4378.66 666.121 4378.66 652.289C4378.66 645.905 4383.67 639.369 4390.82 639.369C4401 639.369 4410.58 646.361 4422.28 646.361C4428.67 646.361 4439.76 643.929 4439.76 636.025C4439.76 632.681 4436.87 630.097 4434.14 628.121C4429.27 625.081 4422.28 625.841 4416.66 625.233C4398.11 622.953 4373.95 620.977 4373.95 597.873C4373.95 582.673 4388.39 571.577 4402.98 568.081C4404.35 567.017 4418.33 566.561 4420.46 566.561C4432.01 566.561 4454.51 568.689 4454.51 583.585C4454.51 589.665 4448.12 594.833 4441.89 594.833C4435.05 594.833 4427.75 587.993 4415.75 587.993C4410.88 587.993 4399.63 589.665 4399.63 596.049Z" fill="#F4F6E3"/>
<path d="M656.614 689.681H4473.2V699.561H656.614V689.681Z" fill="#F4F6E3"/>
</svg>
